<mxfile host="app.diagrams.net" modified="2021-08-24T08:24:09.359Z" agent="5.0 (Windows NT 10.0; Win64; x64) AppleWebKit/537.36 (KHTML, like Gecko) Chrome/92.0.4515.159 Safari/537.36" etag="YdYpu1OA0eaBdo_novHN" version="14.9.8" type="github">
  <diagram id="a_jXZKMeGOYpgujewYCH" name="Page-1">
    <mxGraphModel dx="1209" dy="626" grid="1" gridSize="10" guides="1" tooltips="1" connect="1" arrows="1" fold="1" page="1" pageScale="1" pageWidth="850" pageHeight="1100" math="0" shadow="0">
      <root>
        <mxCell id="0" />
        <mxCell id="1" parent="0" />
        <mxCell id="uIqNh53o-6qnePMkbcAM-1" value="" style="shape=image;verticalLabelPosition=bottom;labelBackgroundColor=#ffffff;verticalAlign=top;aspect=fixed;imageAspect=0;image=data:image/png,iVBORw0KGgoAAAANSUhEUgAAA30AAAG5CAYAAAA6bF0yAAAgAElEQVR4Aey9d3RVV7bmy+33V49xb/d73X3rVnXVrbrliI0TxtnGuTDZ5BxNNmDA5BxMtInGBGNyjhICBIoIISEJ5ZxzDifnJP3eWOucLYQsMGWDA95iTPbZe8+9wrfit8Jc7fQ6G0K0LUTcG3R2KXqtjR8SndbCvYhea+HXKjqNmXuRX2v41XD9evOWmjZq2vwW84BBa8Wgs6ETbYTeLq/id2sR7/R6xz2KaFdE+3I3sWPUO+5NZDtlwyjbKau8mnR2TDpHC7Fj1NoxacTVq2sQbZbGhLbBIEWnMSKeCTHqbHjdEO7YMWkdXtH4fku3fe90dqkv0le2Hw3CTSN6jRmBn1EnxOueuCr+i6tBcyu8io7ir6IndO5VT/lGXlvEoaW/ilvNuj9CT6Sd+N6guRWHNt3zYe3V9ca1Tb0WuCjhEzgIXQUPcZV5Rkm/FtiJ5y31mv3wYaxgqNdYuKvI/O7N8225p7ijhOtuadYyDC312koLgwinwKBFPNrSa8tfJS3EOwU76Xdr9+6QFibxvKW/wp02MFb8VnCRfrSh90Npobhzm58t0l+8V+Ih/GqpJ+9b+Hmvei3D2tI98Vt5p7j1z6SF/L4Fdq3TQrgp5G55zlvn+OqBVmkh6g/ZbmjMsj4R7sg6ublesTbXWV49kb+FrrceE8+89ZlX75bO7Xq36r0W7jX7ecu9H9Rr7t+Lus/rt3L1hssXD5+eeCfqR0VHXG/p3eoztNRT4tRSr+X3inv3oqfXef1o7W9r91q62dpfvfb2uIp7r5jQa03N+HvbAW97IP2TcW0dXzM6rfc78a3yfcvwKL9lWjb75cVVtD8yfL7nwq22pF1+fjlCcvNuSV5+OQX5FRQXVP2gFBVUUphfoYqKgZoH1Dyg5oGHKA+Iur24sJqSwlpKitqWYvG8sJbighoKC6rvKtId4db9kKJayorrqCiup7KktTRQWaJIPRVSr45y8U1RjZTSQtG2lVNYUEpBQQlFBaXyvji/gpL8Kkrzq6WUFdRQXlRHhZBi4Va9dKe0oJqSvEop4hv5XWElJVIqvFeBn3iXV+HTq6SkoKo5DLfCUk1xvtct4ab83YZeWcH90ysvrOGe3CusQcS1ZfgkPgXVt8WjVOQT0V9oEY9SgWNh23q3sPNi0lpPhE18fy96Ijyt9cpE/Hxp/c9cW8dVxEc8a+3G/dQTadGWewKD2/wtrPkexiLurfXaSguRNq0xFvf3ivG96Ik4tE4LiV2rtGidTwTGreMg4v1z6LXGRKRFW/621hP5q7WeLBet8vtt6XeH/CjrJZEH2sjHJQWViLpKEXEv6pSivPJmEffKe+XaWkfoF7dyS+i2pdfaz1+7XluYFIl6vFV829IT8f8pei3TQfwuzCu7TVq/V+7vlhZ3c0MJb1mRqBt+nLRLzyhASFr6LVGe5WQWcy+SlVGIKioGah5Q84CaBx6ePJCdUUROVgm52WXk5pQ3S152Oa0lN6uMnMzSu0p2Vik591HysssoyC6jMLucwpw7S35WKQVZZYhrXlYJeVnF5GYWkZ2RT2Z6TrOIe/Fc6OVLffFNmfxWfC+kMKtcinQrs4TcTOFWMTkZheRkCimQ7oprbkahfJfXQk/o5gnJ8kp+ZgnivSKKe/dDr6Vbd3OvpZ4M2x3C96P1fHEVcW4Z3++51wKT+6nnTXOR7orcwl9Jh9Zhu99p1jKu4ved8kBLvYcxLUS63mvaKmXit5wWt/Kct95pmd+U3976prS5DrgVb289JeokVVQMlDyg5Jsfe22Xlp6PkNS0fFLS8qSkpuWRlpZHVnrhPUlmegGqqBioeUDNA2oeeMjyQEYhmRlFt0mGeJZ+u2SkFZCWlk96WkGbIt7Lb9r4trVb93IvCamPcP1g4+fT83aoiyRBy84oICs9TxK+9PRsMtKyyUzP85E30Sm/RcRu/y06Z6U+0igIfgFZkjwKt/LISM8lIz1HirgX77PloKjQ+75IsphRKHXupCfC+mP02vLPG57b3fvZ9NLvzV8lruJ6J0xEmP9ZPeHWvbh3N53WafGzYdcivvclfL/TtLhTeonnLdP259Tz5mMvqVHyaMurEhYlv8u6q4265MfqKd/d6SrLYfr3666W+gp22T+zngzbXepXJYwKdsr9na4K7nd6rzy/F0yE7j+r90P4KfHIlgOMykDj96+CIIpByLb02slGOr2AVEH+Mm5JRroYBc1HXO8m6Wl5qKJioOYBNQ+oeeDhzANpqTmkpbSS1BxSU7JJTckhPTWXDF87cLe2QjSCmXfprCgN6r1eRYMmRz+zCsn9AfHOwimNY4GckcvKEKQsVxI/cRUkMCs9H9HwKo3rna5CT5LGNC/JS0/LRkhaWhZpqZnyKshfZprXXXFtS7x+Cn/z2nyvfPMw6Hnj4MXtbvF9MHr3jrGC+Z2uSlrc6b3y/H7qKW6Jq+J+W9d/Tu9WHm7LLfHM69791vt50+Kfw+Tew3b/00LgfGcR9ZIkBXfRUeqv34uegskPxfdB6d0tvZS0+CGdf1ZPEOwfFEn42tZrl5VeTEFhFfmFFRQUV1JYUkVRSRWFRRUUFJRRIPc8iH0Pd5IyCgvLVVExUPOAmgfUPPCw5YGCMrnvTex5UyQ3p5CoqDhOnfTj0qVgUlKyKC6qoLS48q5SUlzJg5DSEuFuxR2ltLiC0qLK70lJ0a1vmt8LXSl3iksFJUXlt0lxURlFRaU+KaGwqFhKUWEJ4l1rffX+dvxUPFQ8fs95wFvfeOudsuIqWkp5STWqqBi0zgMVpTX8WGmXnVmCVmPD7sIrbnC4wOkGlxvcHlVUDNQ8oOYBNQ/8LvOAaAPcTbhcjc1SW9vApk1b+ctf/kaXf3QlNPQqHk+TV8/diOtO0sKNlu79qN9OD04hDrcUu8PFncThcONweHA5Gn9AmnDaPVLupCveO+xuKXa7C5vd6RWbA6vNLsVisyFE3De/V/TUq4qJmgfUPNAiD4h6RKlTRP1ye93ThMuhiorBrTzgdsJPkXZic73B4MTZBI5Gr4jf7kbwNKmiYqDmATUPqHng95wHGpugpWi1etav+5L/9i//Dy927ERg4GXEXxO367X8RvktdO63SM/v4b/77a/q3v1PSxVTFVM1D6h5QM0Dd84D99DU3VWlXVZGMTqdHTfcJh7RgN+rtOoUKA28ev3hTpCKkYqRmgfUPPCrzQM+ItfUBIpotTrWrdvAv/zLf6NTx5cIDLwiG5lfqqG+awvne/lLhU31986dFxUbFRs1D6h5QM0D/1weuJf27m467TLSC9HprbjE7F6LmT1B+NTEUDFQ84CaB9Q88DvPAy0InyB+kvStXc+/tPsXXnyxE5cvq6RPLSO/8zKi9pfU/qKaB9Q88DPkgbsRunt51y4lNQ+90TvTJ5YwiRHn+9GA3Yvnqo6KgIqAioCKwK8cgVYNglajZe2atbRr144XO77IZd/yzl95LNTgqQioCKgIqAioCPyuEWiXnJIrZ/q87XoTTU2NNEna97vGRY28ioCKgIqAioAYuWwS7cIt0Wg0rFmzRpK+jh07cvmyd0+fCpaKgIqAioCKgIqAisCvF4G2SV+TWNyp/qkIqAioCKgI/N4RaEn4xG+V9P3ec4QafxUBFQEVARWB3yICKun7LaaaGmYVARUBFYGfCQGV9P1MQKveqAioCKgIqAioCDxABFTS9wDBVZ1WEVARUBH4rSOgkr7fegqq4VcRUBFQEVARUBEAlfSpuUBFQEVARUBF4I4IqKTvjtCoL1QEVARUBFQEVAR+MwiopO83k1RqQFUEVARUBH5+BFTS9/NjrvqoIqAioCKgIqAicL8RUEnf/UZUdU9FQEVAReAhQkAlfQ9RYqpRURFQEVARUBH43SLQLjU1D53O0uJsPnFggzjAQf1TEVARUBFQEVARuB0BrVarHtlwOyTqnYqAioCKgIqAisCvHoF2aWl56LTmZtL3qw+xGkAVARUBFQEVgV8MAUH61q1b13xOX2Bg4C8WFtVjFQEVARUBFQEVARWBe0OgXVpaLlqtSSV994aXqqUioCKgIvC7RkCn07F+/fpm0nfp0qXfNR5q5FUEVARUBFQEVAR+Cwj4SJ9RJX2/hdRSw6gioCKgIvALI9CS9L3wwgtcvHjxFw6R6r2KgIqAioCKgIqAisAPIaCSvh9CSH2vIqAioCKgItCMgEr6mqFQf6gIqAioCKgIqAj8ZhBol56Wh1arzvT9ZlJMDaiKgIqAisAviIBK+n5B8FWvVQRUBFQEVARUBH4kAirp+5HAqZ+pCKgIqAj8HhFQSd/vMdXVOKsIqAioCKgI/NYRaJeeno9GY1D39P3WU1INv4qAioCKwM+AgEr6fgaQVS9UBFQEVARUBFQE7jMC7TLSClTSd59BVZ1TEVARUBF4WBFQSd/DmrJqvFQEVARUBFQEHmYEJOlT9/Q9zEmsxk1FQEXg14hAE95/v8aw3S1MKum7GzrqOxUBFQEVARUBFYFfJwLtMtML0enUw9l/ncmjhup3gUCTN5YKCRDXtv7E07bftKV9b8/ut3v35uuP02oZ1mYslB8tXiqPfpwvD+6r5vRtaqTJJ41NHkn9RML+WsPdGhGV9LVGRL1XEVARUBG4hYCo62XdLur5B9Bu3/JJ/aUi8M8h0C4jowi9wUZTi07TP+fEw62tFFjl+nDHVo3dz46AL2OJRsLZ6MLV6JKNRXNL0fwePHjltnetAqzk0x++ikapEXeTB48gHk2N0iXxXfMP380PuyUIy739U5z/Z68iDCKEzeFTHGjxwNvQijg1SRHN7a1/t0jVrfjceqv8Upy9H1fFzearQvZEqJqaaPK48bidNDUK4ncrbsrv1tf7Eab74YYgfevWrZOHsz///PNcuHDhfjiruqEi8FAhIMt9U6OszwUBUMRbH9xeH93XiLeoOES9rgwstXh8W31zX/3+kY4115G+Gls600aA23j0/TbhR4bhp3wmwi/aUzmYRxNujwOdvpbq6kqMZise36CeAvwDzwM/JTLqtw81Au0yM4sxGh2310BKyXqoo95G5JR4+66tbpXy2saH6iMVgZ+AQBOywRCkT4ggYV7CcnuxbGzVcLSVIe+UZ7/3vKkRT5Mbd6MQQTRbjEi2VPaRkZaP2v4tiMytGaw7/v6RTbTwsyXpE/fN8W8RINGYuiWZFfG71Qgr3ytuiNg2N9It9H5CKn7vU9mwi05Xo8crvo6ffO5yYauvQ19SjNNklCTQS7vbjFZzVL/nyS/wQKvVqqTvF8Bd9fK3hYAo54JweUSd3lJ89busgyTJuc/xaq4Pm2hsdEu/vWTEW7codaCsQ+/F62b32q5z70flpNSVIpwKOZYzEa38bnV7P7y+FwR+UMeb1rcItt1h5Gp4AJu+2kBUbBpWl7f9UgIs0t7T1NTcpt1zWvxgSFQFFYG7I9AuK6sEk9F5q6ch9JWSdfdvH763Srx911a3v1tYHr6E/nXFSGnwBAkR0kxaWhIdkRkV1tc6Y7aITutXd7oX/gjS5yV+gmh6SV9zJvd9eKfvv//8wZI+EUXhp/Inf4v/RA9G4iKZM6Kj4G1QvVh6OzvexlWoitlS+ckvQPoUvMXVadRREhpE1NataNLTaXS7b+sAfB/f2+Ov4PBzXOWspJiZ9IkgfWvXrlVn+n4O8FU/frMItCR97kYnLrcdq82EyWLEbDFjspgxWyxYrFZsVhsup0uWsZ8cYV/l0dTYiMfjxOGwYrNbcbvFYOLtg2f37NedKqSWz+/Zse8rKm2grCMbXQi83G4XTrsDq8WKzWKVV7vNjtMt2i3xxa+nq+pNay/pE22Q3W7gyJGdDB06hOPnw9A7kLN9SqAbfatRlPZIxEX9UxH4ORC4RfqEb0rOU0rTfQqBt3jeJ8d+pDOyUmmOoNcRJbrNTirx9l1b3SrltVld/aEi8JMRUDJZYyM4XTTa7XhsVilumwUhjXYbTQ4HTW63XAooCNtto6AtAqE490NXMZsoZhUdHidOp136jUe426IlbbHPrNXj1mreRTnKjNndrq3KoAh6W2WzRZS8P5WwiHXoUgSD83hxsppxW0x4rBY8Dhset+g0tJjp842oKstjHwTpaysOLTETRFQspXU1eXB4HJi1VeSfOU70wkWYE5NodLmaO2ReTL6XFG0g9z2UHsgDhewpV5X0PRCYVUcfQgTEoJOY5ROET6evJ/rGNY4eP8KRY0elHD52lKPHjnH69BkSE5OwmC0/iIJSr9xR0acg/HY77RQX5XH9WgQFBYW43LcvJb+jG7/AC1GHSqw8dpweG7W1VURevcqpo8c5fvgoJ44e50LARVLTMtAbTQji5I2qt/b9MUFuiaVSh3td/b5rQvdOf+KddyDVu0fbZtdz9PBOBg8dwpGLYeibZ/qUbRXebQgq6bsTourzB4XAAyV9cpTdt7xJ6aiJ/pooHLKA+TqHshPboq/5T/VulFKrlEjl6kNMea0sGWj52ju74XviDVjzbIro4CgTKwr4Ij6t/5TqRvFHubbWU+9VBNpEQHCYxkZcDgvm6lKq465RERZIZfhlysIu+X4HUxcXg6W0BLfdgsvtoNHjluRHKWO3ypM3Ryr5UDSMonx5RbwTnzVJ8iiWdTrsZgzFBeiSU/A0aL3535fxha4oI7cvNxUzPt4yLBtdhYyJmbNGt088eDxuGUaxtLE5jM37Bm/NCnqXPnq/84auTZRkuJVRanEjCLCltpKya1coD71EWVAA5WGBVMdex1JaLMmzwJXGRomvcFtES8FDhE9Iy7ApyMlyLomlL3ItgySeK38SR2X5pnfW1OuezyWlfpPLO73LaJ0eJza3BWNDKXmnDnJz4QKsiYk0Op3N6SQC2tQolv94Z31FvEWa/VJ/CtlTrirp+6VSQvX3N4eAqHMaPTidFrKykpg4aTT/5w//m3//jz/yp7/8J3/685+lPP10BxYvWkJxYbEc7RGzfgaDAY1Gg1ajxWwy4/ERNlmPNTbJmUGLyYxOo6G+rhaNVoPNZpd1h6gjHTY7tVUV7Nuzgz69e7Jx41aKSypoaNCg1emw2qy4PS5sdhsmkxmnwyn7ZaKv5HDaMRqMWK02PB7vfkS704bBaJBhETOTRoOBhoZ6NJoGLFYLjR5BYbx/TqdTfq9p0Mg4CDIr3Lnbn6g1xUyfw2PF5jZxNSKEXt278x//6//wp3//D/70xz/R/qmnGTdhMhHXorFY7TK8TpcIqx6T0YTD7pCzpwK3hoYGjEYjbpfLG6/GRhlXnU5LfX0d9Q316AwmHC6xBNeD2+3AYtZj0Glw2u0y7gKnuvp6dDo9NoezeYZRxEN8Y7VaEfVhfUODFL1Bj93pxGLTcejA1/Qf2I/D/sHUm11odQbqhL86DWaHE2eTb5++b3XKL1fD3y1V1HcPGwIPhPR5O1geXI0OWYhFZ1B2hkQHTPSjPLc6gl76d2tUWwD8Q/2bRtmR83Y+vb3YW8kivxWlxyfKT6VDqtyLL0SnV4RV/CkdWHErwyiuovPlW2MudHxdOcVpefV2iJu9a34nHVX/UxG4BwRE3jRb6ihLCCV03iQuDulJ2PihXP5kMFeETBhJ+KI5lAZdxG5swGk34TTpcGjqsNdWYq2vkvdup2ignZJ4CeMgjQ47Lp0WW00F1uoy7Jo6OTMmCJPH5cBu0qLJTyXn8C6uz5mBLvQK9upKrDXV2HU6+b3bbcdm0WHRa0SB8WZ0jwen2YBVUw9WsW6lkUa3U7pn1lTjMhvxGI046qqxVlfg0NR7Z+F8RmrEqLfdrMVSXynDZtfWSvckSRN4eYvkbciJR5L8yPqhEafNSGHMFU6M64Xf8N5cGTuQi2P7Ezh1FJl7vsFaVARON00uF06bCZu+AbcYHbZYJG7WqjLs1RW4jHqJhRhhdrvsOEzecJlrynHU1+IxmcDllmRY4OYyGXCIb6wWnFqNjJ9V4KurxekwS6Ir6gyPx+WdsdXpsNfXIHQcdTU4dPXYLBoMdUUUnjpI4vz5mGJuyDBZaiswV5fjEuTb5sVVED9RN3krpdsg+dluFLKnXFXS97NBr3r0W0dAFt1GXC4rmVnxjB03mKef68D4ydNYtW4DK9esYdXq1WzetJkrV4IkIROELysziwMHDrJ27TrWrVvPqZOnKSkpxSWWgTeB2+WmpLCI82fOsGn9elYuX8rmjZsJD7+OTmfE7XSTnpzCjq1bGDqgD8+0b0+fjwexeMkalq9cw7bt3xAVG0WdroqkpAT8TgeQl1OI6Fs5PXYKinI5d/Is18KuozcYcLitFJTkcPbMac6f8yc0JIT9+75j1arlbPhyHaGhwei0GllPCeKVlpLKgb37Wf3Fahl+f/8AKiur8IiBuLb+fHW+QvqMjnquRgYxoG9fun3Yhfmz57J06TKGDB3O62++w4oVayktLZf7/+rrK/A/e5oTR04ScyMOPz9/1q1fz4oVKzh54gRVVZVy4E+v03I98hrfbP+aVSuWs3r1ag4fOUN2TqmcYbVYNERdu8jJg3uIi4omKCiEzVu3sXzFcr7ZsYuE5FQMFgvuRg8ul5Oy8jIuXrrIV199xbLly1mxahXffvcdSalpaLTVHDqwjb59e/LtvlOEXUtixzd7+GLVGr7Z+R1xiZkYLKJ/LNo17wBfG81eW0ipz1QEfhICD4z0ycLrtmAyaygpyqOmuhqr3eHtzzU1YTObKS0uoaKqGotYuub7J0aLjHo9ZaVlmIzm5r6O8l6MFtXX11NSUkJhQSGlxaXotDpcLjFb0ITVYqeirJKCvEIpefkF5OXlk5uTRV5uNvn5hVRUVMsRIZNFT3FJIUVFxRQWFpFfWEhBYZF0t6K8Aofdjk7XQF5BDkXifUE+eQWF1NQ1YLE7cQNOYQijxV4hUXDVwvuT8uTv7mMxsmqy1FIWH8L12ZNInDWF6qP7qTh3nKqzx6n0P0VVyCUMOalYjXWYasuoirlK0fH95O3eQt7+HVRFBGOrq0KQNEGqHCYdmpR4Ss4cJWvnBtK3ryH70C7qb97AIxpxvYaq6FAStywnevIgIvt8SNa8aWRtW0fs1xtIPHMEbXEONn0d1ck3yLh4HmoMknmJJZT1mcmknziKPT0frE6cZj21OQlk+h+hOuoq9ZHXKDj8Lanb15FxeDe6rGRJVsWyF311ESXXLpP53TZyv9lI4fEDNNyMkeGShUd2lG4vReJOIX1i5NxmaiA30g//qYPIWL+KuhOHKdm/nZsrPids1qeUhoaBxSFnRutL0sm+cIiKkCAMcTGUnjpE5vb15O3aSs21EOz6ehx2I8bqYopD/Ej79isSN68ge+82KkMuYa8sl8tGrYY6KmPDyfM/iSb6GoV+J0jesYnU3ZvJv3gSY3khjYLsidFzfR0NibGUnDpC1q4tZGz/iry9OykNOIM2OxlDeS6FJ/YTP3smdWdPUuJ/nNRvN3Hz63XknTyGJb8Q7C7vjJ8oEbfD8bOWEYXsKVeV9P2s8Kue/VYREGVWShMOl4X0jBuMGtOHbr26E3o9Vs70KCoiimKQWRC+3Jxc1q1dz7vvvMcTTzzJ4489zvvvfsA323dSWVEtSZ/ZbOHM8RMM6dOHl557lkf/6688+vfHGDpkDBFXozEZzFz0P0/vbl35zz/+O//vv/0bf/7TI7R/siNPPPEMH3b5iO8OfEtRVS6HDh9gzPDxXPQPotHTJAfrIyJCGDloBCuWrKGkvByTQ8f1m2GMHj2Sbl26MnTIYN5663WefPIx2j/1OHPmzCIvLweX00lqcgoL5y3gjVdf54nHn+Cxx5+gW4+eHD9xCp3eoFTxt6eqr36Ts4weKzpbFWHXAvlk9GjWrVpNZWk5er2Bc/4B9O03hHlzl1BYUCzDmp2TyPjRI3j/rQ+YMG4yH/fpyzPPPcuf/vhHBg8cSFJCAi6HnZTkRGZ/PpPXX32Z9k88xmOPPkbnzt3Z+vUBysorMJmq2b5lCb0+fJNxI0YxsP9gXuj4In/7+19p/1QHFi5dSU5RMTaHjbKSIr7etpUuXbrQvn17HnvscR5/4kneeucdNm77mrzCLA7u30r3j95lzOgJjB07lbfeeI/HHn2ax5/qxOwFa8jKLcclFqPI1TTK9MftsKh3KgL3G4EHSPo82Fwm8rOS+GzCWFYsXkJ6dp53iZXHQ1xEOGOGj2TeslVkF5bIGTUxM2jU1nJ43x4mjptAQECwGKyXoyFyKZrTRkFBvhz9GjViNP36DmDsqHHs+uZbcrPycVhdpKdkMvfz+fTvM5B+Hw+gd6+P6dmjJ7179aJ371707dOXRYtWSKKXKZdbjGFQ/2EMHDCUfv0GSunbpz8L5i2gorSYy5f96N+/N/37D+bjfv3o3XcQK9dsIjzyJiaHC2dTk6y8WxO/+51QqnsPJwKirROzxRZrA5WJ14hZNJuS7dtwlpfL2SS31YxHbMJ3WLFbdZj11VTcCCd01UKCp43n2tTxhE+bSNiieZSFBcmZK0H8DJXFJO/dTuisiQRNHELAyJ74j+7Lzc0bsOcVYK+rJfvEfi5OGMy1AR8Q0/1tIgd2kzOMZ6eMxH/NIkqTozHVFJNz/ihXVi7DnV6MaKXEbFXOpVOcmPgJmktXweLEaqwnJ+w0p2eOIGLlfCIWzSbk01GcH9sH/2nDKb5yFruhHn1tMTkXTxK4cAaBE4YTPH44lyePJWLVcjQJieDwGjRpndoSJ18fSiF9eVEXCFo4FX1QGGgtWEuKyD/2HeELZlJw6QqY7TgseopuBhIwbxhh86aTs/YLYmZNIeyTwYSOH0bKd19jqS7Foq+l5EYIQctnEjBpEAFjehMwuhchsydTGRKIVV9LfVkGSfs3c2HqSG6umMfFWZMJmDicU2P6cnraCPIunPLOcJp0VNyMIGLdIvzHDeLyuMEEjR9K0KTRRCydR9Hlc2gLU8k5uouI8SNJXTaPsFkTOTtuAECYrVMAACAASURBVCeH9sBv/DCyjh+lqUEn1/+IusXXJ2oNy89yr5A95aqSvgcHu8BY/XtIEBBJKcVL+tLSoxgxuifvfPge+4+fJTUrh8zsbLKys6moqMRut1NTV82u3bsQfZDpU2dw8MAhdu7cxZAhwxgyeDghwVdxODxotTou+Pmxc/NGzh47xOH9uxkzegzvvtONXTv2odPoqa2qIiI0kCVzp/L2668wafIsDp+4wLmAy1wJDSM7P5N6QyUHD+5jzNDxXPILxuMRM302wiOCGTVwBCsXr6WwvAyDQ8P1+FCGDBnIs08/y4D+/VmzZhVHjh5g2YpFbNm6kZKSYqoqKti4fgMD+vRj6cLFHDl0hHXrNvBRtx5MmTqd9IxM78qF1knsy/ZilYTwX5K+yEBGDhvGrGmfEREaTuT1KJYuX8mQYWM4fOgUWo0eh9tCdk4cE0YN4/n2L9D/48GsXLmaQ0ePsGjRQpYvWUJGaip2q4WEm7Hs3vkN+/bs5tTxo2xYv54PuvRj7PjPSUpOxWiqZvOXC3j9had48+U3mDVjDgcOHmDzlg28+9579B00goiYWGoaajhz6jg9unWVpE/M9J3z8+Ocnz/f7tvHyXP+FJTkcmD/Fjq/0ZGXX3yZTyfN4OC+I2zdtoMPu/Wld7+xhF5NxOH0br+4batRa2zUexWB+4jAAyR9bqwuI5mJ0XR6/BE6d+xEwLkAXIIo2a2sW7WcP//5r3zQbTBxSZnSWpPJriEtMZzOL3fgiUcfY8rU+Wj1Dmlxz+62UFlTxoJF8+n4QkfeeP1NOr/5Nu+/8yFDBg7l0P4jmA1W4mMTGTdmPO+9/T7vdn6PDu3b82//+q8882xHOr/zPu++8zYTJ04jPS2dhPirPPnYn3nk70/T+e0Peavzu3Tu/C5vd36XmdM+o7w4j4MHvuHf//A/ee65l3nr7fd5rfO7PPviqwwe8QlZ+SW4m8Alllv4ZiKU2Yj7mEaqUw8xAqKtE6TPbKmnLD6MyNmfkrtqKVURoVTGR1OZcIOa1ET05cXYDQ3oi3OJ3/4Vl+bNJPfoQXTRkZQG+BO0aD6X1q3CWl4kCaK5uoKC4EAqgy6hjYukIvA0UUs/J2TBXCwpmWBz4agooyEymPyvVpL4ySjqDh/AkBCLLi0JfXEBDoMGfVUeaad3E7h0PmSXy6WOFk0lGQGHOT5+JNqL4WD1YDbUkBl8mMPju3Nm5hgSv91KXXggVVcDSTv6LRWx1yRZrMtK4trmNQQumkXuib3UXgsk9+C3nJg5jdhDh2nSmdpkOBKn1qTvegBBMz+hbO93NNyIoSjgDHHrlnLjqzXoM7NpsjvkjGBhjD/+Mz7Gb9IwsnZso+7yJbTXwyk4fZiMQD/sujq5/LM0MYbU8yepigymOuICGV+vIWTmZHKOHsFeX42mPJPk3es5MaQHIfM+I/3EIequXSb18DZOTB9K+MYVOEQHqSSf6H1bOTR1FOFrFlMZcgFdfBQ114IoDb5AVeJ16ouSSTuwhYAB3YmaN5O0A7uojQgk98gOrsway41tm2isqqPJ4z2CQtn3/EsUBYXsKdeHnfSJVSUCb5cwCCSNJ4ll/t61JmLpiViNIvdXiXV29/PPt0dU+Cn9Ffct5Bdl/vcznr8Xt0T2kHKL9I0c3Ys//vlPPNepM53f78o773/Iu++/z6oVayguLCElI5Gp06bIAetvtu0kNDSMwEuBzJk9l549erN/3yH0erH/zkVNRQWZSfEkxUYSHhLAgvkL+OC9XmzfugetVi+X+VtM9Zw8uot+vbux9es91BnsOHz9FbvHht5SJ0nf6CHj5Eyf2+OW++lCwy8zasAIVi5ZR2FZGQZ7A5FxwXKGr3+fAfif85Nn0AlrpBVVpZSWFWE2G7keEcGwwUMYMXQYRw4e5mrYVU6cOMXI0WMYMWo0YVcjsMu9g60yga8o3Ub6rgXycc+ePP1Ee9567Q1ee+11nu/Yic/nLCI7qwiPGIB0mcnNjWfimJG89+YHHNh7hOqqWmx2OxXl5ZQUFmLS6+VMn05TT35OFskJN4mLieLM6dMMHjaBMZ/MJP5mPAaDIKzzee/1V1i36ivy84qxWE2UFGfx+eyZ9Bs0iitXI8grzmXu7Jl8+P777N61i/LycuwOB57GJowWCxqjGb2pgQP7NtPlH51ZsmwNyel5WCxWKsoKWLlyBUOHT+HipWisNrFc12d0TC3grTKFevsgEHgwpK+p0WuhzqkjPTGabm++Tv8Pu7Jq2QpqqyrR1FfSv38vevUWM2fjSEjOwe1xojdWcmjvJp5+5E+MGDSIt9/pRmJSthwZsrhMZOVm0KlTJz7u3YeoyGjycwtIS0nn2tVIQoPCsFuduB0e6msbKC8upTivgG93bOWZp9uzZ+9RCkorKSkuorq6Hq22gZsxQbz0whPMmb2UvPxSCotKKS4up7i4DE1NA2ZDvVyX/cJzT3D82DlKyipISk9l8NChtG/fgaDgazgbvYRPbFFuruMfREqpbj6UCIg8I/aTGcxVFMVeJPjTYVwZ1gv/icM4PXUMZ6aP4+yCmSScPYqpupjKuGsEThxJ4tI5VPqdoDr8MpUXz5K4Yh6nZ05An53stWBpNGIrKkSfkkRNUgxlEZdIWL+IkLkzMCWmIkYrXE4rhtoi8o/uJm76p5iuXaPRapVGUkRmFsZiDDWFpJzaif/SOZArSJ8Hi7aKjAuHOTp+BA0+0ieWnWYFH+XE1P5EbV+LtShf7p8Tlkideg0umwmrtpqiMH+C5kwgYdUcivwOUBp6jqJj+7mxaD5x3+zwzm61MXIicJK7QXyGEcTyzrxrfpwc2Y0LIwdxefIYTo4ZQNDsSVT7naapXttM+gqi/Tg/qx8hyz/HkpKMW6fDbTZi19TKpZ1uhw23zYytqhxjVgb1KUmU3wgj5/AOohfOIOfgfrl3sqEsjeQ9X3Jx2lhqL5/Hoa3DaqqnOj2KiPWzCf5iPo68fKqSYvFf9jmBaxZjSkvCbTLKfYMCA4dRg8VUR0NVFhmHt3F18ghqz5/GVlGKw6hFkxVP7JaFRG78AkdBsXd5pzAII/bC/EKzQC2Jh/j9MJM+SfgaPWg0dcTHxxIfn0BDvVZuHRBGL8TzlORkEhISqW/Qertpvg7r9yoo33N58S1ZFr+/py4fCkNIHiwWE4UFBXKJnzDe0Waj0mL5s+Jey+v3wtHCT5F+v+QAQlthe6if+fb0eZd3RjN2zMf85S9/ptMr7/FB14/5sEtX/tGlC2tXr6ekuISbCdEMHtSXv/3nf/FU+w60f+opnnrqKf72t/+iU8eX2L1rDzqtAbPRws2YGDasWcn4T4YydGhv3nvvXd549X22b/lOzoKJ/GS1aDlzdA/9enVj29d7qPeRPtFfkSurbFoOHtzP8EGjuXDuMoL02V0mwsOCGDlgJCsXr6eorByjXcP12BBGjRrNZ1M+JzsrV27I8TSf8yoMobi4EHCed95+Wy6tfPKJJ+nQ4RmeaP8Uf/2vv9O1e0/OB1zEZLZ8vwz4MkFL0hd89QK9e/Tg2ac78G7nd3jrrc68+NIrjBg1jsuB4Rj0JuxOM7l5SUwaN45B/UZwIype2O7ylhtPo7QfIdoxh91CYUEOhw/tY/bnn/HJJyMZNHgAL7/yNqNGfUpifKJc3rn5y4X069WTC/6hOOze/Y2VFbksWjiXvgNHcjk8gvSsVMaMHs6QgQOJjYmVAzTSzoSvfhbYWswNHNy7mf79enPszBX09ibsbmFYJ4etm9cyZMQk/C5cw2rznpEryqSoe9Q/FYEHjUC7bN85ffczu4nM62x0YrQ3kJx0gzEDh7B45nw5VZ90M4aI8EC69fiAL9asp2+/cSQl50nSV1dbxKzpE+jfpxdfb/qKV19+lV0792KyOiTxE3vqPvxHF7p37cHVsAhqqmowm0zYrXYcNifSkr0o8EI8Hlw2G+eO7qJjh0c5dz4Esy+S7sYmbDYjcVEX6fTcIyxe+AX1dQb0eiM6vRGT0SLXlJotWg7u38yLLzxJQEAIGr2e/IICpk6cwKudXubq9Ztyhk9ZfvVDDe+DTkzV/d8mAuJMIoOlmsKbgQRNG07k5BFErl5IxIZVRG5aR+SubWSEBqCtzKY4wo+gAe8T2vstIod3JXxEd8JH9CJoaA8Cpo1Gl3RDEhhTaSEl50+TuWMLcV+vJ3rTMi5/NpyQOZ9ijk+WpM/ptqKtLyTr+G4ip3lJX5PDe2anyMvCKIyY6ROkz2/pbBrzSrwzfdoq0i8c4siEEdQFXgWbd49dVsgx/D8fSfaJw2Cwe8tho3dmROx1s+pqyLq4nxP93+LCx68TMvR9QkZ1JXRET66MHkDSxvU4i0uk0ZS22j9ZfEUnSnRmjPXkXw/g/IR+RM2ZRsK6FYQtnsXFGeNJ3LKBurhY3HqdNC5TdOMCFxeMIGH3FkkGBXH1uJ3SuILDZZWWU+26eurjY8g6uJfY7ZuI3LySa0unEjR1JFn790iDM/Vl6WQe3Mm1FYuxZKZLUux0WGjIjid282LCVi2SGJXHXcdv4XQid2zCVlGCx2n3dj5cTumXxaGjoTqb7OO7uDl/JsbYaGk0x+N2yGWfsTuXEb5hGZZcsRzeO9MnOkMq6Xuw5VvO5QnDOR4XMZFhDPi4Kz179uLSpSAcwpqiUYe/32l6du9Gj159CQyLxCH2Ybnc0oqfsBRoMBoR+62EvpgIVGzwiP3mTqdLvtPp9dI4hjirzeF0SOMZHrcbo1FPSkq8NMohVpqIDqVBb8Co91pRbBRHqoj+bLOfNgwGkxSzxYbL7TOUJi3penA6hAVCq7QmaHU4MJlM0sKjTi/2wLseLJiq6960UixSOk1kZ9xgyrgB9Oj5Meev3KC6wUR1bT3VNTUyDZ0uBzfjIxk8qA9PP/UUXbt1Z/CQIQweNpThI0Ywe/YcgoND5X6969ei+GzqVBbMm0XglTPEJYazcdMGencfyO5tBzBrLZL4iIGmc8f2069HNzZv2UmtziK3o4ic5G50Y7QZOHDoAIMGDOPUcT9sNht6Uz0X/M8yuNcQVixeT2FpGXpbA9djw+T+tBlTF5Kdle8lfU3CKrGwXOyRhPF8wHlef+N1nmz/JL0+7s3Q4cMZPnIUw0aMYsnylcTExWO12++YO0Q9J6x3aqwVXLkawLChQ5g7ew7JScnSNsOhI8cYMHAY4z6ZQkzsTaxOEzl5yUyeMInhg8ZzMzbZ2w+UDZjoC3oHU6qqy9myaQNjx4xgz56dpKTeJCo6nCmTpjNh7DQSbiZgNtWy+ctFDOjXH/9LkdicTXL5aHVZJksWzKbPgBEEhkeQnZfJpAljGdC3DyEhwbKMydl/j1ti4PI0Yhakb98WBg7oz3G/UHQOMDtN1FSksfWrlQwc+gmnz4dhsTqb84ls3+6IjPpCReD+IHAb6btfmU40nuIsKq2tlsSUWKaMnciBHfvp2bUr+/fsYNbMiYybNJJ9hw4zoP84kpPzMZn1xMWE07dXN/bv209s5FWGDuzLJ2PGUVBUJpd46gxGtmzdzmuvvkGvHr1ZvWo1x44cJSU5RVpfEg2rbGg9SGuCTquZc4e30fHpv3EuIBy9t82U0/BWm57YqPM82/7/0qfXELZs2snX23ax/evdnDh+Dn2DEYvdwP7vNvD4Y3/isxnz5QbdBQsW8uqLnZgxbSZVtfo2B2LvT9KorvwuEBCdeo9Dkr7iuMuEzZ5A3pa1cpmmy6DDYzbJM+jsNr2cDSyOvkDw0I+I/qQ3Gas+I33jYlI3LSdl8xekHNyJuTgXu76BwiA/gr9YRKXfKUxZqWgz48n4dj1hc6biTEj17s1zmdHWFZBxfDdXp07BeDWcJpsdhGnwxiZpwlpfnU/aqd34LZqJLTmNJqsNc3UJ6Ud3cOqToWh8pM9u1JAdfIxzs0aRd+oUWMSUnLfTK49J8Lik5dGs4GOcGNmF0Il9SV71GQmbFhK/eTlJ2zdQev4szspKr6XfNlifQvqEtVMxw1YQfYnghVPQXDiPq6oKc04GRacPc3nuZ4Rt24ylpAgRruIbl7i0aCyJe3eCwSrDJQwGiCXjTo9D7pWszownescG4rZtxBB/A31uCqUXjpKwbCZZe3djqy5HU5ZB9uHviFq9CltujrS65nTaaMhOIG7zEiJWL4O8Mipjr3Nh6WzCN63BmJOG02KgSRwP4fEgZhVtNh3a6lzyT35H4sK5mBNuytlVQTa0RWnc2LGY0PWLMefkSNInzvZTSd+Drw0ExkIE+Y4IDqDHP97klVdeZd2GTdQ1aKTRr/VrV/L8sx3o/G4X/K5EYHK6KSwqxs/fj53f7mLHrl0cOXqChPgULBa7dw+72ALgdlNaWib3/Wzbvp3tO3dw5Pgx4uJi0TQ0UFlexrkzx1kwfxbvv/s2b7z8KvPmzGPHNzvYs3sPocGh0nS/QEEYM6uqrOZyYBC7d+1l5869+J8PpKy8WhI/MWtgt5lIT07g4oUAom/GE3E9mgP7D7Dt622cPXuG8oryBw/o79wHZRBBrOSwC3KSEcP0CUPoP3AoYTGpcpmlqBsFYRJ7ulweB6mpsXw6eSw9enRn9549pGakU1hSLCU3L4+a2lqMRhNfb/uaD95/j6++WkdGVhLRceHMXzCX9976iI2rvqa6uAaPyy3PeT1//DAfd+nCwoXLScnMo7JWHC+gRW8yYrAaOXDkEN269eLL9VvIzs4hJiaK1ctW8o+3urJq6ZcUl1dgtGmIig1nzJgpzJi+lCxh6VMQR9+xMvIM0kYPV69fY8CQQQwaPoST586QnZdHcVkZeQVFZOWI8NfLw9VbZw2JlVxWLc4xtaKxVRIccZHhI4Yxd+5cklOSJTlOSk1l1ufz6NdvCH4BAehMGrJyk5kwfjLDBk/kZmzKLdInGgw56OgmLTWJsaOHM3LYEIKDAikszMbf/xSD+g1iYJ8hhF4JQtdQztavljCg/yD8AqOwuoQtLTOVJaksmTdLkr7LYdcoKy9h1fIlvNv5TebNm0tUVBTFJcVUlJdRWFhAQUkJdfUVHD6wncGDBkrSJw5nNzuNVAvSt3EV/YeM5aRfMGZh/Vr9UxH4GRG476RPlDNRgdk9djS2GhJTY5k24VOuX7nG0AF9GTa4P6+99jzbd2/itL8fgwdOIC21kOqaChYtmMEH77/NxYCLJMZeZ9nCOXK27/KVUMToiagga2oaOHz4OBMmTOLtzm/z6iuvMP6TcZw6cdq3pMFb0KVJeouBc4e3SNLndyECnUL6mpqw2nTERPnx5N//N3/502O0f+xZHn/saZ58vAPduvclJSkDq93I3t1r+I//89/5r78+yR///Gf++//4V7p060FkVIKYMFD/VAR+EgKikymX2ZhrKL0ZQuj86WTv3IqjodZ79ILY0yNGEMUxBzYDtelxXJ07hYjF0ygKOUddZjy63DQa0lOozUjBWl+DuaaM+L1bODFzIrVBgZiy0qm4epG49QsImjYOzZVgPOIoAYcRfX0JGSf3Ejh5HGUnjmDKz5Hn3FlraxBGZEx1pWSdPcjpWVMoO3cGU242tdHh3Fw1G79Rg9CJ5Z02jyRXWUFHOfP5aPJOnwGrd8ZdDMIopE8YVSmOC+XcvElcWzOf0vAA6nOS0Oamo8vOxJybh7u+wXtQ+Z2Wu4hOUqNLkr7cqIucnzueqtMnseXnoc9Np+SKH2ELP+fS2i8w5OfIIxhK44IIXDyehH27wWiTI+CKdWFhIEouTb16jhOzx3Hz643okxOoS4gmY+9WIj6fRMrWLzFkp6EtTiPvyF5urP4CW16e7PSIg+0F6Yvfspxr61fRlF9OXUoCYRtXcXbep2Qd/47axGgMxfmYykvR5eWgK8lFV55N4an9pCyajyUxUZI+MfuoKUghevsCQtctxJydLcm3sBCskr6fVMx+8GOlgy6WxImyFh7sz5hhH9Ord28mTp5GUkoa8fE3mTdnBu++8ybde/XHPyiS0tp6dn+7h3fff5fH2z/B3x55hMefeIqJEz4lMTFFLgt1eTyUlpWxdds23njzTf7697/xyOOP8srrr7Jo8UJSkpOIibrOqBGD+Nvf/sT//B//xv/813/jP//8Fx599DGee+55Zs36XM50iNm+ivJKvt21h+7detK+/TM88siTdH7nQ3bt2ie3LgidupoKvlq/irffeYtR4yYyYsw4nn/+ef7wH3/gww8/IPxq+A9ioir8dAREuRUDTE6XlZyseKZPHsHAwSOIiE2VtgC8+7m8M2WuRhd1dRUc2Leb7j2707VHdyZ9Opk58+cye+4cFi1ZTHBIsDz37tChQ7z9zttySeeUKZOZMHk8773/Hk899gwDewwl4GQA2noNbpuVq4EXGdi7Fx9+8A8+mzGXpctW89XGbQSHXaW6oY7Tfufo1r0XvXv1k/lsyuQp9O7Smzee68ya5Rspq6jC4jAQEx/JJ2On8tmMZZL0KcbrRDfI7VuRUFJRxtqv1vPme53p/nEvPps1k7kLFzJn3gK+3LiZ+IQk7PbvE52WpE8acrHXEHr9Mn379eHDDz9kzpw58liEqdM/4/0PPmLM2IlERkXLmcqc/DTGjZ/MwEFjiYtL8i6IEB1RhfS5XWRlpDF5/Ce89lInRg4bypxZMxk6cCCdnnmeTs92ZPmixaTERrJl/RIGDRyK3+Uose1dDgxWlqazdP4s+gwcweXwSEwmAxFhwQwfMojXXnuVoUOHMnPmDObOnc2cObPZ9s03ZGYlc+zwTrkH8pR/KAYHWFxmaquz5fLOfkPGcuJcECbfWYM/PaepLqgI3BsCD5T0iZm+pNQ4pk2YSn5qLpvXr+bZZzrw/oedCb8eyFmxhKD/eNJSC8jOTue9d1/lv/72ZwYPHsLIoQN4r/Nr/OHf/8AXX6xDbzB7rXh6GnE43FRX1xAaEsqqlSt54/XX6fDUM0Rdv0Gjj4hJ0mc1cu7w1ttIn5eUeklfbLQ/HTv8J4MGjOLgwVMcPXaGY8fPcvFSCPV1OsxWnSR9j/79DyxZvp5lq1fzSPtH6DN4BKk55TjFchofzsr13mBXtVQEvAiIRt/V6JTWOyuSrhOyZB7p3+5CzvKJGR4FKEGexCZ7TQ2FF05yZs5kAhd/xs31S8jcuIao9V9wbc9OtLnZWGsqSTn2HUfGD5NGQjLWriB26WwuTBrC2TH9iVqxkLqYSO/+Ml0NuYFnOD9lDJenjCLxi/kkfLWCzMN7MRfkyvPjSq5c4NSn4wn5fApJa5eTsGYxEXMn4jd2GPUXxNEIYhZPQ1bIcfwWTCDfzx9st5M+sVRUnC+oKc0l5uBOTs+eQsTSuaRsXEPixnXEb9lEkd95abxEsqk77V9rQfqE9c7Tk/sTPXsymesWk7R2AeHzp3F++iRi9+zCXl4qj5IouxnC5SUTSNj/LZjEstMmaThKWH4TpE9YRS2OC+HC4k+5+OloklctJm71IoI+n0jAhOGETJ8kyZ4+M5GCQ3uJXbvmFulz2dHkJJH49Rqub9xAY0ktbo2G4vBL+C34lNOThxK56DNi1i7hxperid2+jcKQy+iLMyk8fYjExYuwJCV5Z/rcTrm8U8z0Xf1yCZacXO9SPnWmTykFD+yqkD7RSRekLyLkPLOmjmX6jBmMGPsJhw4fJ8D/AjOmT2Ho0H4MGDxczvQVVFazb/8BFi9dzI7dO9iw8St69e7DG2+8zeEjx+SZXsLEe2BwIF26d6Fr94/Y8NUGvt27h93f7ubsmTOUlZRQXVFOSFAAG9Ytp8dHH/LOG2+xctkKDh06zNGjx7h+PUrO8IhZHjHAOXDAYD6dMo1vd+9j69YdjBw5joEDhxN0ORSPU+xrr2Td2sU83eFJ3uvSgxmzF7Bl62bmz58nO6iCwIo4q38PHgGBszj4u6gwg9WrFvD53IUkpHkHjUR+E4NYoh3w7upqoqa2Rs4CDx81khdeepHHnnycl155mQmTJhISGiIPbc/Ly2PdunW8/c47PP98Rz7u04eFCxcwafxEev6jB99s3k5DVa08p7S+qoL93+6SK62e6/A8HZ5+gS4f9WLXdwcor6klJy+fdeu+4r33P6TTqy8z+pMxrPtiPXOmzGPfzsPU12qwOcykZSSzZMka1qz5moLiUrn6SnS3FNInBqfsbid5RQVs2/E1Pfv05rkXXqB9hw689sZbLF66nLT0TJxtLC1WSJ/AQw6COhqIuhnB+PHewYqnO3j3N3Z86SWGDhvFqTP+1Gu08kzBktI8lixbwWezFpCalinztdyHLM5ZbhTLtT3otVou+vszbMggnu3wFO91fpvZ02exfP4CPu7WlWGDBhFw9hS7t29kxmezCItKEPbJ5Iq1+qoCtm/5kqkz5hEZE49THOJu0hMadJlZs2bSuXNn2j/Vnqefforu3bux+7vvKC7N42LAcWZ/PovgqzFY3GJs1IZGU8KRw/uYPnspl0JvYLV7l3c++Fyo+qAi4EXggZE+h8eO1lZDQkosUydMpTS7mBvXw5g0aSIbt6wltyCBs36n6NfvE1ITMzh98iDtn/o7nTp15NVXXuWt11+m8xuv8ugjj9Llo27yTBaz1UZGeha11XXyPBthQU1YTlq6ZAn/6//73xw5fMxL+kRbJg6Qtlk4K5d3/lUu7xQzfd4lCU3Y7AYSogN4vdPjrF29EYtNVDZy1Zs8g1pYYjJZNOzfs4Hnn3mUa5EJ1NZr2L5zO2+935Vpc5aTV1Ip9/SpTadanH4sAqKxl8eR2I1octNJ3LOb4gsB0tCImI1q7pjJvWyN0viKvq6EzEsniPxqKdcXTid63jSiVy8h5cQBbOUluI1GGjJSSNr7DdeWzyN22UIKdmyj9Pg+4rdvIGrTGkojQuXxDk6THn1BJrlH9xAxfyqRcyYSNmcyNzevw5CWLI8gEMsMM/bv4eqSz4latoDMvTsoOHeYyI1r0MYkIdbBiHP6WMAosgAAIABJREFUiuODidq5jqrI62D3Lu+8NdPnxumyYTI30FCYTtqpg0SuWCRJ6bXFn5P49UaqQ0JBa/SO0N6pUAlDFI1ubBYt5SnXCVsxk2szx3N95jhuLPiMhHUr5R48TcJNee6f226hJjOWuG/XkXcpQJ7dJyoB4YboXIgOlzjUXhzWXnblHLHrFxOzYBYJ61eQe3gn2ft3ErtmFdmH92HKTqP68kWyDx/CUVYmO2kulwNDSS45Jw+QeuQwjTU6aezGVlNBeYgfyd+sI3LBdELmTiNk8TySdomzEmMxVxdTGnqRjF07sefkyPpKLO80VhaQdmYHyUd24ygp9S6z9ZG+5rzwYzPbj/zu92TIRUwTuFw2IkLPs3jOp2zdvp0pn81i6rSZbPlqK0sWzmf+3OkMHjKUs4Fh6OxOSsrKiI2L4XrUNfzOn2PS5Em88cZb7N17QA5UOtwurl67St9+H/OPf7zP5i0bibweKc+EleeWecDtdMh9QFlZCSyaO5uxQ0cSFx0jy4KYuRNtnbgWFRexdOlSPurSlS83bCTy2g0iwqJYsWwNPbv1Yd+3B7EYrGhqK1i/ZiEvv/oiS7/YQE5BKWaLSR5UnZ6ehlan/ZG5Qf3sxyAg6huzSUNa2k3ik1PQGKyScguSI2YCvaTHV/U1gcFkIj0zg+CwEAIuXSA0PIyMzAzEfkyxvFeUSbEXMPL6da4EBxOflEBZZSlZ2enEREfLc+1ER0aQHrFSpKGuhsS4OEKCQ7kSHM716JuUlFZidThxON2UV1QRHRNDUFgQSZmJlJaVkJOeS2WJWCYqLNk6aNDUkZGeT05uKSaLTfalRH9KEY8oO2JVijCEpNWQmJxE2NVwGb7rUdEUF5dgNlvlsRCtq/dm0if2QDa6sLj01Ggq5ez6pcBL8hD0S4GBhF29SlZ2LkaTVZYtoWsy60jPzCI5NUvaZWh2S7F8K8if3GdnIiUtkcDLAdyIiqSmsgpNdTU3Y6KJi4mhpqqKwsI8kpJTqGrQYfeA0+PCrK8jJzONhOR0ahq0uN1O3C4HdptFHlMhlndevhzIlSuXiU+Ip6qmBrPVQHl5vpzFr6zR4PARSKtVQ1FxAanZxdRqLHKr0Y/JT+o3KgI/FoH7TvpEQERHVpA+na2W+JQYpk+aTmVhJTaLnvr6OjSGGuoa8jl7/hR9+o4l+mo0M2aMo0ePLly9eo3cvFzyc7NJTUlk6bKlvPhiJ4IuB5GensGwocPlwaXClHF8fDwhISFMmDBBHmIaFBzi3dOndJAdds4c2U7HDn/jnH+o3NOnkD673UhC9EU50zdu3GRuxCYRl5BMXEIS8YlJpKanU1Gez8HvNvFqxw5cj0pEGIBpaNAwZ/Eynur4Gl+K0TS9QVZ6rSuxH5sg6ne/LwREAyX3dAjy4bDh0mu91h7dTm9noMUyR2VU2OW2SWuY4rw8R201ztpqXJp63CaDHNkVhaDJ5ZLuOBvqcNbX4tJpcZkM0n2pa/ZalBSEx+WwSAub9opSrGVF2MqKcdRUye+bnE6wO2k0mhBuuRrqpRtOow6XViMPZhetr5hZtxnqsdaU4zGZvMO/LQxZyM6Nx41ThF34Z9LLJawi7DL8Wg2NZoskTHecgBCFTLrpNbbhshix11VhryrHXl0hw+ys88a1URjIcLvk7KjLbpYzpC6jXhpokm74cBdGCESHTOJl8cWxpsYbT6Nezri66utlXN0WE26DHpdOI9PKuw/HJQ3nCAuljQaj7+yWJmm8RcTR3lCDvbIMga0Ip0vTgMtqwmk3IzAUmAoLpyIMYiZXzIZaNVXyO2FUR3TuxL4ZUaeKvPJL/P2eSJ/AWMz0XQvxZ9n86Zw+58/qDZvkcT2jho3h6y1b2LLxC4YMGcS5wBBqDSZJ4L74YiUjRg7j47496djpBV54viP79x2U7ZHoDFfVVPHdd7vp3asbr736El0+6sLyFauIi0uUVghdLicWm5bsrAQWz/OSvps3Yn35XQx0iBkhN6npyYweO5I//OHfefzxJ3ip4yu81PE1nuvwIm+9/i67tu/BoDXSUFPGV+sX0aXrhxw65YfV4+sKKyRDGAZS/34WBCTy0iy/qGs8crCoGX2lTlNWI/pmzlqW9JblXimLIuBCR+4JbBQDhx45eCjqEJnphAeeJjmYJAxf3RLR3vheiaMbpB0Erw/if1EfOsXMozCBKdxQwtcojF+5pD/ie9/j7+En3FDOnBO/lVpL0VcGAcX9nf5kOycNxHhnQFu7Kd1qDoOw4+DdEymCK/Dw/vOGsdkPXwDkuxZ1qfCrpYEs8V64IZeuCpwEri5hiMstZzRdAmuPaFe8bYtIT+FGs8g4e7c4iUFbUW/LmVCf4RyXxy7LsTJDejccmsOu/lARuI8IPBDSJwqA02OX1jsTkmOZNmU6FcWVcgRVjMzY3CY0umICAv0YNHgCZ4+cYsjgnny3d7e0YiU7OMINh53o6Ci6du3K4gULiYuNY/TIUbz9Vmc6vdgJMeX/QseO0uTxkqXLqK6p9dZ3YpJBWDhzuvA7vZfXXnqKC5fCMYlKTla+TTgcJhJjgnjmif/LH/7wRzo811HK08915Olnn+cfH3Ul8OI5Du7ZygedXyMqKsG7nMHjISY+nlHjxBr6Lvifv4TT1WIZ3n1MHNWphx8BpYlqbjRaNSDN70VTprwTTa7PLKAoKy3F+/xWY+1VbZSdDTnqK0Z+xTei8+EjGqKjIBoxaWxEnEsmRDRywviIPCqgRSMvG1slVF5/REfE655w0yMbNWEIptlyoS+4onAKv251QHydETFy3UJkIW4r6X0Nd/Mr4W9b8fcpiHApf0JPNODfb+Bv4SfDLMMoZlVEmOSU4K2w+TpPIg6i4Rf4CBPnXvyE9Sjv7Ka4erH24tESG9FBkbgLoqn883XEve98nQjZrVJwb9ZUovOzXpWOpnJ92I9skMs7g8+xbN50AgKDOXDsNN269Wb44FFc8D/Pd7s2MXRIP05fDCIsNp7p06ezfPlSIiPDiIuPYtnyRbz79rscOXisOUs4nU7qa2tIiI1m/3ffMmvmLHr0+JhRoycQGnwNm9UmSV9OdiLL589lzODh3PTN9P3/7L0HfBZF/j+unp6Kev/73p2eenp6p6f+7Gel9xp67x1poiJWUI+O9KKiSO+dhISETuiBFAikQkhIIb3n6TXv/+vz2Z2HzZMnECCEJMzmtZnd2Wn7eWZn5j2fRj820Z4kAs6cC8GAwX3xn5dfhJdXWwwZOAzDh47GR0NG4esvv0OA/34UFeqRnZ6I+TMnsDjpmm07YeTvUbM41Sx8K7Uz3aWViS+41OtrxjRxKcJSaT1EcFrNOKh0OBqHeBFECyF1LFJD5n6pjzmZAnJY71ozlvLYKRrC6dQ5g+cgN0DloV0Upcle4lod2srIdTWaaEYAUntSnPshaCvqo+fiWoTuedzvRToRCrzL84uqU03PCMTSeE5zGIdiTla/J5FfG1Ie2vhR5io3rq57Q+S9pMBtpsBtA30E7sg5+4X4GCxcsBAZ6Rm8y08LHlJq1ukz2Q/S7Jk/w3+HP6ZMnICLF2PEMohfmwaerOwsLFq0EDOmTUNCfDzOnjmDeXPn4qNhw9Cte3d8NHw4Nm7e7PL9wh+mOubZ7Q4cO7YPn302AsEh51nijJSlWZzOoseFqGCMHNYHXbp0RucuXdG5a3d07NodXXv0woiRo3H86CEc3ueH8V98hohIRQafGkb+VsIjzuHjjz/DmjUbYDSUbYL4Nv9+sviaQAHtDHED1+WdFIlEpYvVgEjNxKUFUTzZ0g6l5hQ7lGJSFOVeteLmdFl0ox1hZWdXCakRvJjQRhLIUidQV1gWF0JUpoY39P7qpMv1e+gzFM+75mxNT0zSVxdEnE8FkVdB81VQx+C4xHs5GRTaHDTekCipssvvAu6C5lowr4nz0MQ7FkXvrj1rMugjIhPoC9y7nUHfgcDjOBt5AYt/+R0rl65GYnwC1q9ejD49O2OTTwDWbNkJL7K0+NtiJCbGIST0OL75dhwa1K2P335Zyu5/zFY7MjOzEBkejrjoSKSnJCMqIgrTps1C23ZdsGzpauTk5oIsSsfFnsPEb79Gt7Yd4LfDB5kZmcjKzGJxTJPZgKjY8/jsizFo294L69atZ7+y6Rk5SE3PRkpqFnLzdTBbbMhKT8D8mePR2qs11mzzhUGCvjv2/ZSq2G0cc8cxPNaUylR2hPbbLDHglhiPlMFYm/Zmr93bW3bLbu3JjYzv7jW5k7is5xTvnrbkvTpPqi99FWC6zZ+8cvVclgL6FPAqOJ/u7ZH3kgKVRYEKB338Uag716QzY3NYoTMUsTliMk3PO+AOEhUg8SsHHGbAYQHMJpL1Jna+shNCBBAfmF6vg9Vigd1mA/kz0hUVoaiwUPGJZDDAZCaWOS3QSi4y6QMzWgwwmPSw24pV9ryFdXlIb4PM4OsKsqAryoeuiMrToaBIj0KdgYGc1WyE1VgIq1HH+n5UHh1knthsscBkssJqIct6lfVzyXpqJAVKzjKeZw4Paej70II0AhSeOH2eZzW3SUsADk1IZVO1BPAE2HN1dbf2EOizEXdePelaiMiI75K+E2VH+SqYYqDF3EHiECon1evxcKvT0/tTnKfD0wLHYzoad1SQQ7Ska2WXVrlWmlASqDLdxUtqQmU32M6cTxeg1QDcUgBQQ/uy3sNTm293nKCHCO8G0HeYOH1fjcHhY0EwWknPz8m6TYWFeVi1bBH6EKfPby+27drHFhRbt2qBsWPHYNhHA9CwYW289MJ/0LNLX+zedRCpKVnw3bkLo4cPx9iPR2HidxMw4dvx6N27P7p1643tO3xQZNDBYjUiLeUy5s2Yhtr/fQc9OnfFhG8nYNLESVizdg0uJyUgJy8TG7euQ/uO7dCmbTt88dV4/G/Sj/h+0o+YOnMBAvYeRn6h3gX62kjQd7s/jxsv320ccx+y6Du7kUN8l5xPM/6UXhCpY5jbJo42f3mu3dt7I229kbQ0Bmq5fHRd3nHRncTu9YrnIl7clw7VeVJ9aarf9ec2XpfOq0zl1GrxHuV/A9EyGUoKVCwFXKDPfef+ZqvhD0L9ONkQhfphsNy101bmgpbylQs90YDIX5e6cGQZavowPRdNHxsf6hdpd1hZUZg4kQRC6b4k0Cz55pSORdII7DltXLWgFS2EtR96yZzyTlKgnBTQdqIbuKZvRkwmIuTvqDzV8sTvJu6lncTUb5iaQ/1dgD71ayrZ8fnTvSqGo3D9Sm7C8PfJuiQlAR+DQA0QEiIzHl/BjTbu76+AVEpU+vC0mHFP5VY8f9ucptQDdSEg6KUuA0oMBjweuaUT6csTXq3dvZmVfu9Ou5oO+mjzMeTkQfw0ZyqCQ87AbKPvRBnsdboCbN+6Fl98/in2Bp5AeGwcvv/he9Sp/SHeeftNdO7UDqNHD0efnr3QurkX5s1aiMTLKQg6HoQvxo5Fw/p18dr/ewVvvv4GWjRvhVmz5uJi3CVFTLjYAYvJhCMH92NQv35458238dqrr+G9d9/DZ599hrCzobDazEhOTcTa9WvQr39/fFi7Ht588z3Uq98UHw0fA1/fPSjSGZCfk4rVS+ez9UOfPQeleGelfzXXqdB9TLlO8us9Ft8od9RrAb9bBHxUT2UNTe7jO81x5Z3fykNeSuPp0Oal51Sntl5xz6EYy1WiaPNqrwXwK/8beGqZjJMUuHUK3BMVlYiiIivvygswI8KbLV58ILyTLT4ZlfunoDNeJZZYOPJuubZC7Rfj6VpNy49oIHMDYNr7EsWqA4f7B+tqszYxKwYLHRvCpGRWWWm2e+iWTd5KClQKBbgfi2/sRmZjgcLcQk/lab8luvZ0uOcTk5t7Xk/53fPSvcfDvTDNhKwtw2PeckZqq3Bl0Uaq19r6ymyvpn1ED4UmYuwrWYIYF13cv7Jo4GpU5V2IBaUIazroo98gPycLCZcuoqBQx9ac6WengyRN0lNTEHHuLDKzcmCy2NjReeDhQAT470JoaDAS4i8hKiISQSdOISE+EVaLDWaTCZfj43HsyGHsDvDHnt17EHTyFFJT02G3ldTv1BUW4NyZM9jtH4AA/wDs27cfYaFhrOpAkjNkMl6n17Ej7f0HDiFg914cCjyKqOgL3F7aSLFZLUi8fIn14FOoDmHI5WbGCvXdZVCNKKAds6pRs92bWnKUFF+heyrP94IEnp9eO7a8NYn2aUsT9ZYOrzVTaEuQ15ICt48C90RGJ6JQp4A+2s0nMCPCW6qWe7y6K6ReuxY06u6IstARaE0shtRaS38xJUCip7aVlUWbVvlISxZF+co6tB+1p7wC/JWVX8ZLClRZCrh/MBXYUPeixf0tVSEK0Ya3VGA5M2vrE9duWUV0eULXDpW2DM7oxhmsIsBPgD0R1nTQV/JnURZq9PN4OgRN6JmYK5QcnlIrcfycpjs2+KPOkSK/yokpOTdeFTm+Ks5dDDsZG6Iy1ClU1Oi6d10o+cVzGUoKSApICkgK3J0UuM2gTwA6Ct0WNIJVLyamGw09/F5lFeGetLzp3PPRvae8ntLJOEmBKk8B985cwQ12L57ub+mo8ALL2Zpy1OspSVlxrkFEWz0ndhsjJejTUqjSrwnQlalf6tYaLfhze1TqlmAaiyILgKdJwa4ZCMyxPKnmgXpJect6Vjq1EsPvwVZ7qZPJQ1JAUkBSQFLgbqVA5YK+EnuhPH15RlFlrZa08R5+Me1j7bV7Uu0z7bV7Ok/32vTi2lM6GScpUOUpIDqwCCu4waJYbXhLVWgLEte3VGA5M4u6tKFbVu2j611L0OdGvGp8e6MAjF5VADfKe6P5Rd5qTDLZdEkBSQFJAUmBO0SBSgR9ZbDJrrdCKuv5LRDsVor0lPcWmiKzSgrcOQq4d+YKbol78XR/S0eFF1jO1pSjXk9JyoqToK+cdK/ByW4G8NVgcshXkxSQFJAUkBSoBArcPtBXCY2/2SrKWozdbPzNtkPmkxS4oxRw7/C3oTEVWoV7YXRfGYd7vR7qdE8i7ikpXZfQ/dU+FGVxnBTvFOSQoaSApICkgKSApICkQMVSQIK+CmBAVuxPIkuTFKgkCgjwIcJKqvamqxHt1IY3XdgNZNTWR9ceDvck4p6S0rUEfR6IJqMkBSQFJAUkBSQFJAUqjQIS9EnQV2mdTVZUxSggkIkIq1jzSjVHtFMblkp0GyK09dG1h8M9ibinpHQtQZ8HoskoSQFJAUkBSQFJAUmBSqOACvps7KdPuGoQYaW1opIrEguyigorufmyOkmBclNAMZdEPd3D4f4BeEhSpaLc21vGa1V4m93r9VCBexJxT0npWoI+D0STUZICkgKSApICkgKSApVGgXuiopOg09kr1Dl7pbX+JisSC7KKCm+yGTKbpMANUUAAOArLc5BfTGexg0/FR6bqC9PhBJzFgJNC5SymULhV0VjZLVGP+GA03PESz2/3jahfG97uOql8bX107eFwTyLuKam4dmUVEdpyOM6zTp8rnzZ9JV4LoyMivJv89FUimWVVkgLlosDVeUAZW8rKxOOGGGvIBYinU83sSsbj1dUayjvXlNUGGS8pIClQtShwT3RUIow6R4mdaDEAVK2mVlxrxPu5h+WpwT0P3ctDUuB2U4AmX0ex03Wyny8GZ26oQu2glN7usMLmMMNut8BhU06n0Qh7VjZsWVmwZKbBnJEKc2YarFkZsGZn8mkpyIHNYoDDaYMCFolPdbUeWvxTW+wEEjXxSqLb+P9OfXzu9Xp4Rfck4l4kLXEvbiikQ3MvgLpYbGkeKbRWs1RmIMCeCCXoq0zqy7okBRQKlJwDHDwGO8UcIIhE2E4zpIgb2tQrdjrgdNjhdIrToeRWM1DgUN2I8Leu2fyjZ/KQFJAUqP4UuCc2KolBnxgoqv8rXf8NxLu6h9fPWXJAFfnLk0+mkRS4FQqUnPCJg6eZ7kVHpJAOmridTtjtZliMhTBmpkCfcgm6+BjkHD+M+NXLcGnlb7iw4mfELl+E2BU/4eKKX3Bp5a98Jmxbh4KoMBjSEjkvgUCnzcqLBiqb6hYAlMEJ7yCrdd/OQPue4vp21ifKFnWJUMRrQvHIPdQkuXrpnkhzT6DPUWxnsE0LNs0jvr5aSOVdCbAnQgn6Ko/2sqa7hALl+NBprFXGXgfsTjscLMVxdS7g55SG01FamgeKAZLssDtQbLfDabe6zmKHXZX0IKkP2sgrVtR8BFNQAx6pefKQFJAUqP4UkKBPM7CV5+d0H5vlYFgeqsk0t0qBMkGfpkPypO90wOGwwWE2wpyZirxzIYhb+ysiF0xC5JwfcPLTQdjYqja2tPoAG1u8gw0t/svn5hbvYFvL97Ct1QfY2a0Zzk36FFHzJyHm19lI9t2MggvnYcrPZCBJnEOn08HAhBYhJQDorb7otfJr3tWFhq6VvqKeudfroVz3JOLeQ9LSSE4k5sWWBH0eaVbDIwVnRbymANgU0iHuxXMZ1jAKaMaAsnZ3aHwXm0K0MUSn3Wnj0+a0wuq08rXDboXDaobNqIMxMw36xAQYEi7BkBAHffwF6OJjOTRcvgRD4mVYsjJhN+phsZlhdVB5pBLgVMCji9tXw+gtX0dS4C6lgAR9EvTdpV2/er02AzoVYBGXzQW0WBzHySCMOHvGvEzkXDiPrDMnEb9mCYK/+Rj+7RtiR8PX4d38HWxv/T4CujfFgcEdsH9we9d5YEg7HBjaHvsGtYFfpzrY0eIt7Gj6Fna0eh97+7dH+MzxSNq9FblRYShKugynycTghUQ8FTFPZXFKVOXFifq/QqnsvjC6WmWFVlOqMPd6SyUoG8d5SFp2Ygn6PJKrpkc6nU7k5uYiOjoa4eHhOHPmDMLCwlzn2bNncf78eaSlp9V0Uty971euMUYD+hjsWWFzWmC1m2Cx6WGx6GDISUduXBRyIkKRcXw/opf/hNCp43Fu8jc4N+krnJ30BZ9nJn2BM5O/5mexq39DetAhZEWGIP9SJEy5GSzeb7OZWD2AACXphrOof1mI9O795eSbSwpUKwpI0CdBX7XqsHdrY8Uur6LzpYI+FfA57BZYTTros1IQ77MOgWMH4+jHfbG7W0vs8KqHPZ2b48Sw3jg4ZhB2fzMKMeuXIDs4EDmhR5EbeozDrJBAZIQdQvIxP5xaNAm7PxmAA6P64kD/DtjZrh78OjVG4KDOCPpsCMLmz0T++bOwmwywO2jHWRE7IiDqAqQkfqoVQa2IH859YSRBX0VQ9bplCC6TCKV453VJViIB0Y2AHZ100L3D4YBOp0NcXBxOnDiBX375BW3btkWdunVQp45y1q5dGx9++CEobN68OaZNm4bTp08jMjKSQSKVwb8Jc4AIEFTWB1Hi9eRNRVFAO755KJM3/pz2ErraVrMextw05Fw4h4yQ47i4cSVO/PAFjn42BEdH9MKers3h36oOdrepA982H2J76/eUs8372N7mA+zwqgP/bs0ROKQLjo3ug9DvP0X8jrVIDTuOnEsR0OelwmwqgNVmhN1p5THdQ9NklKSApEA1oYAEfRL0VZOuepc3kxYEbHFTUbhQOH/FIL0MS24WMkOO4OLWZdg7sDU2t3gd3h3r4ciIPjjx/TicWTwX+WEnUXgxAkVX4mAsyITFWABaMNgsRj6tFgPoJAMulrwsmC5fgj4mAlf8d+DkxC9x6osRONinHfzbN4BPl2Y4OfFzpB3bi6LLF1mUlMSMrE4bzE7afVZ00iToK2ef1Sz2iGZSp6+cdKviyQTYEyDP4XTAZrMhPz+fOXerVq1Cr1698PLLL+Pvf/87HnzwQdSqVQuPPPIIHn30UT7pms6HH34Yjz/+OF555RW0bNUSCxYsYE5gYWEhl0mAUoK+Kt4hbqF5ynjvZNF9m90Mk7EAxrwM5EaGIXHbWpz6/jPsG9gZu3u0hnf7RtjmVR/bvOphZ9dmODiqF4LGj8SJCaNwXA1PjB+pXI8fhcCRvbC7c1P4t20A3w6NENC7LfYM64WzP/4Pab7bkB95Bsa8dFjNOq5fsQJ6Cy8js0oKSArcMQpI0CdB3x3rfLLiG6CABhi4TG/b7LDl5iL9wB7mwO3v3gw727yLfYO8cGru98g8fgDm7HSQIRaLSQebzQirnU4TrA4zrHYLbGzh0wqr3arqc9gVfQ6nA3arGVZdAQzpSciPPoP4Tct4cbG3txf29WiJQ0O64fzCGbwoIP0R1iVkq56KPogEfeX8fTW/rQR95aRZNUhGnDir1apw+YqdMJqMLL7522+/oUePHgz0HnvsMfzpT3/CX/7yF7z22mvo1q0b+vTpU+Ls2bMn6tevjyeeeILTUh4CgMQZXLFiBYuDGo1GCfqqQZ+4oSaKcUHNxMDPYYfVVITsqDAk+KxH0HefYk/3ltjdviF82zfA/iFdcHLCGByf8g0OTxmPU7/ORdLJ/ShMioU+NQGm9GSY0lOUM+MKjBnJSA86gvDfFuH0jMk4/f1XODyoGwLaNsSBtk1wvHt7nJs8HokB25ETGw6zLo8tgFb42H5DhJGJJQUkBW6WAhL0SdB3s31H5qtMCqgLAAqY4+dwwJadhYzdfjg55iPs7dgcB3q0xrGxg3HFdwNb3Sw2W7iFJHZpVsVzCOyRmA4p/ZPSPnHlKBSnhUEgKfOTkQCFY0dGW8g4gKUwF3lRZxC5fCGCJ46DX/dW8OnaHGGzJqAgRhH3pPaRjp+VdEAqWq9PLIK0YWX8Btr66NrD4Z5E3HtIWjpKJJY6faVpU41jmNNX7HRx906dOoWhw4YywCPuHYE3AnoE8saNG4eVK1ciOTkZxL3TnhmZGdizZw++//57DB4ymEU+CSQSN/Cpp55iALln7x5kZ2czsCSOojxqAAU04wKp0pHLBZuhiLl7p+ZOgk+v1tjZoQH8OzdF4Ee9cHra17jktwEF8ZG82WfNy+Yx22osAunnkasGMSZzSFIFpBsqWIxOAAAgAElEQVRoNsBWkAdbbjYMCReR7LMJ4VO+xckhvbC/fXP4tW0M3z7tEDxvErIjgmE1FsLhUPX8pI5fDeho8hXuJgpI0CdB393U36vtu4pJmgAcbHbYc/OQfmg3jn3cHwFtGiJ09BAkrFyMjCP7YS3Mg9Nug3C+SXnJZx9N1BQS6CNxTAJ89mIHnw5VV8TuIO6fGSRCZNQbkJeTB5PRzMZHyPy33WKCOS+TDbqEzp2End2bw7tbE0T9NA0FMefgtJhBi06Tw8IcwwoluNsiqNLWG+71engp9yTi3kPS0lEisQR9pWlTjWPouyOxy5SUFKxZs4bBGXHr/vznP+PNN99E7969QSKe9FyIgrq/Ln3vxC0003flcCArOws7vHdg9OjReP/995n7R+U1bdoUc+bMwbFjx1hXUIp6ulOymt3zmKC4UuBx3AmQj9Wcs0EIm/09fLo1h3e7etg3sCNOTx2PFH9v6BMvwmTIY4MupOdNIJE5cmz4S7XIqepds4VO2swj0Gc3w24zwW5VTtIPJ/CXtmsHzkz7AQeH9MCujo3g370Fzs6bgpwzQTDlpMNmNSoGXiptIK5mv6FsrqRAFaTAPbHRWj99vLR07QZVpfba7Xae9Ax6PVs5i4mORkyU5zM2OgZxFy7CoNPDaXfAYbOjmHzVVMChWZ/xUEf38pAUuN0UoMmbHOuSk3VrViay9gbg8OdDsaHN+zg6qh+yd26HPScHxRaLRvePdjQISRB3UJxkRIK+JTusdoXDZ7PbYXM42CiLTl+Ey4lxCA8Pxi6f7Vi6ZAXOn7sAWzHYh5PTWcx+nmwmHfIvnMfZuZPg1701dnZphvOzJ6Iw4gyLH1kcJG6m+BK8OqrcIpXu1MfnXq+H13BPIu5FUrov8xCJJegrk0TV7YHo8yaTCQEBAWjYsCEeeOABFukkPT4CgTExMSVeyx34cRlsrKlk76F0V65cgbe3N8aOHYsXX3yRyybu34gRI3DhwoUS5cqbakABHgN4AFDWXzTeE2eOuLY2O6zZ2cgLPYVzc36Af9cm2NuzDc5P/xZpvhthvHQBMFkUP3zC8bpG0oL6kWJki0DeVfBHcSTFwc7aHUpd7NuPpg3y62cywxQfh8yAHTg35Uvs69EKe3u0Qej4T5G4bQ0K46NZB1wZ55VpphpQWjZRUuCupsA9MdGJMOhJjIvWh2IQUHaI7jRlxG4lKb+T2eojR45g06ZN6NihAzq0a+fx7NS+PTp16IC+vXphy8aNOHH0KM6GhsKqmph3ITXNQutGNqrcs5Wcju80xWT9NZECPGmrgM+Sk4VUP2+c/GQQtrWth73DeyLeewPseXkASXV56qCuuGLY7TbkZmchMjICJ06ewNFjxxB0+jQSkpKQm5+PU6eC8OOPk/HFuOHo3q0VmjVtge07D0BHoI83nhXQSBxDq6EQBVHncX7RAvh2bYFdnRri/I/fIicqjHePeaeZrBaqen52BoG38Au53kPznrdQXLmzutfrIaN7EnFPScW1CEtlFw8k6CtFmuoYIcCb2WxGcHAwPvroIzz19FN4+umnMWrUKNbBI+4dfdfuB+V1P93TaO8TEhJY7PNf//oX7rvvPrz11lvYsGEDSMdPHtWEAqoVZtf6i52uK1w4MtRly89DvO9mHP1iKFvjPNi7HWJ+mY3CqHA4DHoGe3A4VEfrTmWjT/vqPL6oXEPNWMPdz6k4cOc+S1Zm1b1BNgRLft3JUJixCAXnQxA1fxoCe7WBb4t3sK9fW8RvXA5TVirrchNYFNOPtmp5LSkgKVC1KHBPdEwi9HqbAvrYrDTt/Nx50GcwGli/gUxU7923F927d8err74KmtxqPfwwHiErZ2Wcj9aqhYf/+Ee88PzzeOPVV9G5Qwcc2r8fp4OCcCU5BWaDkTmAJVZj5fxd3MfM0tN2OQuSySQFykkBWgywM16rGbnhITgyejD8OjbBgWE9kLB9DQzZV2C30SJSYfKJCZuL5w5LE7sTJqMBF2JjsWzp7+jXvx8aNm6E9z/8EE2bN8ePc+YiOPQMi479OGMSViybiyn/G4sWLVtjq+9BF+jjzSGH6gDeZoHTYIA+NhZhs/8Hvw6NsLtLc5xdNAPm/CzXOMI7wbShdKsuHO7Ux+der4ffzT2JuKek4poWVHRd6hAJJOgrRZrqGEFgzmK1sNGWkSNH4i9//QuefOpJDBs2jC1uulwt8Id6a29Ii/XklGRMnToVzz//POv5tW/fHgcPHYTBYFC+uQqo59ZaKXNfkwIq6BNcNx7rSeySRO0NRciPOIPjk7/Ghnb1sbOnFxvPIkvMdouRrTfT2I5SpwbkCavPIhTjjbMYDrsDFqsNVjvNMZqxSs1OYqBWmwkWXR4Kz4cias5EHOzeAt5edRE0+UvkhJ+CVU86fuS6R5HsuOa7yoeSApICd5QCDPp0evK/QorCd47TxztNqi+jgoICrFu3Dp9//jneeOMNFl8hvYVHHlVMV7/80ksYMmgQhg0e7PEcMnAg3nr9dTzy0EN4rFYtPl/5z3/w+v/7f/jy88+xcd16pCQmw2a1XR3lyvkziPFSG5Yzq0wmKXBTFKBFJOleGHMzELN2CXZ6NYBvR9Kjm8GWNS02A2ykn+G2S8uVqd+11WzG2dAQjBk9CvXq1kHnzp3Qf0B/9B84EB07d8awEaNw9PhJZOdkIzX1MhIvh2PtqoVo06adC/TRooBQS7EAfQ4rLzocJiOyTh/FkdED4OtVHwdH90X6qUOlQB+DP8+wp3x00X504rp8OW8tlahLhB5KE4/cQ0oq4iTo80C4GhhFcxk5WycdO9Lhe/LJJzFy1EgGfCTuSaDvZg8aC6h8OsVB1/Hx8fjhhx/w73//mw3FdO3aFQcOHGDDLsI/oEgvwypGAXfQx3p2FtaZy409j7C5k+HdrTm2dG+BsAXT2VqyRZ8Pu83MutvFdjux5HhcpjUcg0AX509Fb8zRI3Co3DvsdhgNOiRejsfp4DDEJ6Uz8BNjtMCHzMEjEVCHDXaTHoURYYiYOxm+vbzYuEvYvGnIiTjDxmCEoZgqRl3ZHEkBSQENBVRO350FfTRp0cSUlZmFo0ePYsmSJTxx3XvvvWzh7B//+Adat2mNXr17oVfv3lj8yy9w0kBXandL2fGyWSxYtWwZ+vfshf49eqJlk6Z4+qmn8Kc/PYZaDz6I//v//owpkyYjYFcA8nPylFUZLc40E6mGRiUuxQJOG5ZIIG8kBSqAAiVEv0h0xmxE9pkg7BvRGzuav4vdQ7oi/cAu3glmIy20cNAADG0TnA4HriQnY9rkSXj1lZcx5uNRCDoVhPyCAhhNJpyPjETAnn24nJTCnAGLRY+MzItYt2ohWrfxwtadB6AnUR+1Arbm6bC5DMOQ0QDdlUSE/zQbfj1aY2fHBghbNJndPZAeomshcSuAj15I+4LiWvuit+ta1CVCD/WIR+6httkS9HkgXA2MIv1zUkcg3T3arOzbry/fXw98XWv+UcAe+Wmzw2w2wWA0wmy2wOlQ/PMRkCTgN378eNYbJOugwz4ahqTkJP6mayCZa8wrid+Wx9Vi4pjZQWOqNT8HURtXYmevNtjRqT5OTP8SuTHhDPRYD0/V+aNNOBIDpbFW4RaSqxALdEVFyM3JRU52Dod6nR5WixU5WdmICA/Hvt27MHP6ZAz+aAQ2bguAzkDuRYTOnwsfMkOAxl6qhyx9FkSEImTGd/Dt1gpb2zZG+JKFMGWnsZhniXmrxvxC8kUkBWoOBRj0GfRWZQf/DnH6dEU6JCYm4ueffmYRzr/+9a949LFHWVylS9cumDhpImIuxCK/sAB5BQUwmU38C/BgqZqdcf0ktOpyAg6dHobUdBjSM5F4IQ4zp89Aj1498Y9/PM1ioQ8/+BD+8fQ/8Osvi5GSnMImsq83KVMd7os6upeHpEBFUoD6tSIKqXQ4Ak3G7HTErVqMQ12awbt9XZz5aYoiQqlO9KJflmpHMWC1WFi3tUWzpujRrStOBZ3kb8jhdMLudMJitcJkscLmIBGfYtgcFmRmxGHNirlo1boNtuzc7wJ9YueXrYA6LIoIEvn7MxkUwy4LJmNX50Y4+cUQZIUeZ4twTjYqoNiSKdW+G4kQL6kNbyT/zabV1kfXHg73JOKekoprCfo8EK6GRRFwI+fr8+bNY/D1zjvvsB466/C5cei0ry42PkWcuKeQTlrE5+fnIiH+Ao4fO4yA3XtxJjwSBqMFDuLi0MaQw4Hjx4+jjVcbdujeoEEDdvVAz+RRdSngAn3FDgXwEeizmpEfHoLQSV9hV6cmODCiB+L3bgVx+AiFuf5IpJLUcVRLnCSKmZuTidOnTmL1qpWYNXMmpk+dhrlz5sLPdxfiLyVg/959mD55Mr77+nP07t4Ordp4Yekab+QVWZSyuc8pqoHcdaj7qIMXAVKLsRCpB3fh+CeD4demAYL/9wXyyXKzw+ZRT7XqUl62TFLg7qPAnQV9xQCJcm7atBljRo/Bk08+hVoP18Irr7yClq1aYuHChQgLC4XRZGAn0hanFRYncRjUXS2HjQcaMkXPA5/NBnthEXRJV5AVGorUwEDkRkQDZtodNSP0/FnMnDkDbdu0xn9eeBEP3P8A/vXP5/HF5+OwYf0G5JD1w+tMkGIBpw3vvm4j3/h2UUCZX0mhnhZyKuhz2JEbF4FDo3rjUIv3sHdIFyQH+sJqNbh2dsvst8VgMeajh4+gft26+H7CBBgNBu7nVDyBPGGxja7Jx57FYUFGZhxWL5+N1q1aYevO/TCqnD4F9Cn6JuTzj9w7WEn3pNgBo6kAl4/vxuZuzeDdrSkiVy7iBQLtSisLlVukmvajE9e3WGS5sou6ROghk3jkHlJSESdBnwfC1bAo2jgk4y0dO3Zk0c7Bgweztekyv0/qH/Td2e2sg5eRkYFLly4hNjYWFy9eRFpaGshidWJiAnZ6b8XcWVPw0bAB6Nq1F5b8vg56PblGUceJ4mKkpqViypQpePbZZ1msdNq0aewnsIaRuUa9jtjkc2hAn82sx4WtK7C/Vyvs7dwK0fNnQh8fyxzAEoBPGN8jgy82M9LSkrB50zoMHNAXH3zwPl579VW8/NLLeP31NzFs2AgcOHgYwaeDcexIIC5GhWL10jno278Plq/zQ16RRt1FDFqakPopcQLJ519eXARC50zE7i4tcGBgN6Qc2M1AlTYo5SEpIClQdSlwT1QMWe+sXE4fT4DFgFFvxPr1G/DGG2/igT88gPvvfwD16tbD1q1bQY5saeeSuAS0e2W1GWGx6mDW56EoLQk5l2KRGRuFjJhI6FOT2Lmo4UoSEo8cQsjKpTgxbzr2TPwa53f4oLjIzL+A0WGFxWZG0MkTWLNyJRrWa4DHaj2KWg89jLffehvLly9nXYxr/VyaMdC1mLtWevlMUuBGKcCLALFnSjv4JiNSgw5iz8D2COzQAGHzJkKXlQSbnfSDSKRHEeuhfJ4Ou9WGY0eOok7t2vjhu+9gMhoV/V3eMb4KSpjzR5xBhw1ZWQlYvXwWWrRoji079zHoU/p+MYsR2Ym7p4I+5voRN9KiQ9rZ4/Af3RvbOzfC+QVTYMpO5Y2ZMprmqbllx92pj8+9Xg8tdE8i7impuJagzwPhalgUbRzOmjULf3v8b3juued44/J6OnxknZp89fn7+4NA2qBBg9in34ABA7iskJBgBJ08hgXzfsSP077Dp2M+Qrt2XbDwpxUwGGyKAQ4Sv1O5glTOf//7X1aRGDNmDBtEq2FkrlGvowV9tN4hMU1TbhbOL1+A3T1a4PDI/kje6wdLUZ5iFVk1mKLkU1wu0Bicn5+FjRtXo61XSzRv1gQTJoxnP5C0xlqw6Gf8vHgJws6ch9Fogs1mgS4/FeuWz0W/fr2xfN0u5BWRAT/NgKW5FhIeNtLto3WUoQApe7xxeEQf7OvTHpc2roQ5J1NxMVGjfh35MpICNYsCDPpMusoFfQ6HEyRfvmOHN97977u479778PDDtfDuO+/Bd6dvCW4b7RwR4DObC1GYnoD4I/twZu1yHJg1Fbv+Nx7eE77CubXLoYs4i5xzIQjx3ojwTSuRvG0Vdn89EpHbtwMktgDA5CS/ZPSuxbAYTTh1IghNGzVhjt8f7vsDi5aSARlSti/r0IyDrsVcWWllvKTAzVJA9DPqq6acTJxbOh8bvD5A0PBuyAo+BLMhX3GsqzpcJ0MvtAtbqlOSqwWrDSePn0DdOnUwauRIpF65AlLkFxw+qos4FAz6ADYKk52TiDXLZqFZs6bY4rMHZkpEB+/2kp8/KztwJyfutAggy20WuwmFqXGIWbUA3p0b4/DIfsg+fghOm1XNfIuBIIo2vMUiy5VdW5+gg1tG9yTinpKJawn63IhWA29JvLJZs2aoVasWO0/fsmULf1tlvSp9d+np6azH3qZNG9SvXx9169bFhx9+CBIN7dSpE7Zs3YLkpMuIvxSNlMQY7PTehCFDR+HnxWug9wD6Tpw4gbZt2+JPf/oTgz9y4cAbrWU1QsbfUQoQeKN1DgM+EoW325F9JgSHvhoBvy5NELN4FnRJF2E2FfIGOI3znIcMfBXbYXNaYHWYEHb2NAb2740mDetj+dLfeZynDQXyrVqkNyIzJw+FehPsJMbvsEFfkIZ1K+aib99eDPpydWWDPuo/bKGTrHQ67eyfTxcXheAp38C3Y2MEfTsGWWFBrG94R4kpK5cUkBS4JgUqH/SR8SiHE+Hh5/D662/gnnvuYdDVsEFD7PLdBbNJ4cqJVtNAaLMZoc+5gsjd27Bh3Gjs/fYLHJ46CQenTsKu779F4PRJyD+wB8b0ZDZfr8tMREbYYez8ergC+vSKtTQbm75X3VHQYthmR4CfP+rXrYeHHnwI999/P0/U0dHRZU6SYgGnDUVbZSgpUFEUcPUvpxOGK8k4OWM8NrZ6B8FfDkZRRoLC5XPaWaeOTHsT8BJilIwyNA0hQy7RUVHo27sX3nv3HcyeNYvvCwtpEWGFTqdDZmYmG3ax2O0wWcxIz4jHyqUz0bx5M2ze7g+jzQmbjZzDK058adFA3D466Zp0EAkA6gvSkXjAG7u6N8fBnu1wxXerYmFOBT+aZt34pYsoGiR146XceA73ej2U4J5E3FNScS1BnwfC1bAocsT++uuvg/TSPxv7GX9XggPHwIs6g3rQfVFRIXx2+qBDxw7w8vLC77//zlIuISEhzPkjwBZ+9izr9NH3pSvKwB7/HRg67GMsXrwWOg+gj7iNM2fOxOOPP46/P/l3zJ4z+5Yshor2yvD2UKAU6LPZkHY0EHtH9sHOLo1wccsKGPU5sNgNLEpvJwMuKlCkzT4CfGa7HgG7fdCyWWOMGDoUF2JieJ1Fgw91ORp77HSSmD5t8Dls0BWkYu2KOejXrxdWrvNHvo6MAmkGLM01gz6nA1Q3n1YzjBnJOD13Mny86mHf4G5IPLS74jb4bg+pZamSAnc9BVinz8XpE/Lht8tPnyqCQtak5s+bz/p7Dz30EN579z1s37ZdcaEgFofqgEO6elZdAVKO7MXmbz7B5i8/QVaALyyXLsGWmgrz5QQUBQfBcD4cdl0h75aZrEXIiD6FteMGK6BP9VOrFMmNUEZCAGajCQf3H0CD+g14Z5SsrS1atAhZWVkegZ9mHHQt5u76XiQJUOEUcPUzpxPGlCSETR+Pba3eRcjXQ6HPSWFjKxbisJGOK3P5FBFPnrUps+agCTsvNxerV69AgwZ18fabb2HER8Px66+LsW37NqxevQorVizH8RPHcebMWfj4eGPtmqX4bMwgvP3WG/jqm++wY2cAAgL2IjYmXvUDrCwciOPHO8/s88kKQ0EGEg/4wL9rMxzr1RZpvpsVXQ/xXWvadcOXLqJoFiY3XMhNZHCv10MR7knKui+V1S0h7fjT7j3rxqgLNm2SUvkrIYL6j/bMy8vDjBkzeMOOnIH7+flVQiuqRxUE+sjNELlpmDZ9msJBJ+uKKg21b0HfTWT0OXwy9mM0b9EMvy/9nfXKiftHOn4Wi4X1/IQjdxKnLixMRcCurQz6fvl1HcjdEun0ifIptJgtWLliBcjq9RN/fwIzZ83k8rR1y+uqQwECcLRpRhvc9O07rRZkBB7AgeE94dO1IWK3r4DBlAfSobarEh0u0EecPoeZQZ+v3za0btEME77+BmlXUl1rHHpTGkNo65ssMLNUh8OGIgJ9K+dgQL9eWO0B9FG/ovSK3rfiZ1VpJ/VPCwyZyQgi9w1t6uLgwC5I3O/Pba86lJUtkRSQFHCnwD3R0ZdhVMUfxUBCCw5edLinvtl7GnHUgyaw3377jfUd/vjHP6JevXrw9vZWHMmSjxnalRKrHNqecjhhzc3B4ZmT4T28P6L8tsBckA27xQSHzcILSrqmgZL91QAgv2WZkUFYPXYgordsB7TSmqJs0SaeJM3w9fVF48aN2UUEOYD/+eefPSrAa7OLa/FuMpQUqCgKUN9i/jQ5VU+6jPNTv4V3y/cQOm4wjDmpLGJjp4WCsN5JCvTXMEJkt9uQkpqIrds2oW+fPvjwgw/wyssv4cUX/s3cv2FDh2Drls2YMmUy3nrrTbzy0ot4+cUX8K9nnsEL/3oOL7z8Iuo2aIyVq7bCZANsZHyCxHwciiEJqpq+P1NhFoM+v46NcbRnK6Tt3MCK/+JbofCmD20h4vqmC7uBjKIuEXrIKh5dL+Ss10gkQZ8H4lajKAJ9r73+Gh5/4nHWz9OCMbp2HSRp4rDiwNHdaNu5FYYNH8oGXGx2MlRGelqKKwaRnuZmq92EvMIk+PptwOBho/Dzr2TIRVHNEP7XKCRrvatWrsTTTz/NxmRIx/B6eoWiHhlWLgWUoYDENGmzhzhpNl7bZB3ci8Bh3eDbqR5ity2HyVQAmwr4eJNNXaOxeKfDDJNdB/+AHWjXuiW+/PwLxF9OhE1dT4ndaaqLllQE3GijsKhQAX39+/XA6nV+yC8iYKf4ayZffwT2rHxSvGLwS4QC9J2aNwXeLT/E/gEdkXRAgr7K7T2yNkmBG6dA5YA+tV006ZFlshdeeAHkg++ZZ54B6TyUnBhV0Mejk7I1ZUq9gk2fDsfBrz5GwYVwRaTMTjucyu4Tg1Ua2dQ5lXQAM6NPY9XYAYjetBUgTp8yumpC3h51LZTJf42Pjw/r9f3hD3/A22+/jYSEBK5DS9ZSxWgfymtJgQqggJicCfTR5GtIvowz01TQ9/kgxTiK2vdpAUA7xLxRIz4A9zZwV3ey7ofRpEfk+QheFP744wxMmTwJC+bPw759e5GUlMjhjBnTMX3qFPw4bRp+nDoV06ZMwsTJEzF/0c84dfocLA4SEyKH8Q5ePDDgozocDpgLs5G83wd+HRrhUPfmuOKzDlarsdTn597Ect3fqY/PvV4PjXVPUtY9Zy3rofo7SU6fBwJXkygh3klO2ckoizvQ074GcW72HfGHV+cWGD1mFK5cuQI76UypnEFtWgX0GZFbcBm+fusxZNhoBn06vUWpg1br6kmgjzh95Jv273//OxuDkaBPS82qdS022wn02ZxW2C1GZB7agyME+jrWwYUty9gKMklVkD5dSdCn5DHZ9Qg8sgfdOrVHl46dsM3bB8kZGTDZbLwXSHp8RrMVJiu55lH0sXWF6Vi3aj769e2GZWt2ILvIzuM6qQkIjqJYYwmwJ0JyDE+cvlPzJmN7yw+wb0BHJEtOX9XqWLI1kgIeKFCpoI8mHhKdJAVzch7brVs3F4dP7Gwqg4rYklJBX0oyvMeNRuA3Y1CQEAmb1ejidNDiU+EPXn07smqYFROMVWP7XxP00YJacEdoctbr9RgxYgQefvhh3iElXQjiTGoPT+s17XN5LSlwKxTQ9i/a9yAwp09LxmkS72z9AULGDYIp4wrHlwB8qkU3j3VzobRTe1Wflfo+la1dQIjFB8eRURixkGQrn5SfGe9qtMLpI04jRRDwo3zm/CwkBmzFro6NsL9HC6T4bmBdP9EuaspNH1riiOubLuwGMoq6ROghq3h0vZCzXiOR5PR5IG41ihKgj8AWgT4B4Bj80e+uOcgAx4Hju9G+W2v06d8bwSHBbERMbIJSUtc1SaTYDS7QR5w+RbzTgmLxnQrQZ7Zg+bJleOqpp1jMdPZsqdOnIXuVu9SOu6SfbbMYkH36KI6PHQz/DvUQs3Q+DOkpinSTg8T5FfFv3uhTOYS0gZCYdBEzpk9Eowb10KFTR8xdsBCHjx3HuYhIBIeG4/Cx04iOjkVCQiwizoXidNARTJ82Hl5ezTFp2lycOH0OMRfikJWdB4vNwZImSpcqyeWjNRqBvqLEWARN/Ro+7erjyNghSAsKZOmrKkdg2SBJAUkBFwVuP+hTJzqavIjL17RZU9x333146aWXEBgY6JoUaXJUdpWIg6BiMRbvLIY5PQ27vv0Mu0YPRNa5IFiNhXDYacfKxiIPYmecB08UK+KdxOn7rB9iNm4GDCqILLHYUndGhcgNLWgdDuw/sB8k3kncvtq1a7O/JBe1PDEMtQ/ltaTALVJA20UVX31OGLLSEP7rHOzq2gTHR/ZEVmQYT67sDFcV8+EFQFmcPmqTtmD1WnwvZYWeihMLFFp4kHgni5fyt0vianboUi8jcuVP2NWpEU6N7oOMo3vYt5Sr/luhj4d3uJXiyp3XvV4PGd2TlHXPWct6KDl9HihbfaJojiN3Ca+99hr+7//+Dx9//DG7SyD9PAZ/tIKm3149SMQuPCoEoz/7CA0a1Wf/ehEREbwRSunpNBgMbOnabrOxX868AhLv3IjBw0bil8WrodeblTJF2cVAZnoGJk2cyC4bSLdQgj5B8Soasr6nIqrPoI8M16Um4PziH7Gne1Oc+HQI0g4fYNc97MtPC/rUDkWcObNFh+ios5g2dSIa1q/HRulat/FCx06d0blrTwz/eBw2bdqCX3+ag17dO6FV6xZ48+3X8OwzT+GD9+qgffuuGDx4BB52qowAACAASURBVDZt8kNGrg4WEkF26fUpe4BiE8JmNiL9kD8Oj+yFgJ6tEL18AfQp8Yp7nipKZtksSQFJAaDSQB9NYGRR7LE/PcaAqk+fPi7lcuLyuU6WHdeAPmcxzAU5OLlkDraN7IczyxYgOzwY5qw0WApz2XcNcRfotJsNbPTFkJ+OjDNHsPXTfohbswrI0QMGE2C2qiOX+tPz4kuZiGkwo4O4fT179sSDDz4IMuoyadKkEv3E03qtRAJ5IylwCxQQ/YsAH2+CkCEjYyEyTh7E4WHdsK9zI4T8PAvm3ExlV9UlW8mIoeyaRcE3GJZK7tIjVK24OcmENxkgIGu4VmSEn4LfiJ7w7dwIF+dPYYu6BE4l6Cux3i/5O2mILDl9JUlTne5oDiGXDS1btmRJlnfefQfkAohAn1gsC9AnNk9yCrKwefsGeHm14UX6559/zioPR48e5U1RApGhoaFITkrCqaDjCNizA7NmT0G79p3w+bjxOLDvEE6fDMbFiwkwGhUAePTIETRu0pjnMDK0s379ep5fqxMt76a2ir5AkhIE3ohrZzEVItZnPfb09YJ/x6aIWfITbFmZID1um2poj8YKErGgPxLJJKfpFrMeV1ISsXnjenw8ehTatW2L5k2bokuXHpj643wcPnIMvyyYg3atW6BBwwao36A+Gtavj2YNm6BFkxbo2qUXli/fiNTMfAZ9VhX4ufYUSELEbmfOY+Tv87C3V0vsHdwJ8fu8WQSVDO/JQ1JAUqDqUuD2gj6xmCHfX1YbRo0axRbfSLzz8OHDrsmQAKEL9NGgQmOZepKPGbOpABkxQdj347dYP7gb9n83FpFrlyF25zbE+nojZsdmJB8KQEZMGMJ3bUakz3qcXToXfsO6IWTi10jw3oHLe/cgIyQUtqIi1pNieTTRPgrVgyZo4kA+++yzIEMz/fr1c4FTSqLNIq5FXhlKClQEBXgSZ509RV+PxJXz4qNwdOxg7G3+XwSO6IWMk4FwWtRd/pvpiCLPdULxmEEoLS5oicHfKCn6O2GlRQjr9wEOsxkpx/Zjc5cm8O3eDBdXLeHdaV7wVgxhSn+AFVHu9coQRBChh/TiUXnCUtk1mSToK0WdahNB/Zwsm86fPx9/+9vfWGd9zpw5bBBMgD5lia74ZVMW6w5kZGVgw8YN6N2nNz6s/SH71nvvvfdQp04d9O7dm0EgGTtr06Y1Xnv1ZfznhX/jqaf/geeffxH/ffMd1KvbBN/+8CMSEq/wPEpGychtBG2wfvLJJ8jIyHCBTmqHPKoWBbhPqDraNjaOZWUVlszg4zjx1Ujs9qqD0E8GI+/0MXaxQ2kIIAp9O1rL0D27ziHDXg47CgsLkJychLiLF3HpwgUkXU5Cdm4hjGYbsrIyER93AXEXLyA2NgaxMTG4GBOLizEXkRCfiOycfJhtDhDgsxHocypWPGnxQ4DPYTIi7dBuHBkzAN5edXD4q4+QFn5SMdhFCzd5SApIClRZCtxe0Ke+Nk00l+IuoUmTJnjggQfQoUMHpKWl8UREYI9FWdgoBBmGUCxIKbLkNOA4WKzFoM9CRthR+E8Zjy2fjsCG4YOwdkh/LB/cH5snfInIHRsQ478Viz8eiJUDu2BN/3bY0q8DNvXpiE0De2DDRwOwb84M5F6+yI6llV0yDYrTtDU3N5e5feROghztno847/oBNeszFwB0PZQXkgK3SIGrCwDFfDeJLpOlNF1qIs4snA6fdnXg07EBQhdMhz0/T5hjK8FGci0sFW9OnlvkqSN7iKMoAnqKdTkF6CkGXGhX2gEbW5xzAFYbzCnJiFr1C7a1r4tDI3og6WCA4reJCqmIw0P7KqLY65bhXq+HDO5JrnVfKrsmsQR9pahTrSJo05CMk/373/9mX30k4pmUnOR6B/FtuiLYQLWDJUzOnTuHBQsXYMiQIbzZSIDttyW/ISoqCkeOHMHHYz5Gjx7d0aNnD56fevfqjb69+2DQwKFYtHg5rqRmIis7G3PnzcNzzz+HJ59SRDtJL53mWQn4tFSvOtfUJwjAMReP3TY4WEzSpitA3LbV2Ne7FfZ2b4qI5fNQmHQRNpOO/fUR+LMXq+CPuH/qZpzg/om5hDe41aUO64m7v7oYf0T8VZtArL/N+wRqGgJ8usSLiPl9Afb18oJPp8aIWLMYpvzMq+sqUY4MJQUkBaocBSoF9JEz9uXLluO+P9zHug4krkJAjyYhBnykv3AN0EeLXuJ2mA350CdcQMrRQIRvXI/wdWsRsn4tLh3eD0PSJeRGn0PItg04s/p3hK35DZHrliJi7e84u/o3hK1eirj9AdBlkbl7cibtKMk10Pw01CaaZGs9UotdOEyZMsX1VIyP2tD1UF5ICtwiBcRETf2TAB+DPrK2ZihCVvgp7BnTG96t38fBMYOQc/K4sg3rkr2hLu35r1SztB34Gtf0yB30EdBjsEdtpO/Wboc1PQOX1i7D7r5e8O3SENE/T4Mh54qizyfaV6oRNxjhqZ03WMRNJXev10Mh7kmudV8quyaxBH2lqFOtIghchYWFoUePHiziST77Vq5cyQZa6EXE1+nppWjeMZlMKCoqQmFhIXQ6HcwWM8+RBNyKdEUoLCrkZ5SG0xUVIr+oCHqyzGixYc/efWjQqCHuf+B+1K1XF7t375ainZ6IXYXiqE/QphqBPjrpmjl5FjOyzwTh1Hdj4NP2Q/j3b4PI5QtQEBfB4p/k8oN0/BjkqaKeYiea+5lwvaVydwnwkYN2Fy9OM+6IfCLkR0JjQE3ntFpRmBCDiGXzsGdAe/bFenriFyCOpM2oYxFT3kyvQrSVTZEUkBQoSQEGfYYii/qtq2InYrAomfam7wj0/fLzLyza+de//hWJiYmuXUfm9LkAH4l5KlYCBaePrXmSKAObsrbCabexiEGxyYxiswVOs5nF3Miwi8NqhtNkQrHBCLtJzwtlq6GQdaKsxiLmOrAIhMaKoRjktC9Hk29ISAgeefQR1ov49ttvXY89jZOuh/JCUuAWKSAmawJ94mTgR9bSUhMQvnwO/LzqwLt9E4QvnIfivELeFRaca7GodA9LNctTR/YQR1GCyycWJTYW61Q4fQ4SJ7KYkRcWgsOjBsK71QcIGNoZGcd2w2jOZxPkVAZ/Z6UacYMRHtp3gyXcXHL3ej2U4p7kWvelsmsSS9BXijrVLsJsNrMeHbkmItcNgwYNwokTJ2AymhRLmxX4RsQhIo6P2WJBRGQ0vvr6Wzzz7LN4/PHH8c0337Czd9pclVy+CiR6BRdFY7Xg9NEYS5tsfJCPvKI8pO/ficAxfbCh1bvw7d8eUcsXofByLOw2E4ND5uS5dLuVsVaUSeUKTp8W9NFzjifLy8wFdir2DtQNOh6SBOijjBYriuIvIHLZfPj3aYHNzd/E0bEDkXXyIK+zSG+bgCqXW8H0kcVJCkgKVBwF7omJSYJOZ+HdH/pgtX8VVQ2BqJ9/+tkj6GNunwb0kflp1/jFYgbKhEWLIVISZkVhmsRUUQbyDSbilIzqoEdiouzolpzdWtnap9iFEu9Y1vtJ0FcWZWT87aaA6JslQtoBtltgLMhE+tmjOPbxAPh2aIbAUUOQcSAAhuwrqgN0ZbHAeel7EYsHT43WAA1OVsY9OeglESJ2HEyinNQWAFa6dlh5c0UXF4vIxXMR0KUlArq2wLG5P0CfewUWm16x8FlBmM9jOz29W0XHudPGQ/nuSa51Xyq7JrEEfaWoU+0iaCMzJiYG48aNY91wct9AwI+MsxgN5DTW86HpBp4TeIilRb3ZakZkVCS++WY8nnvueRYr7dW7Fw4ePAij0ciAT4I+D8SrQlE0VtOIrYza1BOUw2GzwJiRjKgNS7FrRA9s7NgQuwd0QsK65TAkJyg60w6F2yfGR9GPaOymU9xTKMrn9ZTKURQSJQzayI0Vr8HUjQK6Nlugi4tBxNIF2NO7NXY2fRV+XRogetUvMKQn8dzD/gOlPp/42WQoKVBlKXBPbGwyinRW9slydaip2PYSiPrpp59coI+cnmsPwe2j8FqTEz275kKWChUjnKhA3N/Ay0nQJ4gnw6pAAbGbb7GbYMhNRZLfJgSOHohd7Rri2MieSPRdB11mIpx2q9r/le9EdP2bfQfKr3D3iKunWuvknWjy1+cAcdHzo8Nx7udZ2NKlEfw6N8XZ6ROQHxkCkzEfNoeZ0xG3vtR3eTONEi+kDW+mnBvNo62Prj0c7knEPSUV17Rh7jG7SMA76yTepfjhosSaR57zemhLRUfxuKtyi+iajJXMmDGDx3OyDunn51fRVVb78iwWC86ePYtPP/0UTz/9NHPeCPgFBQWBOIFintP+vtQ/RB8R8dcjBIl9RkZG4ttvvsWzz/6T1SdI5+/w4UCXj1nx+12vLPm8ilBA++PTppvFBGNqIq4c8MOxiZ/Cv1tzHO3fBbG/zkN26AmY0q+o4M+uAkelH9HmHJ1kT1MpkoCcMr4w0HPaYHdaQf4ibQ6LyyE7yLCe3Qa72QhzRjpyQk4i8ucZ2NevLfxbfYD9XRvj/Oz/oTAinOtldRmHnTfiqwgFZTMkBSQFyqAAg75CnZUHBxoYKvpgQKc6Zb/33nvZqlncpbgS1ZQX9JXIVNaNGDCvFZaVV413gb5HHgEZc5kwYYIrh6diXQ/lhaTAbaAAQTjmtJE5b6sBhsxkpPhtwaFR/bCnU1OcHNUHl/02wpSdxgZVBFKgBaTY6b2ZZol6xU4wAz9VXKjYYkFBXCTOLJiMHd2bY3uHhgid/CVyw46xtV1F38TOYkti0SkWujfTFs5zpz4+93o9vIB7EnFPScW1WNCXyi4SSNBXijTVOYKAH4l1du7cGffffz+Leg4YMIA5fnqDXrHq6dY/aIEu+gl1i2sdNG8S4BszZgyXTb5l69atC7LeSbqA8qjGFNCMCcx5I6NZRQXIOHEAIf/7nN04BHRpgqOf9kfs8p+Qe+ooTOnJsFuMLIFBkhhWEg9lSY2rHETaQNSqDRBgY9DnVEAfi+ubzbCmpyHn9HFE/r4Ax8YOwe5uzXCwSzOc/HQoopYuRP65UNgNOsVPK0lgscQV9Vx5SApIClRlCtx20GezkXilA4sWLWKn7H97/G/spF0QhRaCVQn00UKXLLCRsZlHHnkEDz/8ML7//nvRXNcCTjsmux7KC0mB20AB6pMklkPgi8Q8CfiZctKRuscHR0YPwP6OjbF3RHdc8l6D3PNnUaw38iQsDK7QRE9liEN7LeI8hVwvW+ekHWEbi0g7rRbYCvJQeCES539fAO/OjeHfqQGCJ45DbugxmHW5bChJW4cEfQrwE4v5UrTWDCZiJ55C+sk0jzS/YKkSbmuE9veja8npKz+5U9NSMX3GdLz00ksgV0V0kvXqjRs3ssGXwsIiWMkMvro4L8mZ8VwPzalk6IWseo4fPx5PPfUUatWqheeee44dwl+4cMFzRhlbrSjAIzZvBKlqeU4n7PoiZAUdQfAP4+DfpTF2tn4Pezo3QcjYYYhb+xsyzxyH7solmHIzYC7Mg8VkgM1BazA7n07i4hFA49POYzr5NyZAaS3IhSkzFblng5GwdimCPh2CHW3rwturNvy7t8Dp78ci82Qg+0R2mI2sVqOASAKSJeeYakVo2VhJgbuIArcd9BEtCdT99ttvPDGR/yISeyFgRQctIoTlTkpH97d03OIqiQYvEr8h/QsCfDRJT5s2zdUk9+JvsbWucuWFpEBZFFD6nMLtI4NGbNnNboUpKxUpOzfi2Oi+2NqhNnx7tkDQhHHIORwIc1YaLOYi3vVlfQvajaWJWd3pVUCFWFEo3yHXz5WJ+GLFgJJqJMlekA/9pQtI8NmMsB9/wPauLeHdqRHOTv4cOcFHFLPddgt/w+I7oTIJAArgUNY7liteFKoNy5XxFhNp66NrD4d7EnFPScW1BH0eCFfDo2iei4uLY9cLPXv1xD//+U82DkZht67dsGLFSpyLiEBKRjpScjKRrS+C0W5zcfuIPDQvkm5eTk4OsrOzGeytXr0aAwYOwNP/eBp/+ctf0LRpU8yePRvBwcEgDqM8qj8FeKhRN35YRJMiCPjpCpF2MhDnlsxG4OcD4de1CQI6NEBAtxY4/sVHiFo8C7FrlyB+x3pknw2CPj2RpUNIN9CUnuI6jenJ0KddRubZk4jz2YSYDSsQ9fsCHB03HLu6NIevV134dKyPw2MHIWLZfKTTGF+YDZvdwms23hRUjdCwxdE7ti1V/X9r+QaSApVFgUoBfbTgO3bsGGrXrs0uEEhcknzh0UHPysPpEwuna4VKgZpVFo+aN0ZKag+17YcffuDJ+Z1332GFeFGKp/rFMxlKCtwuCjBwoknVpR9HgMwGU14mLvusx4HP+iOgZwv4d2qKEx8PRtz6ZUgPOcqK9qR7R5ZtHXYLcwptViOsOVkwXEmBMTtLsYbLxgBoUVHMu8Ck11FMXHrS68jNRH7MeaTu24XwBTPg27cDdnRsgn1DuuPElK+RG3KUfUeRNTk+1IWK9lthK7wVvaFzE9/3Tf0+2hcpo073JOKe6hPXEvTdFPVrRCba2IyIiGBOHFn1/POf/8w6kc/+85/oP2ggxs+YjGkrfsHKg344fD4UsZcu4lJ8POLj4xEbGwt/f3/MnDkTU6dOxahRo/Dyyy+z/h6F5B4iICCAdfhoLqVTHjWEAupYKsYOHktUw14EwJJOHkDY4hk4Pm4oDvRpBx+vetje4kNsb1UbOzs3QdB3YxCxbC7Or1iAiBULEbliEVv/jFq2EFErFiFixQIc/uFTbO7WAuta1cGmVnXg3a4h/Lu3ROCY/ghbNAUpJ/bCkJ8Oi1UPO+v+EWfaZRKGN/Xojk55SApIClRtClQK6CMSkEjK2LFjeaJ79NFH2Q8exQvAR5MiXRPocj/Eoqk8oXteunfP5ymNiKP6yaXEf/7zH+b0kfI9tV0c7mXRvTwkBe4IBWhB4HDAUpiL7BMHEbd8EQ4N6YKdrT/Erk5NcHTsMMQsmY/sE4eQH3UWBXFRvONryLqCVO8tOLdwDiI3rWVQZ7MY2BAM+WJy6PUwJSej8EIMis6FMjcxeOJY7O/fDtu96mBn12Y4Mf5jpAVshz4umgGlAKUU0uH+nUjQd1VXq1Rf0RCLOLDSkEspCtWICFJzIKuev/76K0i378UXX1TA3x//gIeefwIv92qF+l8PRZvPhqDfsIEYOmwohg4disGDB6Nhw4Y8Hz344IMM9gg4du/encsSfm9rBJHkS5RJAeassaSGKrFBVs+tZhgzU5Bz+jBiV/6Eo9+MwqERvXBkaDcc6t8evp0aYmurD7Cp1QdY0fS/+LXB61jT/D1s9arLYzmN576dm2Bvv3YIHNwVgcN64vhXo3Bx2SJknzqEoowEmIx57CeZRfxV37EsKVJmS+UDSQFJgapKgUoDfQTofv7lZzYnTQrnI0eOVJzO2qwM9ug5y4VXMOjTrKdKLETdfxABOEm0k3ZVn3nmGW4rOWaXoM+dWvL+TlPgar8m9yUO2CxGWNKuIGnTKhz+fCiOj+mP/T29sLNDMwR9OhihEz7B2enjWe/jyp7tCPtsGAK8GiFgSHek7t2O9FMHkB58GFnBR5FxMABRC2ci+PsvcPab0TgyqBO2t3gXAW0+wLGPuiJszhTkBJ8A6YKQqClzH8sgiGinBH0S9JXRRe6KaNemSHExO2AnAyy///47Bg4ahPcb1cN/e7TGh18Nwiuf9sRjdV/DPQ/cg3vvu5f14Gm+/OMf/8juHwj89e3bF7/88gvOnDlTwhLoXUHIu/gluQ+pIvospq/6L3ayZWUbjLnpyA0/jYwje5B5cBfSd23G+bmTcGLsMPj16YBJb/0bI56shSWtauP42CEIHvcRznwxEhfnTEaq9zpkHtqFrCN7kEcWQVOTQL6NLRY9rHaTayOK6uVT3dy7i38O+eqSAtWSApUG+oiDlpycDC8vL57ISLH99OnTMBho4aiIpFCaiub0iUWne+j+axGwI/2LkydPomWrlqx/2KBBA1y8eJHbJ9K7l0P38pAUuBMU4L6ndkgWt7FYYMvJhiEuBvlhQYhdthj7Rg2GX5fm2NmuLnzb10cAmfse2B7H29XF0WZv4VCb93FyQHscHdwJh+gc0gkHB7TDrk4N4deuPnw6NkJAv3Y4MGYATkwah/R9O2BOSUKxwUR+G66y9MoggPheJOiToK+MLlLjo2lO87ShaTKZEJ+QgMCw05i2cy0aTf0Er349AK/2bYsPGtdHo8aN0LhxYzRp0oTnTdItDwkJYUNoer2e6cZllyEhU+MJe5e9oDvouyrqrwzDtAFHfv3IgqfNrIfFWMiuHoqiw7Fj/o9o+fK/8epjD2LJ+M9RGBmGotjz0F2IhCExjo2z2Ex6OCwmkLQHbHbWH+Q1maKVXeL/XUZ6+bqSAjWGAgz6ivS3z2UDUYoGKzoIWM2bN4/1+kjEs2vXrtDpdMzxI+BX1iEWjuUJ3csoK48rndI0BpvUFtKXeOyxx1g5nnQoyA+S9vBUnva5vJYUqFQKFBOYIAfqyg4sKfoTGCOHutaMdOQFn2Cz28EzJ+DUlC8QOKoPvNvWwf7mb+Fok9dwsOkb2NumNvy86sHbqy62etXB9q5Ncfzr4Tg9/VsEz5+C+O1rURRxBsbLcbAV5qsLAkWGk79toWfo9uLab+VuBn1EFqKF0MtxI9NV4Mwqm1K8sxR9akCEx81MFQzm2IxYFXoQTWd8hg+mjMK4Lb/hSEQYomNjWZ8vJjaGNx/JkEtZ5ajTWA2glHyFsihQJuhTMxAHjox2sbschxUOhxV2m5nF9rdv3oR333gDzzzxBJb99BMcRiPrbBfb7YolT5o/2DG74pyddLtdolFlNUjGSwpIClQ7CtxzMTYZBr3N5aePBxZ1T6ci34Z3jIqLkZKSgnfeeYf9Fj377LMI2B0A2rW8FuijdmgXkNe6dm9zWWlFOtGuoqIi7Nu3D+9/8D7rThCXLysrSyRzhZ7Kcz2UF5IClUkBtTOSuXfy40eTPh8U7yyGk7jXJiOsRfmw5GWBrLWlHdqNI9+PxZHeLbG36RvY174ewr4bi+DpPyBo+vc4NuN7nF4yHwVRYewWwpKfDZuuAE6LmQ2+KIsBsSBQnP1yvVSnONRrtXnKt1sGF19kKVdYokB1UChXxltM5F6vh+Lck4h7kVTcU1jq0DzkhZt0zl6KRDUtguYdlnApdqLAbsHq0ENoMv0T1J4+GrMDt4OAoDCVQfruFpsVNrsNDuLqlWM+rGn0ku+jUEC7PlM23FTKcKdQ5gExF5DYP3H/aEwJ8A9A/br18dTfn8a8WXOgLyhCMQE76ks0NmtBHm/iqWO8WrwMJAUkBWoGBe65eCEZBoMNilNYRQyFRMXovB2HTq/D/PnzWYmddBXIoqefnx/7Hboe8KuI9giQR2XxpOt0Mrdx165dqF+/PlvsJDcNs2bNYg6ke52eJlz3NPJeUqDSKKDM24qeBe3Wqnx1ilbuNBsmTiccRgMKo8Nx9tuR8Gn6JvYM7sTGWograM5Mgzk7nf01Ocwm9ufE/p2cqpsI1YiAEFWjUJwl9PrUNlU4De7Ux+der4cXc08i7kVScU+ha9Xu4aEEfYIod09Y6LBgXdhhBn3vTx2OWQe3INdmhL3YwfMwLeJpPi71PWu6krZ/cR+7e8h317+pAv6UkZ/6iEuigMCc+hcdHY2BAwfiicefYANAp06d8ri+8UTMa/Yt7UNPmWWcpICkQJWiAIM+YyWCPhqESGSSTE/fe++9IOBXr149eHt7g7htAvgROLudB5VPOny0ixoWFsa6E9QWOuvUqYMrV654rF47xolrjwllpKRAJVKAwAKfGtDn+oKE+CVzF+zQpV5G6A+fYGuzt7Dro+7QxccwGCR9DruVxIFsKCYR0WKoTqNpE4h2kT2ftNAoAWRcFVcwAcQHpw0ruAqPxWnrK+Pd3JOIe1GeuOfs4sbDQwn6BFHunrDIYYF35Em0X/A13ps+HNMPbUG2zQibC/Qpm7AS9N09faK8b8qgToz96saAC/RpCiHVmgXzF+Cpp57ic9myZbz+ofzXO8RwpQ1deTxGup7KC0kBSYEqRoFKB330/gTsaOfptddewwMPPMBng4YNGPgVFha6OHC3k1YC9IWdCcPsObPx0EMPsYW0N954AytWrGALa57q145x4tpTOhknKVCZFCgL9NGk7lRFP/na6YD+SiKCyTdTs7fhO7wn9JcvsOlvJ22COBy8EcIuVNw4h6K/ewol6LuKe7X0EX2gRJy48fBQgj5BlLsnNDttCM++jK98l+KDH0fhy10rEV+UC6sG9DFH3W1DR3QjT+HdQ727+01vBPQtXLAQTz/9NJ588kksWbKkhFXya1Hxmv1L+/BahchnkgKSAlWCAncE9BHgKigowPr16/H6G68z6PvD/X/A+++/Dx8fHxa3JC7c9bh99Lw8adwpTWUTuDx8+DDat2+P119/nfX4SNdw1apVikXRMsRbtWOcuHYvX95LClQ2Ba4F+sjvGwM/WjQWO6FPTULwD59hQ7O3sXOEAvqKyWCR3cF6ew6HDTaHBbb/n73rgK+qyN7srop1dfW/q6tgWd1V1wJYVkCQjoj0jvTeBQFBpYOggPSidJCOEAgklNA7hN5DQhLSQ3p97b6X7/875955uXl5gffSy9z8buaWuTP3fm/mzHwzZ86xmTm+S99ClUFsBbUcRFQ4fSjyLMhQn5/+O3V5OkYR5yKKOOfHxYmTm5L0CVDKTmixKYgwJWLBGS98+GNftF4yCQf8r8Bo05xgi5kcSfrKTqFw8UtdJX2KRcHcuZmk79dff4XZktVIXU5ZCnGlD+1xnV6035UHEgGJQDFDoNBJH5E0mukj4kXWMlesXMGGXUit8qGHHgIZUFm7di2OHj3KMw4UT2wk4MQmCJ87pI/ikh++EydOgIQeqXFSnrS///77WLlyOPwiYwAAIABJREFUJRISEzgLoWYq8hOhXsaJY3FPhhKBokIgZ9JHNl1IPUxd0E/kj0nf+KFYX/d9Jn0pQbfY1HeGVYFVMUMhwmc1ZpK+zGqX8+dpcURUEeb8QC7uUKKOey6ScfsRF/J0jCLORV7inEL7Nzi5KUmfAKXshIpG+hae9ULlH/ugzuwR2HzxGNLIAqN9tp279wyKviw5Oy47yMkvdYf0zZs3Dy9VeAkvvPA8Fv+6OJtl8pzQvG8Z09/MKQF5XSIgESg2CBQJ6aOvF+SPSNiaNWt4xu31N15H+UfLs845+Sby9PRkv0Tx8fEsoPRETJA+uiaOKXTcBMGMi4tjldKNGzeyH75nn32Wjba89tpraNmyJZNAMjKjWBVtPNUxJfVcL+PEsfOY8qpEoPAQuB/pU8upquZJs35pPNM3BOvrvgePfu2QHHQTFsUAxWaG2WqE2WqC2WYGzUBQunaSIgp8TqHGZ+irKUq+b87yzfdMnCTomK8LUcQjIqo4p9COp5ObkvQJUMpOSIMyMeYU/Oa7B1Wm9EGNWcOw5sJBJFKdtNe/TNJXdpCRX/ogBJyRviwyRhM8VouC7Tu2o0bNGvjHC//AqFHfIjQs9EHJ83297BLH9gfFBQrlJhGQCBR7BAqd9DkiQkKLZvzIcfuCBQvw5ptv4vnnn2d1SwqJkM2cORNXr15FZFQkiLxRfEH0HEkfr32w2dgNBPk1io6OxrVr1zB16lR07NiR9dkfe/wx9sP3yiuvcNoRERGs7klp6oml47vSuV7GiWNn8eQ1iUBhInA/0kfvQfWMZvmsNoud9K2r+x6292uPlGA/KIqJ75FKp8VmYcLHs4Nu0jfR9oswXzEQFU4f5msGOSSmzy+HD3OMIs5FiuKcHxcnTm5K0idAKTsh1U2y1rn03D58MKUPqv8yBKvP789C+ri9c7Mulh0Ey+6Xukr6yDAXLamZMGE8/v73/8NHH38EL28vl4AT4kof2h90etF+Vx5IBCQCxQyBIid9hAeTLVJBs1qxZMkSjBgxAmRQhRYc//nPf2Zn6f369cOECRPw008/YfXq1eys9vbt2xz6+flBv9+8eRMbNmzAtGnTMGnyJDZVTOnQ/o9//ANvv/02O2EntwxECilfUiMlwidIHwlTZ5texoljZ/HkNYlAYSLgLuk7P36Yasilf0ekBt+GzWphUiiMvvDgiaZa5nSkQxR+fagNitB30+V83/R5ieN8z8RJgiIvEboQxTGqOKfQjqdIR3dTkj4BStkJqa2JVwxYpiN9qyTpKzsFIA9f6irpI/+qisWCmTNnMOl7553/YpvHNpdy1omnbKLLfoEFm0vJyUgSAYlAESLglPSJDl9hvReRPrER+YqNi2WVz5EjR6Jy5cqoVKkSnnnmGZ79e+SRR0BqoN17dEf37t3tIfmg6dGjB+90TJZBySLno489iieeeIKNtVBagwcP5rTJSTy5juCZQpoF0QifnfTp3km8G4X3FYD6iPJYIlCICLhL+i6M+wZb6n2IXf07IS04ALSej9IgPw36P6cF3lkl0KqwqMlqFH1K6nGeIHGWb54SdPFhx3wdHnO8rT8XUbNcEydObkrSJ0ApOyHVjASN9FWZ0hvVZw7GqnM+cqav7BSBXH8pS1Vh6EfnyzGb3HZC+jzyg/TRmzvKs1x/jXxQIiARKGgEyvn5hSI9zWp36KnvphV05iJ9ytNxI/JFvvLIfx+tw+vQoQNonV+VKlVAlj5p1k74+aNzcUxGWcgoDLmCoNlCeqZt27bYtGkTduzYgYA7ATyzqM9PqHWyCo1G9vRENEtcnYyTsk6PjDwuSgRyIn3inaiO0SwerdsjP31E+v6o/zG8BnaD4W4Qkz52zGfT+dxzp4BrVVjUZH5U1xnh93NSz8X7uRSK99GHLj2Yx0j6/BgeVUqKVBlbwteJdcXMOLq+kUiPbopjLZSkTyBWdkIqP7R+j2b6BOlbec6HiaBY08dtU17rT9mBtMx8KUsivZwVFgkc5YpG+mbMmM4zfe+9+y48tnu4hJNDUtmfERGy35FXJAISgWKGQLlbfmFIT2f3ypmvVswqMalfkl+/s2fPsqD6vNHnTObq1auH+vXr804LlB8p/wgTvldffRVffPEFE70LFy7g1q1b2Yhe5se6dySg0YfupSBjSwTyEQGtIOpJX7bUOU4m6UsOuwNS79za4BPsHtgDxtC7yLBaeZbPkYRkS+sBFygr2tQsVRokOiZ57rNq35rlHbX8CjRwyJe/h15CI4CkGUFWFnMifQ6PZyN6+u+RpK9Af8limbggfcuJ9E3uhWozBvFMH6l86kmfQytdLL9FvlQBIyCEiZCxRPJcJn0KZsyYwUtcyE3V1q1bXeoXiSxFmO0Lc7yRLaa8IBGQCBQxAsWe9FGDSBuvu7Mq7DSd1uyRcRYigrTT+clTJ1mY0QzfgAED+BoZfKEOWX5uQr7pw/xMX6YlEXALAa0g2ht+rb5kSYPjSNKXBRN3TvSVXT/TJ0kfq97v3LnTHTRlXAcE7KTPVyN90wdipe8+XucnSZ8DWGX9VMii3JA+RWGiR/6QX375Zfw45UdERUU9EFGRpQizPZDjjWwx5QWJgESgiBEo9qRP4CPW3IlzEQqVzMSkRFSsWBG05o8MvjhTzxRxxbO5CYV804e5SUc+IxHIFwS0gihJX76g6TwRfWWXpA/kQoeMZJUrV06SPuclxq2retJXmWb6JOlzC78yFVnIogeQPoqm1yCgYxo4Dw8PBxnFe+yxx1Cndm0cPnT4gfCJLEWY7YEcb2SLKS9IBCQCRYxAiSF9ORE2cZ3MERPpK1++vCR9RVyoZPaFiIDW4ErSV4CYi06NwFozdUMdKeqwS/VOOdOXl9InSB+t6ROkb5Xvvmxr+qR6Z15QLiXPCllk53TO1Tspmn3TTkhOkRurocOG4tHHHkP1atWwf/9+e7ScDkSWIswWL8cb2WLKCxIBiUARI1BiSF9OOBHpo1nAhIQEVKhYQZK+nICS10snAlqDK0lfAf68olMjsJakT8705WNxY9JnMbCfvkqTe6Hq9IFYLUlfPiJcipISssgd0qd9vi0jAzFM+oYx6asmSV8pKhjyUyQCriFQ4kkfET6rzcoqRxUqSNLn2s8uY5UaBAQREYv55Zq+/P9pRUdLYC1JnyR9+VjKHElfdTLkIklfPiJcipISssgF0iei6sPY+HgMGToU5R99FNWqV5czfaWoaMhPkQi4gkCZIn0ECDWwedn0AlQc5yU9+axEIE8IaIVQzvTlCcX7PywqusBakj5J+u5fYty6S21SgpKOFed98NHUvvh05mCs8N2LOEs6aHaG1YhJoyWPbZdbLyUjF08EhCy6D+kj03Uimgip7FgzMpCQnIzpM2eiwssv49333sPq1atBBu/ut4k0RJgtbo43ssWUFyQCEoEiRqDMkb684i3kmz7Ma5ryeYlArhHQCqK7pO/C+G+kywZXQddXdmnIRRpycbXcuBiP1lolWNKw7dZpNFo0GjTTt+TMbiZ9is2GDBut25Kkz0U4S3c0IYvsxC77mr77kT6zouD8xQto0bIlnn7mGfTs1QvXr1+/L2YiSxFmi5zjjWwx5QWJgESgiBEod4ucsws/fVR5aStBlVhY9SSLcg9S79S+Lk+BgEYf5ilB+bBEIC8IaAXRZdJnNSMlLBBE+v6o/z94F6SfPm1GjGYy8jrDzhDpK504zgt2rj4r8hJYi++Rhlyk9U5Xy9B94ilWBYnmdJyODUS/HQtQZUpPTNyzBkFJ92DJIP+ZaptMgdwkAmLCVy0WWUmfalRKlbZaseHoNGNM5xRGRkWhX//+eKR8eTRp2hS+vr73BVWfDh1n20SEbDfkBYmARKC4IVDu5q1gpKSZitt7ufw+OVnvJDJYEJuQb/qwIPKRaUoEXEJAK4jukL7UsCCcGz8MW+p/DC8ifSHBmnN23YCPKOAuvURmJHqMNvVxlezlC+HLTFQkroZqdgX7X2ChheKr6CPpWFrvlNY781IAaU16ssWAS4lh+MZ7KV79vh1aLx2Po3euwKyRPlEE85KPfLb0IcCySKznzrDByrsqcanMiI37SSSXMzLYNx/5Mn6USF+TJm6TPn26nL4snAJmGUoEij0C5a7fDERianqxf9EHvWBSchIqvpzpskGSvgchJu+XCgS0FthV0me1WZAWHgzfcUOxqd5H8BrYnUkfrLoZBSIzGTQq7D6vEh0CEeYrxqJzoQ/zNYMcEtPnpxE97lZJ0idn+nIoMu5ctmZYkaIYcCUpHKP3rMCLo1qi/oKR2HvrHJM+7tjnz1y5O68l45YABO5H+vj1nQji6KgoDOjXH+UfeQRN80r69LKxBOBVJK+ox8jJ71Ek7yQzLbMIMOlLkKTP5QLgWH9lHXYZOhmxIBDQCqB7pO8uk76N9T60k74MRbHPoDHZI2e+kvSpv5hDpRedcDnTJ52z50eVFqTvWnIEvtuzAi+Naok6C4Zj901fmGyKOpssSV9+QF3q0sgN6YuKikL/fv1U0te0Kc6ePcszgDmB4yD+WIvDHld/035RHmRBQI8RHctNIlCECEjS5yb4jvVX1mE3AZTR8xcBrQBK0pe/sGZJzaHSS9IXL613ZikgeTsh9eA0qwnXkyPx/Z6VkvTlDc4y9XRuSF9cXBwmT5qEf77wAmp8+il27NiB9PT0HImfg/iTpM/dEuYIoLvPy/gSgXxEQJI+N8F0rL90LjeJQJEhoBVASfoK8BdwqPSS9EnSl5+lTZK+/ESzbKWVG9JnNptxYP9+1KtTF//33HMYM2YMIiIicgTOQfxJ0pcjUjnccAQwh2jyskSgMBCQpM9NlB3rL53LTSJQZAhoBVCSvgL8BRwqvSR9kvTlZ2mTpC8/0SxbaeWG9BFC5KahTavWePihh9C3b18EBQXlCJyD+JOkL0ekcrjhCGAO0eRliUBhICBJn5soO9ZfOpebRKDIENAKoCR9BfgLOFR6Sfok6cvP0iZJX36iWbbSyi3pu3HtOlq3asWkr0+fPrgTeCfHVaMO4k+SPneLmCOA7j4v40sE8hEBSfrcBNOx/tK53CQCRYaAVgAl6SvAX8Ch0kvSJ0lffpY2SfryE82ylVauSZ820/fIww+jT98+CAwMlKSvoIqOQ/tRUNnIdCUCriAgSZ8rKOniONZfrc+tiyEPJQKFiIBWACXpK0DMHSq9JH2S9OVnaXNG+uouHCGtd+YnyKU0rdySvjsBAejXty+efvpptGnThn31WSwWpyg5iD850+cUpftcdATwPlHlLYlAQSPApC8pNT1rRS7oXAsgfemnrwBAlUkWfwQk6Sv438ih0c4L6eOXdUiPha92jci7NUMBhXTdMWrBf2z2HNixc0YGW/ej4/h4Sfqyo5T7K1Se0m0W3EiJxvd7V6PC6Naou3AkvG75wqi5bFDLXO7zkE+WTgQeSPpy+Ozk5GSsWrkS77//Pl5/4w3Mnz8fcfFxPNsn5FvWMKsssierF1D2i/IgCwJ6jOhYbhKBIkSg3K2bQUhOTYeNqjt5ZAY5Zi55JVOSviIsRTLrIkdAzvQV4E/g0GhTZ0iwMTqmmRprhk2VoSQ/dTu9leN5lgv6m5SsJH0F+EMWz6SpDBlsCq6n3MP3+35HxdFtUWfhSOy85cvXufOdwS108fwA+VZFhoC9bFD50OSQkpEBm07u0MsJMaN/0dOnT6NBw4b405//jAEDByI0LJTlGPmN1O8k3zgfLR19GvaEKQO5OUdAgC9C57HkVYlAoSBQzu9WMFLTDLCRoNCN5hZK7vmYiSR9+QimTKrEISBJXwH+ZKKxdhJSZ0iSvp0FCH7ZSNpos+JmagzG7FuLl0e3Q+2FI+F50xfpYqZPkr6yURDc/Mr8IH3l/vQn9B84ECGhoVA0wqfYFIidCCDlk21zlIfZIsgLjIAT6CQyEoGiQoBJX1qqJH2u/gCOck7WZ1eRk/EKEgFJ+goQXWeVXrsmSV8l7NwpSV9eS58pw4bbqbEYv3cdXv1WJX07bknSl1dcS/vzuSF9QpNLnelrAEn6CriUyE5iAQMsk3cHAUn63EFLpyah7we6mYSMLhHIdwQk6ct3SDMT1Fd2h2NJ+iTpyywouT+yZNgQmBqHafs34Y3vO6L2ghHYcessUq2WLOuscp+DfLI0IuAq6aNvF9zDKekbMAB3Q0OgZNi0PVPFU6h3Cvw4T0qNlgE5yEMRR4Y6BATwukvyUCJQVAhI0ucm8o4yTtZnNwGU0QsEAUn6CgRWNVFnlV67JkmfJH35UfJoHVaUMQUbrxxD/QXf4tO5Q7HmwgHEmFK5E54fecg0Sh8CuSF9gv1dunwJbdu1RflHy+Orzl/hxq2boHJIAxAU0m6lJT9ZCKMNtgwr79Tm2G/qI5U+mPP2RYSN3CQCxQQBSfrc/CGEbNOHbiYho0sE8h0BSfryHdLMBPWV3eHYHdInjCtkJqwd6dKk31Fa78yGUKm/QJ3rVKsZl+LuYtDORXj3x54Yu2slrsWHw2Sz2r+fiorcJAICAWekz5GoUVydiBGPIvpeNH76eRpeffUVVP6gMnbs3AGLldbyaaQPAJU88SzN+Ck2C++ZMsphts+eujywIyArrR0KeVD0CEjS5+ZvIASgPnQzCRldIpDvCEjSl++QZiaor+wOx5L0yZm+zIKSuyMqUtRRJ/cMtxIj8I3Xb3jlh3bounIqToT5wWAjQxpq5zt3OcinSisC9yN9/M1UcHTETZQjes5stcBjhwc+/PhD/PVvf8XcBXNgshhhtSmw2mg2z8Zh5rECi80Ms9UEs83CFj4pHXvh1PJSc5T/7QhIXOxQyIOiR0CSPjd/g0yhmSnr3ExCRpcI5DsCkvTlO6SZCTqr9No1Sfok6cssKLk7oqJElrPNGTb4JUZihPdSvDKmPdovm4S9dy4h0WSA2aLAYlGgWBTYbDRnLDeJAPVByNWW6q5B1RIgTQGmYio8djml9leEtgE5YbBYLdjpuR3/+/gjPPe3p7FozkyYUxKhpKfCkpZs3xVDGqxGA6xmI6yKWZvtozV/lK8kfQ8sh/QbyE0iUEwQYNInXTa4/mtoMlQObrkOmYxZCAjYG34umQ4ZcqEl1wJWWG0WpIXfhe+4odhY70N4DewOY0gwMhTFPopho3Y8g2Yf1EsOqd33VLRvIrxvZHdvFlXlc5avdk2SPkn63C3GjvEVqxXpRiMS01JxKTIQX+9YjFfGdkStqYMxctksLFm/BuvXb8CG9RvgtcsL/rf9kZqairS0NBiNRiaBwjiHCB3zkOelEwFH0kezc8KrHt/jmTiVBAoxpnZeMpBhsWCfxzZ89tEHeP7JxzBlUH/c3uONuz67Ebx3J4L2eHIY7LMbQUcOIOH2TSiJCbCmpiLDaAKsNhqtsLcbzpqe0om6m19FwMtNIlBMECjn53cXqWmmLD76SmLDkZiUiIovV0T58uUxceLEAhsNFYJTHxaT31K+RhlG4MGkj9rmDNhsCtLD7uL8uGHYVO8D7OrfFYbgQDvpo7ovfHay3043MRXtmwjdfPz+0fWVThzf/4n8uSvychIypppTZOE+Wx+NXkCci1H2bC8lIjDZlmv6suFTCi9QPbNYLEhOTsa169ewbsMGzFm8ED/Mm44GUwbj1e86okK3L/B4pX/hby89jxdffBEv/fNFVKlcGYMHD8b8+fOxYMECeHl5ITIykskfwUSzgHImsBQWmPt8EpM7bbaPVTJ1M390zpTPLmNUsqckJyE9+A62z5mOem+9jlce+Qs6VXkXyzu0hGenVvDu2Ay7OnwJ745N4dmxKXb0aIuz08fjzubVCNq+CbFnjsMYHgprSgpsZjNsigUZVoVVQvl91DlIdfTwPu9eJm4J7MvEx8qPLO4IlPPzC4UhnQRDydqo0dTviYmJePnll/Hoo48y6aN7BbGJ+qsPCyIfmaZEwCUEtGKeI+nTFVQmKDYrDGEhuDRuGLbUrQzPvh2RHuTPpI/SoE4Cme0m1R0KucPg0ouokbTXKRh5ovsWO5Ny491yHdVZvto1xtRF0ieSuR849BvQbCyFFE88I8Jcf0MeHtTLWTqOj4/HtGnTUK5cOVSqJGf63IVWURQkJCTg0qVLWL16Nbp164bX/vUaHv/rU3jon8/iiYZV8Pqor/Bq9y/x10qv4+8V/omXXnoRFStWwEsvvohnn30WTz75JJ566ilUq1YNEyZMwK5du5j8paenqyp37r6UjF+yEWCVzgye5SNn6jS4x0ZX6JikiM3GMt6SnIi0kDsI3bcTF2dPxtJ2DdG84nP4b/m/oN7fn8aUGpWxrU19eLWrD6+29eDdth72tquPPW3qwbtlbXi3qI3drerjxLDeuPbrLEQe24+00EAYk2JhMaVpeaptB7UlPBNYspHN+9sL4S3CvKcoU5AI5BqBcn5+YTCm5/r5IntQdERoVJOOs5C+SRMLrOET9VYfFhkIMmOJABVEmk0So7uOjMKhoGbYbDCGheAykb46leDZtz1SA/3spI8W7VsyrFC0XZI+3VSdHkvtONekT/vdHAuwIH2kiisYnz5bx/iFcS5krQgl6XMfdSonXFZsNoSFhTHZ69KlC9555x08/PDDePrpp/HqG/9CxfffRMWWtfDe991Rf9IQ9J0+FpNm/YRZs3/B7NmzMGbsGDRu3BhvvvkmKlSogMefeBxPPvUkqlatikmTJuHo0aMg4ie3MoaAJk+EPLKTPjLKYlVgNRlgjI5AxKE9uLZgOg717wyPJjWxrllNDP3wLbzz1KN446FymNzmS1xZvRB+m5fj1ubl8Nu0DP4bl+L2qnk4PfZrHOjVFvu/aoodTWthW7NaODysJ64tnYPI04dhSIiGopDWGKmY6uRmGfspsn2uXoDnIPezPSMvSAQKCAEmfemGAkq9AJMVHRBJ+goQZJl08UdANPYukD7udtqsMIbqSV+HLKRPkaQv+2/u2GjrzkUni2ZGxbyo7janpT+nY0Hmsmekknea6ZOkzxk6JfcatVfUVoWHh2Px4sX48MMP8ac//YnJ3nvvvYeuXbtiweJFmLlsEbr+MhY1xvfH4FWzceLuDaRZjapvNJsVCQnxOHb8GJPGcePGoV69ekz+KK2///3v6NSpE7Zv346goCCYzeYCG/wsub9EKX1zFiwkWkg9X/WlR24VrFYLG2AxRIbgzs4NOPhNT/zRuAZ2Na2FIz3b4MyE4ZjeqRX++4/n8OxDf8ascd8hLSEaFosBimLk0GxOgyHpHiIvnkCg1x/wW/MbzkwYgQPdWsCzUTV4NvkMZ8Z/g6ij+2CKuwebxcwzi/eTc6X0V3D+WdkaAOfR5FWJQGEgUGpIH6nLVKyYuaaPGtmC2Bzrb8HkUhBvLtMslQhoBdCVmT7uEFgVlfSNVWf6dvbtaCd91Fkg0memWT4bzfa5r/Yt6oMI8xVzStRxz9cMckjMMU/duehkSdKXA3byMiNA7dOZM2cwffp0VK5cmcnef/7zH3Tu3BkrVqzA1atXYTAaEG9IwaYLhzFg9SzM3rMZ16KDYbAaoVjNdofYgkDSWr69e/dizJgxqF69Ol566SU899xzrPI5+rvR8PX1hcFQAkd0ZZlxCwGSQSwXWTzSmWrRk0mfYoYpJhoh3h44MIRm96phf/dW8J00CkFbViH2/DGsmPEjKr3xBp55/HFMnzwJaSlJahraW9AAlMVqhMmcCrMhGca4KCRdPY/AtUtw4YehOPJVU+xtVRe+Y4YiZOcfSAq4CSU1GaRVor1NttCtDyzpkXXthfidSvonyfcvuQiUCtJHI6jUqFaoWIENudAaB0n6Sm6hlG/uBgLUoFBjn9NMn+gIaPdtRPpoTd/YYdhcl9Q7VdJHC/HJcItCBiY0Yy50rCXv8guJ+CJ0+UFXIlKijrsrz+U1jmOeunNCiMiyJH15Bbn0Pc/kjOtdBhM+Uud87bXX8Ne//hW1a9fGb7/9hmvXriElJYXbKypH6YoJtxIicDj0Ji7F3MU9QxLMNjOv0bJ3oMV6dvK1ZjYjNDQU+/fvx7fffotXX30Vf/nLX/DCCy+gd+/eOHv2LKzWTOfupQ/lsv1FQv4ISS1EE6FiI62OuGiEem/HkeH94NnsMxzv1xFhW9ch5cZlGKLDYEyLx6GD+zB65Lfo370nvLdtg8mQbid9lB5t1L4Q+aOdj60WGKPCkXLtEoLXLMH+7q3h2aIe9vVuj5trFiElNACKos40q/KRXDxobh7cblW0lyipgfhRRFhSv0O+d6lAoMSRPmpIY2NjERgYaG8oqVGjdSYvVXgJjzzyCC9sJyJIG8V/0O7OLynqrT5053kZVyKQrwhQQdQaZSZ+ThpUus6jvhkKiPQZQkNwfuxQbKj7Pnb0U9U72f8SEz5AYb9hubPGrb2Ok7fIh6/WVzpxnA/JPjAJkZeTUHS6JOl7IIplLgK1OxbFwmv4ZsyYwYSMDLDUrFkTa9etZbcLYnkCxaXOMflOS1MMSFEMSLeaYGJVX6E4rEKob8/oeWr/yDiMn58fG9ih9GmNIKl7Dho0CDdu3Chz2JeFDyZxRCWD/PLpSwiLKauVVS1Dd2/DocHdsKN5bfj0a4+ALathiopgdw080KdYYDQYkJSQhISYOBhSUpFhpdTE+Jo61EB4KhYLUlOSkRAfh/jYWKQmJsJiMiA9NBA3Vv2Kfb06YOuXn+LQ8O4IP7gLlvg4XitOzt7JqIzaBqlO3wVJLQu/kw5M+4xsmfhu+ZHFEoESRfq4g2Wz4c6dOzhx4oRqnpo6tIL0vaSSvvHjx9tHN/UNZE7H7vwymcJQCEV3npZxJQL5jAAVSBdInxilFTN9F8cOwaY672Jnn7ZIuXNDdbxrVWChRf828ucnGmeA5glydDfg8Dna60jSp3Wa+Lexd6C0Nl8IEQfsxO8o1/Q5AaYEXqI6RGv4yLUCrdt74oknUKdOHaxfvx7aHFdHAAAgAElEQVTR0dFq+6VzsaC2b6RarXaQiQTS7rg5tmOCOJILCBoQXbduHauQPvTQQ0w058yZI9U8HUEsJeckSgThY9lLg9xWKxOuiN2eODq0Fzya18KBQZ0RtH0d0iPuIsNEa+6ADEcfe/eRSzarFaF3g7Fl0wb8NPVHTJ0yBRvXb0DQnTswpSYj/e4dBKxdhr09W2NHs5o4NWogog/58HtYFROXaYvNAtrFbGEp+Qke/BkCVxE++AkZQyJQYAiULNKXkcFkjhpSGr2kxk6MdPJMnyR9BVZQZMLFFAFu6e+v3slvTqPBVgWKxQjD3UBc+mEAtn72JnZ3aYx7R3YjLeAW0oMDuPGmjoE5JYGJIKkIUbeTiJ9os7QsnQIi7onQaaTcXtS/gDjObVruPCfychJyR12qd7qDZpmJS2qbW7ZsYcua5F6hRo0aTPhMJhO3Y0TeBGEToFB5ymnG3h5He45m98jPH6l30kBoSEiI3RXE0KFD8corr7AqaYcOHXDx4kW7xotIR4alAwG9WCLXDNbUFEQfP4wz3w6GV/M6ODSgC4I9NsAQGcozfCzQmfSRCqi6HpDSSElNRWh4OALu3MHtgAAEBQcjJjYGRpMRSUmJ+GPzRrRu0Qzvv/cu3nrrbdSt2xCz58zHLT8/GNJSkBbsjxsrFuBgt1bwblIbZ8eNQNwlXyjGNF6TKkgfzfhRGS8zm/4HomO5SQSKEAEmfSXFZYNoJKlxu3z5stqIkXqDTVPvlKSvCIuSzLpIENAaEe4osuEV9QJ1HmnjTiQNjljMMCTEINbvKmKP78f5b7pgZ43XcbDxx7g2sg9u/DgafjPG49bMibj16y+IProbidfPw0CqQDp1nwfN+Ik2TYT5igkl6rjnawY5JOaYp+5ckj7pp89ZqSHtEzLO0rNnTzauUr9+ffy+9ndehiBm6pw95wrpo+co/YiICGzbtg2jR49G//79Ody0aRMCAgKY5I0aNYpn+v71r39h7ty5SEpKykYynb2DvFbCEBD+PGmWz2LhQb3Ls6Zif/N6ONm5BYLWLoUxIlR1y2PLUGf4tJDU0hWrFeGRUfDY4Ynxkyah74AB6NG7N4aPHIkVK1ey2nBUVCR+X70KU6dMwpLffsXMmbPQtl1H1GvQCEtWrUJMUgIPKBLx81s0EwfaNsKeNg3g9/sSGGMiVSugVprxIwfu6rrAEoZy7l9X114UjApM7l9NPln2ECh3+3Y4TCXIwJdoMCmkjUJH0jdlyhRe4yBmAamB1D/neOzOz+5Yf9W3cCcFGVcikP8I6EkfHdOieb5Ghlvi7iHm/Enc2bEex38chQvfDcSJ9nVxoOZbOF7rPRz6rBJ21XoPXvUrw6NeJXh8+T8cH9gW5ycMgd+qxYi/5Asy+a1YqNG2Zmm3qPzrx2xFfRBhvn4pJeq452sGOSTmmKfu3F3SxzmI551kx7+dzmWDiCpCJ48U+CVHeSn99OUMOWFF7Q4RrJUrV+Lf//4376RiGRcXx+2Qs6epHIE67WKmL8MGk9GIu3fvshXO48eP85KGK5evIOZeDKtrHj92HAP6D0CD+g1Q67NaqFa1Gpo2aYrVq1YjJiYGV65cQafOnfDM355Bx44dce7cOfsMo7N3kNdKJgJ22UB9IWM6og7txYlB3eHTrB4uTxyFhCvnYFPI+qsNFnLJQ9obrCVlhVkx4W5ICH77bRlatGiNWrXr8P5ZrdqoV78BevfuAx8fH57pCwsNQXRkBCwmE+Li4rHkt2WoWbMWJk6ZgsiYaG5zFJMBMWeO4eTIgdjVrBaOj+qPqHPH2eqnmdxAMOkTCqklE+9cvbX4kSiUm0SgCBEo5+8fAaOxCN/Axay5UXQSl4mdbqavfPnymDp1KkiFRr+rQk515O7YiaFzVzd93RXHrj4r40kECgIBqhvCUAt3HKlxV0wwJccj7so5+G9ZjaMjemFP1ybY9MX/sKPBB9hXpzIO1q6CQ40/w7lBPXByeB8cGtkTewa1w7YW1Xm93/b6H8CzdR0cH94T136dgbDTh2C4F85rRigf7qfSAn/dR3FN0lcnUUlEqIvr9qFIQx+6nUguHtDn53BM2FNnylVDLpy7SINOxLEWqoRdU38SI/i6aLl4+zw/4igvJenLGVJqZ6jduXTpEshaJ1nqbN26NU6ePMmEy9mTXIaoM0w7rau1mEEzKz779mHs2LFo1qwZ6tWth4YNGqJXr97YunUbYmJicf78BaxYsRLe3rtxYP8BzJo1Gw0bfo6BAwfi9u3bbBV0+fLlINcQ5Mx93rx59plGZ+8hr5U8BEhsCO0LUsVPvOuPs/OmwattIxz7uhdCDnjBkpzIVrnovqKt2bZZbbAqFkTHRmLlqlVo0aw12rXpiAXzF2HvXh8cOnwE23d4Yt369bh08SJMJqM6iEiDfjYbUlNSsXrVGjRv3hILFy1GfEI83yfjMJaEOATu2AKfvh2xrV19XFwxGylRwez3jwboyfAMvbfcJAISgcJHgEmfyaj2PezZi46I/ULhHjiSMEHs6C3EPRIb1LjSugla1xAWFsZmqsl6Z7t27bBx40beN23ehA0bNuDQoUMcNzU1FalpqWxVjdKitEWarnylgEYfuvKcjCMRyG8EqA4QSSB1GcVmBhkAoXMoVlgS4xF1dC9O/DAIuzt+AY8vq8Oj2WfY17stTnw3ED6dm2Nbs3rw6t8VcUf2IfHqOSTcuoDos4dwc9V8nJowkq2+bWtaAzu+rAbP1nXhM7Q77nisY6twVosJGTarnfjRt4k6kXmgu2i/mQcURBr6MA/JufyoPj+HY+6w55b0OaRFuEnS5/KvUiwjUltCvvHWrl0LUqt84403MH/+fG57cnphrsM2MqBkYTP39+5FYf3a39GqVUt27dC0aVNu09q2aYv27Ttg9uw5CAkJRXpaOhITEqEoVlgVKy5fvIz+/fqjR/cevPyBDLtcv3Ed3bt3ZyMybdq0wYWLF9xq73J6Z3m9eCBAIoRJXwagGNPht3c7PPt1xK6W9eC3bB6M90g9X5PTbOlVNdRFKvsmkwEnTx9Dt27d0LJZW2zdvB1xMfGwWMipO903c7k1Goys4q8O9GXAbDLj0sVL+P77H/DN8JE4fuIUjEaTOlNN/SlSMQ0NxoW507C1dR0cHtkL0eePM+kj369ifXjxQFC+hUSgbCFQLEkfjUZRw0mkjhYRk3omXaONGlW6TuTt4MGDvFaB1iuQSewXX3wRDz/8MP75z3/i5ZdfZmft5BeJfBfVqlWLRzpptHPRokWs+pKUnOS2uouTflrZKjHya4sNAoL00SwfkT6LzcTrKixxMYg9dgCnRvVnZ7x7mtfGsb6dcWnezwj29kD8zYu49cdanPp1Ls5v/h3G2ChYzOnqs4Y0mONiYAwJRuyZ47gw/yecGtkX3i3rYkfTmtg/sDMCtm9EOql7mg086iuGbUXdkKRPR4AdeC8XHgGUk1CSvmJTvXL9IomJifjll1/wt7/9DVWqVOF1d/dLTJA+mukzGtNx/OgRdOn0FerVq4vZs2axeie5KLp54yaOHz2O06fPIC42LkuSJqMJR48eQ7++/fDtyG95po/azaioKIwbPw5kSIZcOVCbSQOdcisdCAgRQjLXnBiHy7//iu0dG2FXq7q4vWEFLOkpTMZ4QMmB9FFZ275zKz7//HMMHzIKwQEhzOuEPM+CEGt2kGVQG0KC72LevPkYNuwbeHl5Iykp2W4Qhp+1ZkBJTsKV9cuxvf3nONy7LSIOeEExpLJWhJiZzJK+PJEISAQKBYFiSfpo9u706dO8IP3mzZtMzEgtgEYuaUbP19cX+/btQ69evVh9RvgkIutoRPyqVavGlsvIehntRPxeeukl9l30zDPP8MJ6WmA/c+ZMUPpk5trVTQhZfejqszKeRCC/EBCEjzuM2kyf2ZKOtNgwRBzcibOjBmBH42rY16kxbs35CdF7vGGOjoQ5NQkmUwrMqYlsodOSlswqZZQeOWOnnZy0w0brQwy8li/m9BFcXfAzTn3dHd4t6mBPz3YI3LaOrcHZzDTCq36VqBN8rl2zH9tv5gEBkYY+zENyLj+qz8/hWM70SUMu+nJEROv8+fNo3749+8mjtXS0tu5+2iR60hcbew8L5s9F3Tq1MW3aVISEhnC7R8/TTjMwNoW0UzJHE4jE0dq/2bNmo1vXbli3dh1b8aT4pAVDmi4ffvgh3vj3G1iwcMF9Zx313yKPSwgCXBYykOh/A2d+/gGerWphd8dG8PdYB8WQxuWGygK7ANHc8RB5s1hM8NrticaNG+OHUeMQfjcq6wJth88nldDQuyFYtXIVxo0bDw+P7by2TxRFvayntiPk+AEcGdINh9p/Af/lC2EIDyVzoaK5cEhdnkoEJAKFgUCxJH00i3fkyBG2GnX5imqlkxo2Mjs9YsQIDBkyhHcaRSUyR+sVaN0CkT4ieKNGj7LPAJJqzazZszD6u9H473//y3GJJD766KNMGHv06MEzgGQJzZVNCDh96MpzMo5EID8RoI6iflcUEwwJ0Qg9uAOHh3fH9i/+B58uTXBr5XwYQoNgMxp5Mb/FaoTFkg6LYsxUB9X6j6R2YyFrbpoVUJp5oIX5NEJriA5DlM9OnBkxAB7N62Fv7/YI2LSarcIRQaRd1An+TnHiGOYFBMe06LwwNmf5atck6ZOkT18EzWYzq3ZWqFCBNU5+/vlnO2nTx9MfC9JH6p3hYSGYOGEcvmj0ObZv97BrujDp09aPUudb+Fgjkkk+/7Zu3Yrhw4ezKmlQUJBdg4Weu3btGjp16gRa+kCqnuTyiK7LrRQgYJdNGYg4fgA+AzrCo1l1nJ44DLFXfUFq+Ez2tLLDZY3kuy0DisWMvft2o/EXjTGg32D43fDPQvq4zNl9+WUgMiICvy1ejK+HfI2tf2xFfHyCWNptB1K8Dq1NTYu8iyvTx8GrcQ2cHj0ECZfOswVRyfrscMkDiUChI1AsSZ9AgYgeNWrkg+jYsWMggkaGWipWrIgmTZqgbt26mDx5MtasWQOyjkazeKTeOWbMGG5oyY+RSCM8Ihxrfl+DpUuXcgNYqVIlkPPav/zlL7z2ghpnmkEk1Zz7bUKo6cP7xZf3JAIFgQCRDaZZtA7MZoMxMRaRR/bg2Le9sPnzD+DTtSmurJyN5DB/ntlTrCYQ4TMr6RyK9X/6ckwL7Inw8boLjVTSDHuGVQHN6Jnj4xDpsxf7h/bGxsbVsKd7SwT/sQ6m2Gj7CC6lRxuH+sTFsXY/V4FIQx/mKiE3H9Ln53DsDunLUa1JlyZ1yux+rKQhFzd/qKKPTqSP2qMXXngBzz//PKhd4c6zNlPnjGzZSZ/VgsiIUEyZPBFNvmwML69dsCpk1Eed5WODQWSIg+oj188MREVHse+/777/DqvXrEZgUCBMZpP9GXqWfNp27tIZDz38ELd9NCtI7aKzdyl6BOUbuIsAtwQZNkQf248D/dpje6tauLlpKYwpcaDBQJL1ZMRFrMkTIZWjC+fPoXu37mjU4AssW7ICAQF3eK0okUKL2cKqm2mpaUhNScF2Dw907tQJP//0M8JCwzgZbbyPBT6JMVXGqYbFyFXDlV8mYdcX1XFmZH/EXTjNA4/ufp+MLxGQCOQfAsWS9IlGjtbukfrl8BHD0aBBA56Zo3USderUYZ9EBw4cYNVMasDu3bvHs3xPPPEEJkyYYCd9RBr15M9oNOLM2TNYt24dyHcSzRYSUaQZwubNm7OZbWFa21mjqOufZZ3ZyL/fRKYkEXANAa0wZpjNiLt2AUe/GwiPL6viUJcvcXvNIsQHX4PRkgKzQqayzRDET7GamVhwx1HM8pHqmI70qUa1VRJIBltocT4RPyU2FhH7PHH4627Y/kU1HB3QBVGHdrMjd42G8rvTq9kriL7SuPZlzmPp0xHHzmPm71WRl5NQkj4506cvbM5InyBoItTHp2M76bNZEHMvEr/MnI4G9eth6dIl7OaBCZrmj1ZRLDArZlCYkpoCb28v9OnTG1OnTUVQUCBb/qT4gtQ5kr6vvvoKwcHBfJ/iyK3kIyBIX9QxH+zv1w7b29TGzc3LYUom0kc2EcxM+qicEVMT8Uk7Iyb6HlauWInGX3yJunXqYdSo0di0aTMOHTyEvXv3sQrnxQsXce3qVYwYPhx1atfGpImTsGfPXhw+fASHDx/FnTtBMJstdnFP5ZwGrmit+NVZk7GzUTWcGt4HsedP8sxjyUdcfoFEoOQiUOxInyBa1CAR4SOns3//x99ZNYUIH6l2njhxAnoVFoqbkJDA6i09unfHli1boFgs9lFSIn5io/RpJJRUSMmMNq1/qF27Ns8gkspn5cqV8euvv+a47sFJv08kLUOJQOEhoCuI1sQkBGxaiQ1Nq2N7o49xbtxQJIfchtGUxMZd2J0DWQZk4qda+aSRXyJ2RPQcd7ouSB+7ImALoTb2h0m++tKjQ+G3ZhE2N6qK3c1q4uIvE5EeQbMHWj3jGSp6QSfELy8I6b7Z3sPIS3quPussX+2aJH2S9OmLURbS94I60yfIngj18emYyxBZ77RakJqShC2bN/KavlYtW4CsT0dGRrLGCxkzS0pKRNS9KMTGx+Ls2TP49tuRGD78G5w75wuj0cB1kPIRhM4Z6QsKDpKkz/FHKMHngsRFH/WBT9+28GhdG36bXCN9FqMZIXdDmPi1b9ce1apVR9VPqqJ2rdpo0KAh+vbtB69dXtjt5Y1mTZviheefx9tvvc3xatb4jP30LVz4KxITk+wiWWgrkAYIkT7PRlWZ9MWcPyFJXwkuZ/LVSwcCTPqMRhIbuk10cnSXCvOQGioifEOHDrXP7jVq1Ij9DxHZI8ueRNqIzJH6GW3U2NJsX3hYGBNAUoshM9Y2q7qrglFVk6H0xU7+Zvbs3oOuXbvi/fffx5NPPom3336bZwJ5xo+aZN36BwGNPixMbGReEgFGQBRAixXpAf7wHdUfmxt8AJ/uLXDHYz2MaQk8wydGdgXxY1Uf4bhdVRDlui+In0iWQtrUUVtV5ZPW+7Fz3/QURJw9gv3f9IT3F//D/l5tEHPMh2f7tMdU1xF0ok9QJCoiuRs6ppXX9FzN31m+2jXusLvoskGqd7oKeMmNR8bG7OqdGukTbY0IHb+OyxAZ2LCqLhv8bt3Ad6NH4aOPPkSTpk3w008/sTGWDRs3YPnK5fDw2Ibz589hzpzZqF69Grr36IbVq1dh06aN2Lx5E44eO8ptIOVDeerVO+VMnyP6Jf9c7dvYEHXUB/uJ9LF65zLdTJ/myof6MWJAjvpA9vV6QFJSEo4fO47pP09Hr5690KlTZ/TvPwBLlizFrZu3cPbMGUyZNAmdvvoK7dq2Q7t27dG+XQe0a98Ra9asYzVQISbJhRC1M/qZvtPD+yLu/Cmp3lnyi5v8ghKOQDl//3AYDFaV9IlOFAsHcVL4X0gWx2iGjwyukOolLUInIy60AJ0aVT8/P7uzWzGiSW8phB91dGkhMS14p/s8q8FWqxRYrBa2TshEjgSgLQNpKam4G3yXF+B/8MEHPOtHap/Lli3j5wWxVPPI335s4aMrcyw1CNgyYI6PR8DW9djf/gt4NKmBcz+NgzE6HGZDMkiNU5AuMfpKDTId084zArpZPKtmWU003mp5V2f9aObPbLUiJS0NaUmJiA8JwK1Ny+HZsjb7hLq6YDoMUWFqHeTOpjpXyAs/NHlC9TNPm3gxfZinBF18WJ+fwzF32B9A+igXekySPhfxLsHRqH1av349uwx6/oXnec05LSngMqAbPHT8RFEnSZXakJ6Gy5cvYfbsWWjbpg3+97//8YBklQ+qoGnTJli8eBFOnDiOCRPG41//eg0vv/Iy3nr7Lfz3v2/z3rdvXx40FXlevXoVHTp0wKOPPYpevXuxBeycCKjje8nz4o+A6PdEHT+A/f07YBuRvo2ZpE/1p6oSPtEe6EMqC9RPosH0+Ph4hIeF85q9qMgoJCcl89o+WtdHqqARYeEIDQm17+QvMl7zFSlEI/uNtZqQfi8Ml2aMx47Pq+L0qEFIuHQO5LxdbhIBiUDRIVDOPyAcaelmTQaw+LB3CovitajRpJHK//u//8Of/vQndsHg4eHBr0LCiWb3zp07h/Xr1vEsHpM3bUSTyR11akl1TbGwbz8ezSLLgry2zwSj1aiapNf3wkgesjNSE5YsWcJW18jSGa0dJKJJajX2fLQOnBBwFMpNIlDoCFDBsyhIDvLHobGDsLX+h/Do3BR39uyAVTHDophUdUsazeUySzPWmsVPnr1WnbrzDGAGOexVjR6RuwaF/WLSzIOVOwNU9skhLw22rPt9LebMnIE5P03Bou++xpJWDfF7g+rY3bcTO3jnPLg+qunb89TyzhNO+konjvOUoIsPi7ychO6QPvG4vcMlshc3SA5JQy4ClRIZ0vrxU6dOoWXLluyygWbWiHQ9cOMywAWAB2OozYmJiQGtW/9l1i8YO3YsJk6aiNWrVzOhI/975LZo4sSJvL599OjR9nDlypUga9RUb9PS0rB582bQYObrr7/OlqppUFW0Zw98LxmheCOglRsiWrHnTuLQ8N74o1VtXF06i61nKhYDyxSWOVo/yS5/6FnRNmjDdSTPHDcqK/fbqc3g19DSoH4Y+X1NCriGcxOHw7NJTZz78Qck+91Q+2yOGZT2cxUc+wBsaf9c+X3FG4Fyt/3DkJZuyqy0omNIi34LeSPBQusXyMfRY489hmeffRaDBg1i653iVShOQEAADh04CFhtpH+m3iJip83qkZqMTTGr6mZmC2C2AhZS87Rw59Yu9MTQu1YpKW1qaJs2bcr5k48/MdtH92hzrL9a7uL1ZCgRKBwEaHQ2PZ1VZk4M6YztDT7ErkFdkBZ6h8me2WpR64ZWQNVyKxpnKseqhTWF1/pZYLGakZySjMCgIFy6fBkXLl5k/2LkF5NUp6leLFu6FF82/hLVq1XDxx9URs1330S3Km9hZs0P4dG1FcIPeLFvP1Yp1ciLfmZRJYR5qDHqR2SthIWBtrN8tWuEo1CB1eY2s8gI8Xr6JOwRnNyUpE+AUjJDaifIz+zChQt54PKdd95h1UzRfrj6VaqGig0WxYJ0QzrS09NBM4Z0br9nsfA1ui52Mn5GA6cUh/Ik8jdy5EheE09r148ePSoJn6s/QkmIx4JFHdBLDwnEpTk/Ykfb+jj0TQ+EHdsHqzGdjbewzHFC+kh+ZRmYExF1307l6EE7RRdpkZYV+X8N3rsdR/p1xKHOTRGwYQWMsdFqOrq0y8ShXvjTsdwkAkWIAJO+1HSj1g/JKgAK672EQKFR0p07d7IrhX/84x8gNRVaj0CbXhUtIjKCrUnBKlQWVD9h7CuM1DgtJjZhH3P7BiIvnEfclatICQyENTWViaG900WkT+xaxaTGc9u2bahVqxYTP7LoSSauxeZYf2UdFsjIsDARoAEOc+w9hG9ajeOt62Fv889wevp4XkehEgdhqS0rR8osvxrps5phMhsQGHwHv69bi2+GD0fHTp3QvkMH9OzVk/1+BQYG8mDMH1u2YO7s2di8cSOWLFyILq1b4pOXX8SwD97Fyhb1cfyXH2GKCAfVS0FeJOlTS0Um7rqRI1FgdDcFbhSSnNLd4mPxSGGGQj6LkFTApk2bhnLlyoFc35DMlpuKAGFExIvakPfeew80cEhYxcbG5htEauda7Yg7S5TegUgfvceZM2fQrl07XiZRr149XhZBz8ut5CPAv6NQnSdXO2mpCNyyFt4dvsDWZjVwff0SWFKTsg7+aQROCBZB1Eje8J5D2RB1P6fQjialb1VgTorHxZWLsLN1PZzq1wHRx31Un4FMDe2xy8ZBcRDiZQNp+ZUuIFAsSB+9JwkT0inv3bs3+84j0kXqZLTRmjpSd1FoobuVTM+bedYOihVQbNqewbN51BlW0tMQcPIods+dAc8fRmH/hDE4MX82Qk4dh5KWogpBQfZEKCqmZhTm999/x5NPPcmuHGi2T2wimj4U92QoESgsBKiBNkaG4c6cH3GkwUc41qct4k4d4hFWe+NtV7vJTh6osSfn6yZTOvxu38SP035Enbp1Uat2LTRt1gwtWrTAl19+yb4xDx48iLTUVMTFxiIxPh4ZihXJsXHYuGoV6lapgj6V3sWChtWxdXBvmAICAHYJpap3StKnlogs8kKciMIizqV6p0CkxIbUjpFa9I2bN9CzZ0889dRTXJdOnjrp9jdRWrTl1NEW1x0TFteJnM+bN4/X/D373LPo168fa8k4xpfnJROBTNKnlhGryYTI44dw/Ju+8Gr+Ga7Mmoi04ABeBkBcTpX5tKY7czTJVdLnCkKqGMvgpTVJ/jfh+/ME7G7TAL5jhyDuylledsD5aeNerqRZKuLo5HsOnLpUfKb8iJKBQLEgfTQqSSpk3t7e+M9//sMNJfnao40EFKm0mBQTLAo5lzbAmBqPtLt3EHnBF7cPH0DA0UMIOHEUsTdvwJqSAktiIk5v3YTtk8di74/jsH/id9g2qBe8Jo9FzNVLsJnNWYmfqJS6BjYkJASNGzcGuXFo06YNu4jgxlQTWOIRCuUmEShsBIjYkeGUgDmTcajBBzg8rAdSwwOhGNMyR2y1TiO9m7680jGpIpJq572YCMyZ+ws+/PgjtO/YEevWr8flK1d43RCpgtF6IPLRpBpk0b7SakNyXBy2r9+IljU+w7i6NbG8YTXsGtwLxtu3eRCGyF42wkejyXlp9Rw/orAqn7N8tWvckXLRkItIxv5jiEIjbkjSJxAp8SGpeNL6O2rP/v3vf2POnDlsXZraOlc37pzr2iShssnt0ANU7khj5fTp07xU4uGHH+Y1fRs2bODZP1fzl/FKAALaTB/JFFKrJIfoN9f8in3tG+JIt+YI3LiCBwfZzyrZOhA7G/BSKZjjf7e+Wie76DkedE9LQZDHRhzo2Rb7uraA/5ZVMMSR2xHy5XVBrPoAACAASURBVEd/anvkVj4lObL4YBGW5G+R717iESg2pI/WLJAqZflHy+Oll17ixe/UuNEsn8lihtlihNmcBmNKHKJ8T+DykgXwGTMSv/fvig2DumPd171xZMEvSL5+FUpqCiKuXkbU2RNIDbiJxKvncXnhTKzu2w3XPD1gTU9j4UQCSuysGqqpxVC+pBpDHV5aW/jCCy/gj61/qCOuTjrQJb4UyA8ocQgQ6UuPCkXA3Mk4WK8yDgzthtTQACimdK1hVde4MllzUmbJRQOt47t58zKaNPkcVatXh6eXFxJp0MSqWvOlGQtyjaLQuljRYGUAZoMBvidPYsSQr/Ftly7wGNQDGxv+D96DuiHN/yY7cs/iGkKoDknSxzDasRSlToct/a5kXIdCiqe7pT4rninE0JFkSPXOB4NPmPn7+2PAgAF4+pmn8UnVT9j/K7kVcnWjNGgT+LtK+owmlfDR8ghqS1988UUMHjzYvlRCpOvqe8h4xRcBJlHC6TqpeFoMiDh9GAcHd8GOhh/i1DfdEXnCh605k9olGbRj1yA2BQoRPx0JE7LGpa8VkR1CqyEdCZd8cW7iCOxrWw/npoxGzLULMJvIxZZil2cu5VFaIjlgVFo+S35HyUSgWJA+aoRowTm5SXjooYfw6aef8hoI6nTSrigWWCwGmFITEH/5LI5Mm4Ddwwbi+OQfcHz+dJxa+AuOzpyMs4vmIOG8L0jtkywYmg0prEeuJCcj1MsTawb3x/WdO2EzGtjCJ1n5zNzVhe/0LtS40mJ4ct5esWJFJn5z585l9VPH+kvncpMIFDYCYqbPf84k+NR9D/uHdEVKqD8sprQspI/iqWOrWQkEkT5Sk754/iSqV/8Inbp2RXhkJJd9g0k17JTlm6gDasuAhax43ryJmTNnoHuXLtj7+2pcmDEOG+tXwa7+XyHV77pK+jIUOdOnA1AvN7L1fHQ3JenTgVbCD8lK5saNG1GtWjX2N0uuF8iHH/t/1c/Ci3VWDt8ryBmFol0Sx/cLb9++zSSPDKGR2yNyeXT27FkeyKTn5FZ6ECDZrteoIJmedi8UZxdNh2eL2vDp0AhXl8xC4p0bsBhSuV9kpeUxNOOXg/q/S+joZJYqzzJAhC/5+iVcmzEBu1vVxeFuzRC2awvMKQk8wEh5ikFIl/IoLZEcsSot3yW/o0QiUCxIHxE7WkNHM2pkwGXFihVsrYxJn3C/YExHemQoLv02H1sH9ILfqqVIuuQLQ3QYqzSkBvoh+eYVmKMj2ZAEzRBayD2DYoYpOhpnV6/Alh9GIcz3DDLMZh3ZE8RP+PSzaURTYQMu3bt350XwZNHz2rVr9v6avh6XyF9evnSJRiCT9E3Gvrrv49DX3ZAc5g+zMVUlfUT22IJfJunTfzCVX0Ux48K5E/jss6oYNGQIklPT7KSPnsqy0ZJZkxm3rl/H9J9/xnffjcYeby8k3L6Fa3MmYVP9KvDu3wmpt64hQ1F4tkrfGWHyqSOgWdJ29URf6cSxq8/mJZ7Iy0modrpodu7+o+b6R+1CRLyT7qYkfQKUkh8SwaKZvcWLF+Pdd9/FE088gRo1amD58uWIjtYsGeq0Sxy/WBA0QfAeNNNHM3w0eEouG8iIDA2gvvXWW+yGiJZP0PMiDce85HnJRCAL6SN7BlYTjGnxCD1zBGcmjoR3q3rY3bU5ri+bi8Tb12BOT1YdpJOasRNNAhJFLm0OMstmMiLp+mXcnPczDnZojN1tG+DS7IlI8rvK7QxZk1Z9JDtvj1zKs6RG0mHl2KyW1E+S711yESgXEEAuG4rWeifNqpEz9j//+c9488032UEoQWonfRYzmx5OuHYJ6/t0w/5xo5Fy4zILMEUxqaNXZiPHEev1aFSJVB3MKYkIOnkUf0wcg3NrVsAYFcUqDpkzfJmkT9+4UuNIKp5EQMlf4N/+9jfs3LXT3l/T1+OS+/PLNy+pCBA5MEVHwH/eVOypVxmH+3dE7PljPBtuJ1hEsnIgWlR+aQ3I1UvnULdOTbRp2w6BwcFsMMlsobUX2qYVdKtixd3AQMyePgNdOnbETs8dsJiMMEdG4Nb8adhc/0N49++MNL8bdtKX7T3y6gZGX+nEsXjPggxFXs5CzbKwJH0F+QOU7LSvX78OGjwk0le+fHl2tk7tCrkncoWE2dslrs9UCDNVPsU9MoLme84XU6ZMQf369dldBFkOHfbNMHa9IvIR8SmUW8lHgEgfyVl1zTWt0yZrzKkwpsQj+uRBXBj/Dbxa1sHeLs1xa9lCpPjf4hk5dneVF9LHhZCFH7vpSbt1A34LZuFgx6bw/uJTnB37NWLOHYclPUX1O5lhg5lUSm0WdWYys4Up+T/Cg77Asd14UHx5XyJQgAiUC/APRWpqOmfBAiRTOawAs82aNJE+Wn8gSB+t76ONGiqasSMXDBZjKqLPHseqDq1wZu4MXs9kNqfyWj9yRM0qC7RQ2KqqENAzpuR4RJw/gwO/zceRJQuQcusaaERKXccnyJ4Wag2qvlGk91q1ahWbJqcG23OnpyR9WX86eVZUCNC607h7CF63FEdb1sWh1g1wef5UpMeEq9ZtyZCKtmhfED9Rv8Ur0/3AO7fRrUsnvPf+e1i0eDFu+t1CaloaiPiRMYiklBQkJSUjPiYWW9auQ7cOHbFg9hzEREayldykm9dxdsK32PFlTZyeNBqGu0E0WmMnmyJPEYq8cxU6Np6F1W91lq+4xuslM5yujdG/ni56pp4tgSBuaCH9VnJNX65KR7F9KCEhAZs2bULDhg3xzDPPsKGyqlWrYvr06exSgdw5kLuinIiYvk0ScSikQVFqK8lvrYeHB68fpDV8RCxfffVVfP3117h06RK3o1zUNDVRkV6xBUy+mFsIkGwVpI8sMtNsHw14GxNjEHPQG2eG9YJn42rw6doCN5bORcrtG7CmpcJGg3u6MkEuj8nMEMstIZfsIkr1R0qus+yDeRYLE0gagPebNx37OzTBzkZV4dO5Ke5sXs3ug2zkV5LWGmZYYbEpsK/1VnNx6ztLdGSBJ4Nbor9EvnwJR6Ccv38IklNSMzsf9EGFXDCJXJE5aZpRe/vtt7mzScKISB/P2ClGmIzJiDx9BOs7tMK5uTNYrdNkSoHJks47rfmjhcqio2tMjkPIySM4NO8XnFz+K+JJtSE1SSWHbLmKTMpn7nrhR8e0OZI+8kelr7viuISXAfn6JREBWpOXnor4M0dx9ete2N+wGqtXpoT48/pXUq0k8kB7NjVLbWCHrickxGHNmlX4tMan+KRaVQweOgSLl/yKlatXYcXKFVi+ahWOHDuGC2d8MahHT9T9pBomjJ+AFSuWY93SX7Hih2+x4Iva8OjYFJHe26CkaH6hCgJTUeH0YUHk45imPj/HYy2u42VxTrfFMYW86S84HEvSJ0AqHSG3Yxk2EPHbsWMHE7NPPvkETz6pugNq2bIlZsyYgVOnTrETdtH2OH69Y/tEbSORPVojOGTIEHz88cd4/vnneXlEo0aNMHXqVFy8eDGLtU7HNBzzkOclDwEhPljI2NRZP5IhRP5sVguMYXcR9MfvODGsOzybfALvDg1wed6PiDjghdS7d9RBcCJ/pJJP2lFs3E7H/ng2UPXparIa2YK6ohjZSrQhKAAxR/bjxi+TcKBdQ3i3qo0jI3rBb+2vSPa7yppXpFHlrC0qeUjLN5YIlA4Eyt3xD0GKM9Jn76EU/IcSuSL1TiJ9/33nv/YF54L0kasGIn3Rl05jfc9O8Jn4HeIun4Ux4R6vYSLjFeb0VHbFQAZc6DzhxgUc+nkSjv3yE2Iu+rL/MiupgJIwdDKr56xBlKSv4H97mUPuEKDRXZrNTgnyw/Uff4DXF5/Cs3NThB/ZDYshhRt96/2InzZia1HMCAsPxbJlS9GkWRN88PGHqPRBZbxX6X3QbESPnj2x03MnDu71QbOGn+PfL1XE+++8g/ffeQsfvPEyav7zb+j9nwr4ve9XSLx+XvWfWVCyQ/Rw9GHu4HPvKX1+jsdaSo6XxTndFscU8qa/4HAsSZ8AqXSEol2hr0lLSwO5Alq3bh2qV6/Os35E/si6Ztu2bXntHTl1J7JGFlKJKIqdzskATPDdYBw+fBjr16/HiBEjeM0eLT0gK9Okzkm+Aek+xaX2S2ziPUQorsuwZCMgxEemkFGJH5E+0miyGQww3otA5JG9OPvDEOxs/hm2N6+BQ/3a4/qSOYg7fQKmu8Ewx96DOS0ZitkIm9kEkMVms0YGySieORVpydFIiw1DUuANhB/dhxsLZ+LM4B7wad0A+9rWx8VpoxF15jDS4yPVNog0r3hg3WEAkl+2ZOMu314iUFIRYNKXnJyS2TOhL7FLksL5rPuRPjLzSyNLNKuXFBaAk4tmYk2/rjg1ayoiD+9DakgADDHhMESGIv2OP/ukSY+4i4u//4odg3ohascWpAf5wxAdDnNCLI9Q0VqmBxE/+nJH0ufpKdU7C6dEyFwehAA1pjQYkhobgcAdG+HTuTl2NK+Fy3N/hCk2GjaLmVV+9MSPnnG2Ux2LjY3BiZMnsGT5Ukyb/hOmTPsR8+fOw749exAafBeBfv5YvXQZfp4yBdMmTcCUUcPxQ7vm6PXWyxhX+0McnvsT+w2k9El+kAjJ903IJX2Y75k4SVCfn+OxFt3xsjin2+KYQt70FxyOCT+p3imAKvkhkSyxMeFCBmJiY0DkjgY6K1eujMefeJytbJJq5ptvvYnWrVtj7NixvI8ZMwa0/zDmB3z//ff8zGeffcYE77nnnsPjjz9un91bsGABzp07p1qZ1tT2KG9B9PSheCcZlmwEhPjIImT4t9fW+dHsn9UKc3ICYk4fwenJ32Jbm7rY2rgqvNp9jtMjBuLGglm4tW4los4c434UkUTy90ftiCn+HgzxUWwZOmD/dlxctQBnZ46Hz4CvsJOMxLSog/1dWuDizAmIPX8C5tREVYWTLKNr7Y2+DWKtk4JpHUr2DynfXiJQSAiUC7gdguTkVDU70T7ZJUnhvEVOpI/X82mkj0aaDGnxuHfhFHx+HIttA3vg+MRROL1kNs6tXYrza5bg2prlSDp9gv3EbBk5AGvaNcWZ2VNxfvVvOLPmN/huXovgK+ehmA2sBqpvBB2P6csdSZ9U7yyc8iBzeTAC1KDS2g0aDEkMvoWL44fDs3F1HBvcDVFHDyIj3cAuFli1xmaxEwnREDsNQb77FJgUMw+K8DoRrdNgsyisAkTq07Q4P+7qeZyZ/AM2N60Dz4FdEH/6GM+0k1sHatOzWf988Cc9OIaQS/rwwU/lPYY+P8djLXXHy+KcbotjCnnTX3A4pt9Fkj4BVOkMaZae1vAFBgVi1epV6NatGztPf+2110BE7i9/+QvvtMZd7KQFQ3u5cuV4Vq9ChQp44403ULduXSaDe/bugZkGelzYqK2TW+lAQIiPLEJGXNTIH836WRUTTGmJiDh/AleWzcXxb/thX6cm8G5ZHzub18eOVo1w4ruvcXPZAlxdswSXfl8K39W/4cTyhfBduRCXFs3AnkFdsL5pTWxoVBVbm9WEd+cvcXLs1/BbtwzxNy7z7B61SRab2n5QOaN2QF1Go6p5StJXOsqd/IqSiwAbcklOVg2n2D9DCA37hYI9oAZw/PjxbN3s9ddfZ8fsRLiI9NGsHKls0mwfOfg0Jsci/vIZXPl9CY79PB5bRvbn3XP8CJxeMh/Jl84h6eoFHJw2HtsHdMeuoX2w65s+2P51L2wbMxKX93jBanow6SOBRao1U36cwqav//Of/+DwkSNOZWvBoiNTlwhkR4DJgc0CWmeRGh+BoE0rsb1ZbexqURcXpo2DMfQu+6u0kz6ymkaNv26dHzfA+tk/Lt3EFWk5v8NGMoEIIFm1jY3CnfXL4NmkFg60qINzM8chPSxYs4qrzvSRNUvahCgRoUOq7p2KRPSheynkLrY+P8djLUXHy+KcbotjEWa7IG6wPQZJ+nL3I5W8p8gQCxlLunPnDrZu3YpFixbx2vZKlSqxiwdyu/DOO++ACN4jjzzCroPIrVHDzxti0uRJ7Pph//79iIuPsy+JKHkoyDfOCwJCdDjKFDacpQ0gkfEUsupJu9WYzqqccRfPIGDjcpwdPwyH+3XA4Z6tsa9NQ3g1rY0dzethddM6mFC9Evr991VMqPou1nz5Gby+aoL9fdrhQP8OODt5JPw3r0IcOV5PjIPNaGTVfvITSDtrUmWRffxGdjOBeflm+axEQCKQewTK+QeEISnFwDLDnoxdktivFOgBrd07evQou2sg62ak9pKYSGoCKukjAy280JiseJrTYTQkIi06BFFXfOF/zAe3D+9G0OkjiLl1mdf5kXpC7LnTCD+4D2EHdiNs/y7eI06dQNrdMK0znOmM3XGWj86pQb58+TI+qfoJj6ySJbTw8HBH2ZoVtwJFSSYuEchEQMwIma0mGIxJiL5yBgeG98W2Jp/hYK82uLttHUz3omC1Wnjnhf1kCZfWtGqqNyK0z/pppZnKP22ZHQeNBNoyYEtKRuyRAzgzvC88P/8YB3q3RPDeP+xO4Wl2UPypaWQlPZlfkIsjIZf0YS6ScfsRfX6Ox1pijpfFOd0Wx3bLeI4vICJI0ueITJk6J196N2/exB9//IENGzZg8+bN7L+2V+9erP5Js4Bdu3bFvn37EBUdZVfbLFMgyY/NgoAQHXYhwxe0dX1kwVm32+WyNgNoSopD1MXjCN67BaGe63B97hRcGDkAF4b1w/qOLdDujQp4/+Fy6PfRu/AY1hfXls1D2F4PhB72Quy1czAnJfAgIMjnH1ls1qw288wezfBxS5DldeWJREAiUMQIlPMPCEdSiuqnz/4udkliv1LgB2R6+tNPP2V1lpdffpl9GOlJHwkVNv9Ls34WA1soJAJoNqfBmJ5oN+hCM4JksIVdMxiMPKtH7h4shlTAYgUUtRfGI1Es/EhAZt9p9tHHx4dHWJ966ilufDmerhNXBDAV+O8gMygZCGQSMgVmSzpSYsNw18cTB4f1xPamNXFkQGcE/LEWaVEhvI6VBk2ydgxorY/DGj+N9BEClD7PDFrNrK5DLlEsSQmIP3IIvt9/A88mdbCnczNcWz0fSaF+IH+Z+plDgaKoIyIU13MVikT0Ya4ScvMhfX6Ox1pSjpfFOd0Wx5L0uYl7GYwuBhxp0JGO09LTMH/BfDb6UrFiRcyZM4dVQ2mglOqo3Mo2AkK22IUMX1BJ3wPlOy2doZm/lAQYk2KRetcfSaQpdf4svBcvQP0qlfB/D/0Zo7t2RsDRQ0gPD2WDeAppStESABqMpwFEKqvkckQrszYaNOfBv0zZV7Z/Jfn1EoHig0CxIX1EsmjBOo1mPvvss/Dy8soy05dJ+iyqM3bFxB1Ni9UIs2JgnXUyUcyCyGqDzWoDFBs5+9NURE3s0kE4onFG9FRroTZey0e+k8aNG4dHH32UzWGfPHmSfzUhZPVh8fk55ZuUFQREg06L5M3kkNeSDmN8NEL3bMPBr7vDq1V97O7dHn4blyE9LAhKajI3zGqdUJmISEOEeuyoQ8lEz5TGlnNTIoMQedALvj8MhWfbz7GvZ3vcWrMUaWGBTDpZpYcsxmlEUqSlryd0nKfNMbE8J+ji2zjLV1zTkhCnjiHdFtck6XMRbxnNjoDBaMD8+fPZxQOpec6ePTuLVU57RDcOqO2TW+lAQMgWu5DhC05In7MBAoorZumYtCnqOWle+RxAvRqf4clHymPCqO+QEH2P+1MZihXk2D1DU/VnLSwif4IA0jo+bWfiJ16QQrlJBCQCRY5AsSB9YnTz7t27bCb+oYceQp8+fXSkz6quJxKjSZrTaVqfRJ1NM80y0IgTCTDNkIRVL2wySE6RmpvZfp/XJzmZ4aN3ITUbX19fdnBL1tFGjhzJFtHo13JI1pkoLfIfVb5A6UdAkCtyemuyEfFTYFbM7BA3+oAXzo4ciJ3N68KnR2tc/W0Ogg/t5XtWQ7o6KkszBfqZPq0k8wwiz/JZeTbdkHgPMZdO4+LyOTjxTQ/saFoDXj1b4vb6ZTBHR2q+MUllNKs/QPEL6OuLuJbrUJ+YOM51Ym48KPJyFmrJOLtF12gT9yTp0wCRgcsI0Jo/SfpchqvMRRSyxS5k+IIbpE8kQKFuO7j/IGrXrI3HH3kMY0ePQVxMHAsyNs4sBBn1n9ivH5HATJ/HgvRRyOMLIg9d+vJQIiARKBoEyvkHRCIp1cwTYPZXcBAA9usFdCBIH832TZ48mReskylrb29vJCcl2ckcqw/oOqs0y6HYFN7thE8jfVmEDVkT5PVMFjZjrxJDEkjZd1KrCQoKYnPZZEq7SpUq2L17t/3LhfzSh/ab8kAiUEgICHJGo6lmctROKjVEMIgAxsUges9OnBnaF95N62BHk5o4MOAr+K9ZjNjjB9gsN5E/sf6OFcU0f0o8iGJORWpMKJKCbyLqhA/OThyO7c0/g+cXn2BPV1LpXAxyi2JXGaV8BYHUVvQVCAz6SieOCyQjh0RFXloosBcjPnQulO0conJC4proKzmknskK5Zq+bNCU9QuOpG/WrFk8KFnWcZHfryIgZEtW0kciJfufU8z+n73rAK+i6NpYsSuCIPopll8sH6AovVfpEHqVXhQBPzqCAgKi9KbSROkdEkpIQg0lEBJIKAECpJPe6+037/+c2TubzeaG5CY3IQmzeTazOztt3517Zt4p5/AEyFUcp0+eQvOmzfHcM8/hx2k/Ii4mTiJ9TEaRvLdcUH/LcrK9fKwdyOpXZSuXIn1xKRAQCDwaBMrdD4hGSrpR6jA+mjKwXJmIysyEv78/Pv30U3lZpaurq9Q5pZEky2wedWwlEmcCzXQYLYopuPDJ5nJhphRuVsgeJ4BkQHf2nNkgm0mvVXgNU6dOZRrWODTZkrGM4vNnwhUIFCsClsrIq7jUwGYi02CAPjZaIn5TvodL77Y42K4OjnZtBo+xg3Fz/QrEepxBRmgg0sODkRYWyPZzpATfQWLgDUT5noPvv8txfuFUnJ02Cge7NoFLj5Y49+0A+G9bB31UJFviQyO5lCf/TVh9d/6Qu1YD5dOTp6F08xm1UMGU+bH3lTpU0rtLKslJW6k14kf5qqJnefBCKQIQeRYmGzgwwhWkT9SBhyHARUc2IfOwCNaeUSJs4E4ia3R96tQpNGvaDOWfLY/p06YjhpZ38swY37OEpTbAQvrYwJ8kFOWwnHpKOYj/AgGBwKNGoMSQPg5ESkoKaDSTlKfQMs8xY8YgKirKstSTtHmSRirlUgLpmpM2ay5Pm7u5haFZvsuXLzPSSXmTyuzTp0/zaMxVyD1ZBmYLIG4EAsWFAK+MPD/LPVtqYzRAlxCL2IuncWvrWrhPHYNjAztjT/sG2NutOc5OHA7v32fBZ+kcXFk0C16/zYDXwmm4vGAyzs8cg73dm+LvljWwp3dLnJ44HDf/WIrIU65IDwsA9DRjDjZQxNt4XoQcLi8jd3MEsMGDp6F0bYhe4KDK/ATpQ0JCAhYuXMhsxpF5AbJfKo6iQUBN+pYuWypm+ooG6lKZKhdNcmeEPApxUN+IDh8fH/Tr148pEKKB7+joaOZvre+U5WcZ9uKFUsrKQpRJRBUICATsh0CJI32kTCUiIgKtW7dmBmo/+eQTtqeBbBHR8k+mtewhM3VZAkixxECFl7UwZBeQTDSMGj0Kr772KipXrowZM2Yw+0fK6Ap5JstZ5XNxLRAoNgR4ZeQZ8ns2+GqGkTTdatOhiY1AvNc53N2+AadnfI9TPwzFoQEdsadzY+zr3Ai7O9bHzg51sat9HexuVwf7uzXBmW/7wH3qSFz983fEXDwNTWgQMjVamMkANClJojwoX54nL4Pa5c+5q35uyz1PQ+naEr+gYZX5KTsylmsahBIzfQUFV8R7GAKC9D0MHfGMiyZZDpOHHQ4ymUWaYj/66CP0798fvr6+zIyVtb5Tlp8gfXaAXiQhEChSBEoc6SMBQgSMjNU2aNCA7e+jGbflK5azEeaiIH00w0cjW8OHD0eVN6vgxZdexPfff4+bN2/K+/74V+BCVunyZ8IVCBQrArwS8kwt99ybLa1hti4NMGjTkRoZgtjrlxF96RRubvkDnr/PwsX5U9h5Yd5keMybjAvzpsB7xXxEHndE/LWLSH8QBDJ5QmZSaE9tjs5FVma8FNld5XO6LsyhTquw6eW3LKp85SVLgvRBzPTltxIVLJwgfQXD7XGJxUVTDrlsBwCoD0a6FT7++GNs2bKFKbPLInhZg+pZfoL02QF2kYRAoEgRKHGkj96WhAjZ7Tt48CDq1auHF198kWnSJHXVR44cQUxsDNtnR+F4+CzBI+2xUdrhUyPITTMkJibi3r172Lx5M0aOHMmWMlR6oxIb2bpz544cjefD8lJMbsgCVw4pLgQCxYiAugLye+lnIRWEExOzCTq9BgYydWLQQhsbiYyQAKQF3EF60F2kBfmzMyM4AJoHwUgNvY+QU0cQdOIQEm77SsbXmeo2Kz8AZX7q11eW6WHh1PGs3avTKmx61vKw5qfKV5A+sbzTWjUpCj9B+ooC1bKTJhdNRUX6vvzyS1SoUAFLly5lfTJlPyvntSB9ZadmiTcpqwiUWNJHgJNSFRptatq0KbPdR8Zpv6j9BWbOnMnIH+3/Uy/5JEJHRt3p5EJJ+fHILzU1FcHBwZg/fz5GjBgBSvfVV19leYweM5rN+tHsHz8oDj+4kFW6/JlwBQLFigCvhDxT9T33ZwMpbDGmResaALJpYrQY1SVTKLR02miQ/A1GJN66BvcJw3B4mANu/bsGprRUaZZPmSZdU54PO3iZuPuwsHk942ko3bzi2OO5Mj+xvFPs6bNHncpnGoL05ROoxzQYF01FRfpIe3mF1yswPQsajUbuU/G+VXZXkL7HtBqK1y5FCJRI0sfxI4FCgsbRyZHtr6tVqxZTHkC285o1a4YFCxbgwoULuH//PkJDaVlACgAAIABJREFUQ9mac6WSFy6QiMDRzCGFo5m9v//+GxMmTMArr7yCZ599lhm+pSUMQ4cOxd27dxmRpDLw+OTygwtZpcufCVcgUKwI8ErIM1Xfc38F6ZO9aF8sW/pphNkknSaTQdLEZjQh8aYvjg/uzpS+XFn5q1XSJ6f1sAteJu4+LGxez3gaSjevOPZ4rsxPkD5B+uxRp/KZhiB9+QTqMQ3GRVNRkL59+/Yxk1Wvv/66IH2Paf0Sr132ECgXEBhTIkw2WIOWyBYRNr1Bj+SUZGzatAlf1fkK71Z7l5E1WvbZsWNHDBs+DOPHj8elS5dw48aNHCdtQiYNc8OGDcOQIUPYGvXnn3+e7Rf87LPP0LNnT/z7778sHs0UPuzgQlbpPiy8eCYQKDIEeCXkGajvub8V0kdLFMnOJZkHkE+zxY6lyYTEGz44NcgB+xxawGvlAhhTk9msXq625hR5ZbvkZeJutoc23vA0lK6NSRQouDI/QfoE6StQJSpYJEH6Cobb4xKLiyZB+h6XLy7eUyBQOATKBZZg0kevxvffEQGkZZkHHQ/il19+QZMmTVCtWjU28/fkk0+ifPny6Nq1K/r27ZvtJLXDvXv3ZktEn3jiCfCwNWrUYBpCadbv/PnzsmYqyo/P8FmDlgtZpWstnPATCBQ5ArwS8ozU99yfrcKkh1mHRPokrZOkeZJsLJkzJUUttNQz4Zo3TgzojAPdW8B75QIYUpLIljuMLK2sdPK84mXibp4RHhKAp6F0HxLcbo+U+alIH+UhtHcKkw12q2uqhATpUwEibrMhwEVTiSJ9VEJLweT9z9lKLW4EAgKBR4VAuYBAMs6ul9SvP6pSPCRfImCciFEwo8nITDocP34cC35dgO7du6Nt27bMpt9TTz3FzDw8+dSTjNwRwSO/cuXKsfsPP/yQzeoNHDiQKW8hG3xp6Wnycs6HFEN+xIWs0pUfiguBQHEiwCshz1N9z/2tuLwxVrvUWJNx9zhfT7j174ADDs1xRZA+uRPD8GE9miz2SxhadrPwvg4PwZDnn4W7ciD+XfgDwl4YZ+eoCBdg2xtWr17N7Na+/fbbWLJ0CdNuLcARCBACXHTIF7JH4fFRL++kLTJ8QNy6y6WgomC0jUAhDe1YvMK/oEhBIPAYIlAuMCgKyalaxc9S8YMtIYBwAaMsDvlFREYwswonT55kGjdpRq9OnTqM4JFx9RYtWqBPnz5s5o9szZDRd79bfvD390daWpoyuXxfc6GldPMdWQQUCNgTAV4JeZrqe+6fT5dHJ9IX4+MBl35tsc+hqTzTR0KC1BtRuHwfcqK2RrSSgzotmwpiJb38eqnz5fEU+auDKB4xvJTPZQ9lOpYAatJHYbPF5XGK0eXyl7vCOHvxgU972teuXYs33ngDVatWxW+//ZbDdmzxlUbkVNIQ4LIhm5AgTzscgvTZAURKgn8k7topWZGMQKAgCJQK0pfbi1EnhGYBaQSKFLDcvnMbixYtYrN7pOxl586dzJ8UuAQEBCAuLi7bSFVu6T7Mn/9ule7DwotnAoEiQ4BXQp6B+p7759Pl0Yn0RftcwLF+bXKQPrG8UwEmAWY5ZOwUbXxuz+ROgJUAgvRxUIRLCJB2alJW5uDgwIgf7Un38/MT4AgEGAJc7sgyRfYoPECC9BUew2wfyY7fxk4lE8k8hgiUCwqORnKajskM+f1LUeUk4kcHuTqdDrt27ZKVvHh4eDB/+b0sFzyO2j8/9xwapZufeCKMQMDuCPBKyBNW33P/fLo8uiB9KsBkYFSzleRvOdRBFI9y9sd4YCuRBenjoAiXI0Cmi/744w+QDVmym3bgwAH+SLiPOQKyKOEX3LUDLoL02QFESoJ/E+7aKVmRjECgIAiUetLHX5qInF6vZ7N7pNSFNHuSghZ7H/x3q3TtnYdITyCQLwR4JeSB1ffcP58ujy5InwowGRhB+kjOiuWdqvpRxLfUrpHm6spVKqPW57Wwd+/eIs5RJF9aEOCiqSiIhSB9dqoF/CNx107JimQEAgVBoEyQPuqIMNJn0GP79u3yTN/Zc2cLgslD4/DfrdJ9aATxUCBQVAjwSsjTV99z/3y6PLogfSrAZGAE6ROkT1U3iviWtWsW0vdG5TcE6StivEtb8lw0CdJXgr8c/0jcLcFFFUUr+wiULdKn12Pbtm3M/t5LL72Es2fPZtMcZY/PyX+3Stce6Yo0BAI2I8ArIY+ovuf++XR5dEH6VIDJwAjSJ0ifqm4Uwy3N9JFpIVreKWb6igHwUpQFF01FTfqWL1/OdCfQ7z/3U2jvtFp1+EfirtVAwlMgUDwIlC3SZ7BC+ix7/uwFJ//dKl17pS3SEQjYhACvhDyS+p7759Pl0QXpUwEmAyNInyB9qrpRDLeC9BUDyKU0Cy6aioL00TLizz//HK+//jqWLFnC7CQr7SbnJH+C9FmtRvwjcddqIOEpECgeBMoE6eNQGQyGnDN9gvRxeIRb1hBQNyLqexvfl0cXpE8FnAxMwUgfpaZMQr7h2SgeCkUuHBThcgQE6eNICFeNABcdskyRPdQhbb/39PREr169ULlyZQwdOhQ3btxg2tK53WRB+vKJKf8m3M1nNBFMIFAUCJQLCo5BapqByQw5g1JaOYn0bd26NfvyTkH65M8qLsoYAurfqfrextfl0QXpUwEnA1P8pC+3rFUlLNJbdedOKHIpUrhzJC6TvkqVULNWTezZsydHGOHxeCLA5YO9SR/95smWMc3wVatWDR9//DHTl0B9LLU8yLoXM31WayH/SNy1Gkh4CgSKB4FyISFxSM8wF09uRZyLmvSdO3fOqsmGwhSD/26VbmHSE3EFAgVGgFdCnoD6nvvn0+XR7UX6MqknwhKlK8t1PstiNZhcQMXUmdWAdvZU5Su9Tdb70D3v7iiDKkuRzZ/f8AD8npLMNMOUaWQuh0zxmMcoVjerUyft5xGkr/jgJ+w56atYsSJq1qyJ3Xt2F18BRE4lGgEuGyQ5az+5SPXOZDJh7bq1eP/991G1alWsW7eOmcVSy4Osey4FFeWgPYCscBKMcnlLNKp2Lhx/ae7aOXmRnEDAFgTKhYUmICPDliglNywZst2yZQueefYZkCIXIn20FMGeB//dKl17pi/SEgjkGwFeCXkE9T33z6fLo9uX9DEmI5OYfBbFejC5gIpOhfWQ9vVV5askfYzwMaJmlokfZc6jyAWxcETyz/GQBxakT4ZLXEgIUIea7M9u3LgRRPpq1KwhSJ+oHDICXHTIMkX2kIMU6ILqHfWd/lr7F9577z28+eabWLd+HRuAyCJ5aqUugvRZBZsJfatPhKdAoNgRKBcaEl9mSR/Z6ROkr9jrlMiwuBBQN/DqexvLwaML0qcCTgZGImyC9CVg4cKFKFeuHFP0cPjwYRVg4tZeCKhJH8308eWduXe+qcKK43FAgIumoiR91d6rJkhfYSqT+DkWBj0R184ICNJnI6BcyCpdG5MQwQUC9kGAV0Kemvqe++fT5dEF6VMBJgMjSB8RDbG8U1U/ivCW8FYv7yTS9zDCR89osJOfdC+OsokAF02C9JXg7yt+fiX44zx+RROkz8ZvzoWs0rUxCRFcIGAfBHgl5Kmp77l/Pl0eXZA+FWAyMIL0EYEQpE9VP4rwlvCmveqbNm1iyzv/+9//YvPmzQgODsbx48exb98+NvO3e/du8JNIIa1yiY2NZWr2MzIyQFsf6BAEsAg/1iNImosmQfoeAfj5zZI+kjgEAiUEAUH6bPwQXMgqXRuTEMEFAvZBgFdCnpr6nvvn0+XRBelTASYDI0ifIH2qulEMt0TYiPRVqlQJb7zxBnr06IGxY8eiadOm+Oyzz5hmRdKuWL16dXaSX+fOnTFr1izMnz8fq1evhre3NyOPgvQVwwcrxiy4aBKkrxhBtzUr+kjiEAiUEAQE6bPxQ3Ahq3RtTEIEFwjYBwFeCXlq6nvun0+XRxekTwWYDIwgfYL0qepGEdwSxpycabVaPHjwAIsXL0aFChXwxBNP4Omnn8arr76Kt956C++++y7eeecddtI1v69SpQpeeeUVvPjii3j77bcxYMAAZsP27t27bNaPp18ExRdJFiMCXDQJ0leMoNuaFX0kcQgESggCgvTZ+CG4kFW6NiYhggsE7IMAr4Q8NfU998+ny6ML0qcCTAZGkD5B+lR1owhuaS9ehiYDkZGROHHiBGbMmMFm9Z577jmUL1+eGctu1aoV5s6diw0bNmD9+vXMpWs6SbX++PHjUatWLUYGiSySNmuaAfz555/h6+uL+IR4uys5KwIoRJJ5IMBFkyB9eQD1KB/TRxKHQKCEIMBIn6aMmmwQ2jtLSC0TxSgaBOQW35K8+t7GXHl0QfpUwMnACNInSJ+qbtjxlrClk/bgeXh4YM6cOWjXrh1b1kkzd3Xq1EH79u0ZCXRxcUFMTAwjbjwed8m+2v3799kev5UrV2LU6FGoXbs22xP4f//3fxg4aCD++usvti/Q3tqt7QiHSCofCHDRVBykjwYXDPqHGGdnFvmoRJKclMok6TrmryKXl3s8Dq4FksfhVcU7lnwEmHF2rSB9+f5SXGgp3XxHFgEFAvZEgFdCnmYhGxeenCB9HFCLKwMjSB8RC6HIRVU/CnnLyRq5tJzTy8sLY8aMYQaxaWbvgw8+wIQJE3Dw4EGcPXsWISEhD9XMydMjQpeWloZbt25hy9YtLM3Pv/icLROlWb8FCxYw4lfI4ovojxABLpqKivStXbuW2emr+mZVbFi/AQaDMcvOKM/c4koO/bcczEOQPvnbcFyEKxB4hAiUCwqOgSY9y4A5t0FFbmk71MbZxUxfafuCorw2IWDnnyhro4nXGAyI9rmAY/3aYJ9DU3ivXABDShJr7EkHoLVsudxQlp/JEFIXz2YwzNYjKiPkdS0XUDGSnFccezxX5Su/KzO4nglzYY2zK8qYSWmZaTRdwkuVtSJk8V1yEsFdQfrsiz3hSgSNCN/FixcxevRotl+P9ux17NgRC35dAD8/P6aIhcLRyb8FuQ876DnN/KWkpEjkb8sWdOjQAS+//DI+/fRTtlcwLCxM3kP4sLTEs5KHAJcPMrGQPfJZVh5eVY1YvWHG2dfi/ffeR9Wqb2HDho35IH3WOKEq8XwWrcwEU2L8mENRZr5pKX6RcoHB0UhPN1pkBi0voQZFOkvbewnSV9q+mChvoRCwcwMit02C9GX/LDIwRTTTp8iNkz5zpknuPSmzVwQttkslwaBrQfrsCz1hqtFo4OnpiZEjR7LlnG+++SabmXM/647IqMhCKV+h9Okgskjkz9HREa1bt2aKXj7//HNG/IKCgmSzDvZ9O5FaUSLAZYPdSR8yYTKb8Seb6ZNI37r1G6DXG2DOhPWT6pji5GWTal9RolDC01YC8diDUcK/1WNQvHIBQVFISzcI0pfPj63+/YrfcD6BE8Hsj4CdK59ctwXpy/6tZGAE6ROkL3vVsMcdDVaSSQUifET2qrxZhRG+S5cuQafTsSwId07eCponxSfil5iYiAMHDjCzDq+//jpq1qyJRYsWgYgfzQqKo/QgwEWTPUkfpWm2kL5//v0X1T/+BFXfehvrN2yELg/SR7WHn0QA5fKVHkjtX1IOAnftn4NIUSCQbwQE6cs3VFJA/rtVujYmIYILBOyDAFVCOx5ynRakLzuqMjCC9AnSl71q2OMuOTkZa9asYaYVXnjhBfTs1ZPt6+OET5kHJ38FJYCc+KWmpuLIkSNo+3VbvPbaa/jiiy9A+7eSkpLkpaPKfMV1yUSAiyaZXcke+SwvD0+u4qBbc2YmvK9cRZ++/fDeex9g6dLlSEpOUc3y0fJ26WRxLDN9RPwE6bMAqsRYhbMCcnEpECgWBATpsxFm9e9X/IZtBFAEtx8Cdq58ct0WpC/7N5KBEaRPkL7sVcMed9evX0f//v1BhO+jjz5iBFCv11tNWkn6Ckv8aMZvx44dqF+/PsgcRK9evXD16lXoDfpCzypaLbzwtDsCXDQVlPSxJoQnQrPJij8qbEaGBgsWLMS771ZDr5694OXlTVu0LcRP2s+cSftMM81sdpAnxZd58nu7v3hpSpCDwN3SVHZR1jKHgCB9Nn5S/rtVujYmIYILBOyDAFVCOx5ynRakLzuqMjCC9AnSl71qFPaO9tht2rQJ1atXR7Vq1TB16lTcvHlTJl1qYqckfYXJm3XuMzPZks7JkyczjZ4ffvghVqxYIc/2FSZ9Ebd4EOCiqSCkj+ISOTPSTB2IwJlgNhvZaco0gk6DToulvy/Cm5Ur49PqH+Pg3v3yxr1Mcyakk0hfJkxMsZW0pJMtD7UouKK69lgf/CNx97EGQ7z8o0ZAkD4bvwD/3SpdG5MQwQUC9kGAKqEdD7lOC9KXHVUZGEH6BOnLXjUKc0dYEsEbOnQoI11dunRhM21Koqe8Lkxe6ric9KWnp2PPnj3Mjh+Zh/j2228RGxvL5nvUccR9yUOAi6aCkj6KT4pZqD5IWoiNMJr00Bs10OlSoUtPwopf5+OdNyqhxocf4uCOHYBWD+gMgMGITJMJ0kwf7Tnl8lFKz5hpBp2C9Em4yN+o5FUjUaLHCAFB+mz82FzIKl0bkxDBBQL2QYAqoR0PuU4L0pcdVRkY3qlhXWY2pJ3VWcpa3kSReRQ5IcUoeM6HciimOZlMNgjtnVmYlNUr2j9Hs3w1atbAxx9/DDKkTvv7WO2yKG4pKtKnxNTf3x9jx45F5cqVmYmICxcuwGQWCl2UGJXUa1nO8Avu5qPAFJQdNNNnolm9DOjTU6BLiUdqiD8iLp7EXVdH/DRiIKq9+iI+qVIRa6f/DyEuTghyPYzYa97QxkZCl5IAfUYyjDoNMk1GRh6p3posp5wPz+9xc/k34e7j9v7ifUsUAhLpS9Nb+iHCZENeX4f/bpVuXnHEc4FAkSBAldCOh1ynBenLjqoMjCB91JkTJhuyV4+C3t2+fRvDhw/Hy6+8jO7du+PGjRswmoyyIhXCmp8FzSM/8TIyMrBt2zbUrFWTGeJetmwZsxmYn7gizKNFgIsmeSBJ9si7XDS4YKLlnEY9dElxeHDuBG5uWQfftcvg/esMnB0/GAdG9MHIuv/F++WfxMcvPoU5zb7AyWHd4TrUAR4zx8Nv4wrc/HcNbu/5B/G3fWHKSGcEktVby+BX3iUp4yH4N+FuGX9d8XolG4FyQcFRSE3TslJKI4wWO31MipTswqtLJ+z0qRER92UaAWpE7HjwNsluxtkVNj+ZsfHCllUuoLWptMIm/pD4qnyZnCT5mG1ZlJjpewiC4pEFAU7iDAYD3N3d0bZtW2YonWbaoqOjcxhe5+GLEkAy43Dy1Em0aNECFStWxMSJE1lZijJPkbZ9EOCiKQfpowdWDuZNgwk0s6dJQ0ZsBGKveiJw9xZ4TPwWR7u2gmO7htjXtg4OdmqEXX3aYdgXH+KDZ8uhxqvlMafp5zgxsBOOOTSHY8eGOOzQHIe7NsORPl/j0sJZeOB2FKl3b0OflABqR2jpJ6375H9WilT2vfhH4m7Zf2PxhiUYgXLBQZFITdOU4CLmv2iC9OUfKxGyDCCQS8Ne0DfjbVJBSJ+1PInoZTsLO5AkF1CQPmt4F5UfJx7cFTN9BUeaMCSSFR8fj1WrVjHlLbVq1cL27duRTrMkZvrNZM3w8euC55h3TMojODgY06ZNY3YCmzdvDmdnZ1aWvGOLEI8SAS4SrZI+/pBcftBAldEIfWoiEm9649bmP+E+ZQxcB3TBkc4t4da9HU4O6o6jg3vg7MwJ8N3yF34c3BPvvlwe/32rEv6cNg6Bjjtxfc1vcB07CEcHdYFr3/Zw6tIMjl1b4OSIPvCcOwVBjruQdtcP+uQENpNoMhpgyiQCyAsiXIGAQOBRICCRvtT0R5G33fMUpM/ukIoESzICdm5A5T5CAZZ3WoMpG+HjBLAwrb5cQEH6rOFdVH6ceHBXkL6CI80xDAkJwYQJE/D000+zfXTXrl2TFV7wMEq34DnmLybNPNISz/feew9VqlTBkiVLhKH2/EH3SENxkZgn6eMBTWZkRIQhyuMErq2ejyP9vsbeNrXh3LstTn/3Da4vW4iQA3sQdMQJ0V4XoY2JwLJf5+KtShXwf+9Xw65tW2DUZiA1JAChZ9xw32k37m//G5fn/YhTI/vB2aEFDnxdD6dG9Ib34tkIOu6E1Khg6HXpMNGAxiNFS2QuEBAIMNKXkppWJpAQpK9MfEbxEvlFwM4tKO8XFNlMX2E1uckFFKQvv1XEHuGU5IOuBekrHKq01I1I37hx42TSR7b62BI4K7N8hLm9DvYtrXS9qe0k0vfBBx8w0rd48WJB+uwFehGmw0VinqSPzCsYjdCEBMF/y1p4TB4Bl95t4NqjBc591wc3/liAsJOHkRLgD1NqKqDRIVOnZ0s0HfftR98+fTF02Ai4nz0vzUQbjcjU6WBKT4MhIR7Jt/3w4OgBXF8yG+4jeuFol6Y42KkJTo3/BgGOW5AWGQyjUdIdUYRwiKQFAgKBPBAQpC8PgNSPuZBVuuow4l4gUCwI2K8vyIor12kx05f988nASGRT3p8i9vTh888/x+HDh7PjJe7yRCA4JBjff/89nnjiCbRr1w6+vr5Wl3Vywq1MUK5/Ck/uR+7DDp4ec82ktVGysUakb+u2rXjv/fdQtWpVLBYzfQ+DscQ846Ipd9JHtvTMMOt1SA+6i3ub1uDkkG44+HUdHO3eCtd/+wkxJ48gOfAWdGmJMBp1MJtN0rJ8cs1mREdF48qVq7jqcw2xcQnSXmaqOxY7fKTp1WwyQZ+SgJR7NxHitBPXFv2EEyN64WCXJjj9/QAEHdyKjIgQmIks0iCGHQcySszHEAURCJQCBATps/EjcSGrdG1MQgQXCNgHgYf372zOQ67TgvRlx04GRpA+6rCJmb7s1aMgd0T6SHmLkvTltp+PdZItmTByp1oqTc+pA86Ma2ea5GWiynJR2hEREXBxcWFmIv7e+DecnA7h7r0AaLQ6GIwGbNm6Ge8T6XurKhYtWQIj2WBTJiKuSxwCXDSpSZ9cT0xGmLQapN6/Df/1K3B8iAOce7XBuUkj4LdxFRKv+7DZOrPRADpNRj3TvknEjxtq50q4yAA742uk9ZPZ4DNBbzbCYDbCaDbAZNLDaNBCGx+F5Ps3EeC4A27jBuNAt+Y4OW4Qghx3QhsdCTNT8JJVT/k75DVgUeLAFwUSCJRCBATps/GjZQkoK7a4bExLBBcIFAoBO/fI5LotSF/2zyIDI0ifIH3Zq0ZB72h5p62kj3fkZXJnWS5N/jTbotFlICklEQlJCUhITEBKSgp0Oh2bWSGbgPv370fv3r1R+8svUbNmLTRr3hLzfv0Nt+/chU6nxZat/+L996vhTQvpM1hIn53FTEEhE/GsIMBFk5L0sfqQKRlZN+m1yAgOgP+mP+EyqCucurfCpfnTEXX+BDSRYTBrtVkdGdpzx4ytW2b6FIMLrO7JOjgts3xmE4wWwsdIHxE/s4HNFhp06ciICkXgod1wGzcE+7q3hPsPI/Dg8H5ooyNgMlC9NLM3kt5BysHKKwovgYBAwI4ICNJnI5hcyCpdG5MQwQUC9kGAKqEdD7lOC9KXHVUZGEH6BOnLXjUKekekT7m8kxS55DXTR91iInymTCM7Gfkzm5ChzUBYeCiOn3DF8hVLMfOnHzFz5o9YvmI5Tpw4gZiYGERGRmLfvn349ddf8ftvv+PHmbPQoVMXdOjcDYeOOkOr02Dz5k14t9p/UOWtN/H7kiXQm0ygbrmdxUxBIRPxrCDARVM20kezcGYD9CYtW7IZ6+4Gj4mjcahbK1ycNQERl05Bl5oAk8kgzwqzb8wTy+uDW5Zn0kADW9rJZpnNbFkoGXmXiZ8+gxG/ewe34eT338C5extc+mEUotyPM2PulD+pdqHsyBVqXqx8YOElELAzAoL02QioUi7yaxuTEMEFAvZBIK/G2cZceH0WilxUwMnACNInSJ+qbhTwNjIqErNnz8Zrr72GJk2a4OTJkyANmoSvtZOyUZM+6lxrdRm4efsGli1fAoce3dCocUPUrVsH9erXQ6tWrTB16lR4e3sjNTUV4eHhjPylJKfgjv89zJm3AL37D4Kzixti42OweMlvqPpWFVT/9GOs//tvQfoK+G2LMxoXTUrSR2swiVDpM5IRf/0ybiyZC+e+HXFu8hhEuB+DNjEGZiJ82Wbasib88io/r580SMEHKmjpJ1tizEifEQaTHgajDnp9GtLCAxGw82+cGdoDrl2b4/baxUgJo9nlNBhpOTLb4idm+vLCXTwXCNgDgbJJ+p55Bi+99BLOnz9vk60hSew8XPhwIat07fEhRBoCAZsRoEpox0Ou07nM9FFjb7Rh5J//niytujyqXOAiywW0FMLO759ruVT5Zr0X74ib2R4XPmpN6fAocppM6Yvkn/OhHIp1xKgzT7M4PBxPq7heN6s00hXv5HFX7OlTI2T7vUajwaHDh9CwYUO89dZbWLBgAWgJJsdY7VIOrN5Z9u7RbJ/RrEdYeDCWr16K5q2ao2u3rli0eBF27tyJXbt2Ye3atWz/np+fH0hRS0ZGBvz9/eF+xh3//LsZ43+YiF9/X4K79wPh5XUZvXr3wBuVK2LgoIHwvXEdRurI2/B7tx0FEaOwCHDZwGUFc+mbmUzQhIfi5voVONqnPY727YDb29YhPSqULa1kMlmROZMtNgoYnV7HtNB6eXnBw8MD5AYFBSI1Iw2GTMvSTyJ/unQk3fTGlXlT4NatKU6M6oW7R3cjPSmKzUgynS425q0ourgUCAgEbECgXHBQBMqSyYatW7cyNdi2kD7eictmV0xqYnNAyYWs0s0RSHgIBIoDAXVDqb63sQxynTYYEOPjgWP92mC/Q1N4r1wAfUoiG8mVwsi/GAuLsTGjggaXC2iNVRU00XzEU+XL3546WHTNtdipSV+2lG0kfWwUXhGHFyFL9bntAAAgAElEQVRbmsV0oyYggvTZB3jS2Nm9e3c88+wzGDJ0CJuFo5TVeNM9P3jdI9KnN2TgtLsLOnVth687tMOevXsRHRPDTC2YTCa2p4+WdqalpbHBz9DQUCxfvpzZBaz95Vdo36ET9h1wREaGFs7HnFG79hd4/fUKmD1nNtI1GjWP4EUQbglCgMsFVkMUN2SeIf7SeZyeMBy7v66P85NHI+byWRg0qUxRiyS7cn8RLtdIeycnkjw0z4uWKC9btgw9e/ZE+/bt4eDggJk/zYKHpycytFqLXCTyZ4A2IRoBuzfh9Dedsb9dPVxaOAOJd69Bb9Cy+k5pU55l9lB8mzL7juLFSgUC5YICyw7po+Ux27dvx1NPPWXTTJ+S7BlpnTlbciB14dSCSPnb5del4kuLQpY9BNQVUH2f1xvz8OQqeBRpcYvxvYhjfVvjYLemuLJyAQzJiUx9N40Qs71E/DeiUCbBk8sr2wI/5xko3QInZkNEZX6qa945Im12StKXI3UFgZN70zyQIk2SRdShF6SPg1N2XdrHR4pVnn32WTRt1pQRL5oBzI30SdVEapFMZiM02iTs3L0R9RvVxuQpUxEeHslMMBBi1tIg7Z3//PMPhgwZgmbNm6N58xZYvnwFfK76YPGSxahW7V1UrFQRc3+ZiwyNpuwCX8bejIsPmcjR8s6MdNzf8Q+O9v4azv3a486mVUiPDIHBrGfKV3KTVVS7SPYYDDpERoXD89JFHHJ0wp7de7B33wGcPnseoRFRMBhNuOZ7DTNnzkS/fv3Qr28/tGrVGnXr18dvi5YgIjKakTiaLWanQY+Ea17wnj0Rzt2a49Tovghzd4FBr2HmG1i+ZZX08Q/E3TJW/8TrlC4EyhTp0xv0Mul78cUX8728k5M+6swyLVSWThfzVwki/rtVuqXrk4vSlhkEeCXkL6S+5/65uTw8dy3hiPTF+V6CW982OOggkT59cgIyTUamxpuWHxIxkcgfkRRJhTfvSFBydHDXclt4h5dT6RY+1bxTUOanuhakT9jpy7sCWQ8RHR0NMoL+zjvv4LUKr2HKlCnMHIY1wkYpKKsetVPpmgRs2fYHmjSviyVLlyEtjTrQ2fOitPi+K61Oy2YTb968iWPHjmHatGkYOHAgZv44Ex06dMDzLzyPBg0bwNHJke0vzJ6SuCupCNAnl5fhsptMGBITcOuPRXDs1BAXJg1HrMdJ6DWpjPCZmDIgLq2z3ooTL4NRDz+/61i0eCG6deuCOl99hRo1a6HWl3XRuWdfbN61DzEJSYiMjIK3lzeuXr0KqlNbtm5F5y5dMWXqjwgICmFVkbYD6DMBszmTGXEP2LkJJ7/pCpf+HRF4dB9M2gzJZh/tZVVX3qyile4r5Q9X9fss3S8mSl8aESi1pI83jAQ6XdNyFlq+smrVKjbTV758eYwbNw5LlizB0qVLrZ4rV65kexwePAhDWFgo04CWrkmTOrTcQKlKEKl/v+I3XBqrfRkpM6+M/HXU99w/N5eHt7j8lkhfrO8luPRrA0eHZvBZvRCG9BTJDpNZz7SzMQO+pOKbET5J8xrvRlA6dPD0LLeFd3iCSrfwqeadgjI/1bUgfYL05V2BrIcgMkb7zmlp3PPPP49mzZoxhS6MqDF1+VlKXSgFZdUj0pehTcC2HX+iYZPamDPnF8TFJWYFsrSLnPBRfLqmdpJOWvJJJhy+/vpr1KpVi+0rJKUy4yeMZwpfrJdY+JZUBHjdoEpi1mgQccEdHv8bBqeO9XF5/jSk+t+A0ahnilNoVQKdapJF90aTEUFBAfjt9wVo2qwhWrZsjmFDh2LC/yZh1PcTMPS78Vi/dSceRMcyO45pqWmgwYvAgEBs274do0d/i/XrNyE6Np4RURMAYyZgpFWieiMSfa/g4o/jcbhXG3gtm4/k+3cBI+1flpbJq8tUUvG2qVz843DXpsgisEDAvgiUeNLHyR256oMaMRI4pJXszp07GD9+PJo2bcoM3j719FN45ZVXUKFChVzPN954gy1NGDpsKNtTMXLUSBw+ehihYaEg7WqsY0tSVPFj5ZdKV10ucS8QKBYEeCXkmanvuX8eLmtoqZozNWo0NGtAnA/N9LXG0c4NcePXGUi5dxNpofeR9iAAmugH0CfGgfaN0MkM+crLGy1a3Cya4fLI2rbH/P2Urm0pFCy0Mj/VNWFnbU9fjoyUYoSnwQPxe/YNxPJODsvj4FL7tXr1atSsWRNvvf0WWy5HeyY5OVOSNqomvKtOM+0aXTIOO+9Cs1YN0LVrd7i5nUJycgpglsgiKW+h5aJkq4/SIVevp0Ebab/fjh078OWXX7Llpc888wwaNWoER0dHFudxwL4svSMXIdRXMSUmwWf9ajh1bIDjfVvj/s5N0MfFsO9utBA+qR5RrKyDZFlCYjyz19ih49cYOKgf9u/fi4CAAMTExCIwNBxX/fzhHxSGtAwtDHoDvC57MSVEQ4cMQ69evfHTz7Ph63sdeoNRmn2k8mRKs30mM2BMTMSNP5bgYNfmODaiP8JPn2LtDZejrC3KKlLZuOIfh7tl463EW5RSBEoF6VM2fIQz3cfGxuLChQuYM2cOxowZgwEDB+Dll19mhO+JJ54AkT4awWzQsCHqN2iABg0aoGF9y9mgAerXr4+6dergheefR7ly5fDEk0+yOE2bN8fI0aPx48yZuOBxAUGBgdKnpR+sWRKS/LfL3VL67UWxSzsC6gqovn/Y+1FYy8H3j9FwrDlDA03QfYQ77sCZns3g1uq/8BzcCT7zpuDqop9wdfFsXF25EHd2/I2k615IuXMd2thIpiKc1ISzZZ9mI1MJrh4skUzx8lwL4PL3U7oFSMbmKMr8VNe8syL29NmMqohgQSA4OJgt7axSpQojXrTvjgYyDUaDvDSTglLVyyJ9JqbIxe+OD6bOmIR69RtiwMDB+HvjJpx1P4uLFy/ijPsZHD9+HHfv3mXLRi9fvsxmEs+dO8ds9o0cORKVK1dm7V/FihWZeQey52dtgFV8rJKLAMkgLpaIaZkSEuC1ehH2t62NCyMcEO3uBrNezyoQD8dd5VtRKjTL98MP49CyVTNs+mcDEmhwj6VOs3WZMBBxM0tdIZ1Wh1OnTmH06NFo3LgJGtRviP9NnAwfIn1Gi41HmnmkmT5L94lmIW9uWI2DXZvh0DfdEeJ2DJk6PctDeg8qWRk7ONjcLWOvJ16ndCFQ4kkfwamc7UtMTISLiwtbrtm2bVu8+eaboFFKWh7TokULRvRIkQvdL1u+DG5ubvJ53M0N/HR1dcXhQ4fRr09fdGjfAe3atUfLVq1Q5a238Ez58qhYqRI6tG+PqZMn49SJE4iOjBSkr3TV7bJfWnUjor5/GAI8LNvzY4JZq4EuOAixp1xwY8V8XPiuL063rQG3Ju/DrVUNHGlfDwc6NsTBjo2wt1NjHB7QEWenjcaFOROZwoCka96M/BkNGrb8k/b/SaYapN4qET5q+At1yGW29IDpvjgOa/la/KijImb6DhfHVyizeZACMmqPqP2iJZaNGzfGxo0bERUVxUgfH/RUVkMif6TMJS09BZe9LuOnn2ajdZuv0aRpM7Rt0xbt2rVj2hSnT58OT09PELFcsWIF0xbapm0b1KtXD1WrVmVtJxE+UsZx+vRpNhNYZoEugy/GiRIjZlRBiJTFx+Pyqt9w8OuvcGFUT0SdOwGyvUrcTVmH6Fp5kBzzv3sHw4cPQTeHzjhz9qRFu6ZluI6tRLCIdbO0pYbqKA0mUF/qp59+Ru8+/bB6zVqER0RLY+SqDEnBzLV1y7GvS2McGNQF912cYNKSpljpT1meMnOtwqDMvJd4kVKJQKkgfYQsET+tVos///qTjYZ+8MEHbO8eETwif8OGDcPRo0cxd+5cZrKBlnbSSCepHOYnCTUlgaQlNKQ22/OSJy54eODMmTP4Ze4cOHTrigqvvILnnnkG71StitbNm2PxwoUIDwuT0lL0OdWCs1TWAlHo0okAb0x46dX33N+aawlLnYH08BCEuh7CzRULcP7bfnDu3gyOrWrApdE7cG76Ac70bw3vOT/Aa94UXJ47CRd/Ho9T4wZgZ6cG2N2+Hk5844ArP05A8O5/EX3lIvQZKZLxX8sIMWVF3Qba31Gog7+f0i1UgvmMrMxPdU1dFUH6BOnLZ03KNRitXKEZvrr16uKFF19gBtvpnvxpmSYRPzKAzasfXbO9WWYzU49/+44/Nm/dhomTJmPAgIEYNGgQ2+5AJoxItT6ZbqClmz/88ANLm0wa0YqYV197lWkQJePw6enpuZZPPCiZCDCqxPfnUeUg0hcXB8+VC3Hg6y9xYXQvRJ+VSB9fvc/rELn8oH4R1bE7/rcxbNhgOHTvgnMXzsBo0knahC2ynBweVunqdXp4e1/Bt999j5Ejv8XZcx7QaqXZRV5pqay0N9x37VLs7dQQewd2hL/LQabMRarZvDRlzFUCrgS9jL2meJ3SgUCJJ30kWFJSU3DgwAGmlOWzzz5jZI9m8tq0aYOxY8fixIkTbAkLNVp79uxhexReffVVuLu7w2gmjZwmtp7dbDKBTokE8mEvSUWxWa+DMS0VkUEB8Drnjl8mTUKvzp1Q8dVX8NoLL+LjDz7EtMmT2QhsbBwtecgaNSsdn1qUsswhwCshfzH1PfdXudTAGs1GZqQ3IywEdzetwcmRvXG0e3Mc6dEC3tPHwHPmGDi3+RRObWvAd+4EJFz3RMrdG0whQKKfNyJOO8N3ze+4unAmLn07CEc7N8GpQV1x6efJeHDaFYakBMkelPJ3UtgGj7+f0lW9W5HcKvNTXROWgvQJ0mePekfEbN26dfjqq69A7RfN+G3YsIFp3CTN1KwdY8bZqc7RTJ8ZRpMZJlp2ZzQhMSkZgUHB8PO7xRSUBQYGIi4uju3lowFTWrp5+PBhRvJoUJRmFXv16sVWwpDhdnGUPgRI/shaxkk2WUjfpRW/4kDbL+Exujeiz51k++YYYVPIYwrOD+pn0V7PgMD7bHlnq1bNsW7Dn4iICIPBqGMyjsLwcPLss8Uv05yJ+/cDMXnyNHwzeBhcj59EWoZk65F3lqic+rRk+KxdjD2dG2DPwA7wP3YARm06m+fjZSlzrqrNKHPvJ16oVCFQ4klfcnIytm3bhrp167KlnM899xxbmvLTTz8xsvfgwQNQg0XCiEZE9+3dhxeefwGvEek7684aRmocGdkzGNjadrNBD9JQSOSPXH16CsKuesPr4H6c3bkN3gf34/ohJ1xwOYbZM6aja/v2eOnZ8qhcsSL+78MP2TKZpKQkJstK1dcWhS1bCPDGhL+V+p77q1xG+nQapAT5486mP3ByYGc4dqwPlwEd4fvbz0j0PIfwU4fh1qsFHDvXx7WVv0CXEs+WCNHMoEGfwRpvXVQ4MoLuIfLIAZwZNxCHHVrgaI+2ODvlW4SfOgpDShIyLVpwpaWeloEWVXnyfcvfT+nmO3IhAirzU10L0ie0dxaiZmWLSh1pWi5HRK9e/Xp46eWXWLv3448/wsnJiSkXS8/IYISPSJ9E/MiVdh5wl83oWGZuqE2kwVBSdLZ582YMHToUtEqGCF/Xrl1lwkftpzhKJwIkg9hBjoX0XVz5G/a2/QpnR3RH5BlXtm9OTfqUb0vfnwav4hPisOmfjWjTpiXad2iLVauWw8fnCqKiIhEXH8c0pIeFhTHtrzRIQUpeaP9pWGgY9u8/iO49emHMmLHwvuLDlLkoaxWZ+NGmJsDnr0XY17kh9g3qhLsujjBqMwTpU34McS0QKEIEygUFRSA5NY0PxmRzizDffCVNo5O7du2SNYyREVvSNkazfqThjPZC0GE2Scs2aeO70yEnfPj+B/i0enVcuuTBlpkZ01OhT4qHJjIMuvAH0EY+gC4hli0rMOu0SAkLgvufq7Fn0nj8891w/Dt2JI7Nnon7p04gNuwBTrq6om3r1qhc+Q08+8wz+PSTT7Bi2XLEx8Xl6z1EIIFAkSBALaqyVVXcsxHgbA8tJaDGXa9DaqA/bm1YAddBXXGke0ucnjYK9/ZvRcpNX0bW4nw9cWJABzh2bQKfVfOhTUtgNvq4cXZJ+UsmMk0mphku7NQRXP9rCY4P741D3VvBY+poxJx2hS4pjpl6YJpwSaOnsry2gsLfT+namkZBwivzU10/jqSPZo8WLFjAFIB8/vnnOHLkSEFQFXGsIEDEj2bk1q1fx4gfzfiRlumGDRtixowZDOsH4eGIiY2FngYx2UyLZZ+VZUyFOu80EErG2G/dugXS0jl48GDUqFGDKTvje/hoSWdqaiobMLVSFOFV2hAg2WTOhDEpEVc2/QnH7s3h3KM5/DauhC7iAUDqM5XyS/F+UlQyyq7H3Xv++GXeHNSrXwd1632Fvn37YNy47zFx0kSm7IcG4YnocUV6ZBprzOgx6NKlK1q3bINlS1cgPCyC2eZTZMHagfSYMFxdPheOnRvDeUw/hLgfZ+0Rb6+UrjJumbkmoMUhEHiECJQLDI4scaSPjTpZbBjRDB8pavnoo4+YHSMSODmWolh+SGRj5t69u/jn703YtmkTIsPDoEtJwIOLZ3HLaQ9OrVkEj9XLcOHPFfDZux0J/n4wZKQiNSwQfnu3w2/fdtzYvwMey37FwVGDcW71SpgSE6HTZMD1hBsWL16EL2vXZho/q//fR9i1cyebLcz2/cSPOhsc4qYIEcilrrGGk+1fzSJZ3I82zacH3MOt9ctwpH877OvaFJfnTkToxZPQpsTBqNfAqNMg/oY3TgzqjIPdmuHq6gXQpMbBYNZZH5El4peahNTQAPhv/xsnh/eGs0MLeE/9DpGnndmAi9moZ6Yd2IxfQSGh91WfBU3LlnjqPBX3hOvjtryT9pnNnz8fTz75JGrXrg1nZ2dBHGypT3mEpfrEiN+6dWjZsiVTuEIDnkTWmjRtilGjRjHSTYpX/G754Radt2+xk+59r/mywVLavzdgwAA2UErbIUi7Nc3y9e/fn+1fp1lAamvzOvMornhcEhCQZVImSFlKhNcFeE7/Foc6fIWLP36LRN9LjFxlk5+KclN0afbYDK1WA79bN/HXX39i0DcD0aRJY9SpWwcNGzVk9Wn37t1s2TApCKI61rx5c6YNvXOnzvh1wa/w9fGFTqOzyOosGkdKvsK9zuL85FFw7dka11YvRHLwPTZwSKG4/UDukp84BAICAfsiUOJIHxMRmZmg5ZPTpk1jm81pKcqyZcuY+mkyKkujodYOaiwNRj0MOj2MWi20ibHwP34Ex36ZgaMzfoDj5G9xbPoPODz5ezjPnoEH7iegT01kS9fSwwKgiY2AJiYcUc4HcXLSeFxcs5rZlaElajqDHknJSdi9axfe+c9/8MJzz2HokCEIf/Age1G48M3uK+4EAvZHILc2kXXkaPY7a2SXZtqMugykBdzF3fWr4dqvPfZ1qY8TU0cg0uM4dGmJMJr0oCU4RNDibvrg2JAe2N2jNbzW/AZNWjzIILTVLGk/iEkPvTYNqaH3cW/7RpwZ2QeuXZrj8vRxiDrtCmNyEpsplPefFAQN/ttSugVJx9Y4yvxU1ySvHjfSR7J5/fr1zKD3J59+gs1bNucciLMVYxE+GwJ8xo+0ev78889o1aoV2+v3n//8B7TFgdzWrVujZ88e6NGjO3qQa7mmZZu0Iob27RHZI7d69epMQ+eaNWuYtkXejlI+eZ1ECsVRwhGwfCKSryajHtq4KPj/8TuOdqyDc9/1RsQJR+hTpH3WahmsFGlEuGjwnGb8EhLi4evrg2PHnOHo5Mj2g3p4eLBlxjRgQKutrly5wmafSUnQ6TOncf/+fWSkZ8jrjVletA/VbIRekwJ/x+1wHdQZJwd0QsjRvWzQnQ3y0z5zyttyUjkE6SvhdU4Ur1QiUCJJHwkUGkX65JNP2GgyNXi0d48OPiqZA22mVYo2tUvKWmideNiVc9g9fRwO/G8UfDetQchpZ0RcdEfoCWfcc9yLxJvXYNCksT1K6ZGhCPU8hwDXQ7jx53J4L/oVkRfOI1Mv2ZAhEUSdO1oO07dPHzz91FP472ef4cC+/TAaVMroRRuZ4/MIjyJAILd6piB90iCKmZEyTVIMwo7uhWufDjjYpjaODO+KkNOHoE2WlmDyBpoGOdLCguGz6nd4/P4zAo7tgy4jCSYihKoVpfRWlAcphtGbdDDo0pEeHoyg7RtxfrADjnRpBq/5M5AedJd1RiiPAh/K3gm/LnBiNkTkeVlxH0fSR0a+SU1779698VqF1zBq9CimIdIGREXQfCJAGqap7SOlZNSxnjN3DjO7QMs9aTC03BPl2DJbsjXLT9LK+e6776JDhw5MUcuIESPwxx9/sA46mTxinWwL2ePtaV5uPosrgj0qBNjSXotSOiJtackIObAVbv3bwMmhIW78+StSgu+AmdTJJMPpEqVSizTez5HbAsuKESl0zpdT1yU2gEDLSM2ZbBUUmRUxmvUwGDRIC72HG2sWwqlHS5wZPxhRl07DqNeygUSm3Zn0MgjSlxNk4SMQsCMCjPQl0ezZI1o5pX4XEiI0kkz7F2j5EC3vpOUERARzPSySi2YzaPkY7TPSJMbCfeNK/D2iH/z+XYuUwFtsNsOgy2BL0TRxkTCkJsFgIoGkRbzPJRyfPwOHvx8C528Hw+evldBGhLElaUwAWjKnfYRHjxxF61atUeHV1zB86DCEhoRImyp4Aak84hAIFDUCudUzJemzNNpExuLvXIXXvElwalETR7s1xpXls5ER8wBkU4838pJxdRNMGg3SAu8h5d4taKIfsEabnlkbgaUOARFCAxllp0EXnRbp927j5tLZ2P91XbgNcUCw0y4YU5JzLIfO7RWsQmf5nee2RMlqHHt4WsvX4vc4kj7q2BERIRtwTz/9NLMJR4pCxFG0CFDb8yD8ASNvtK990qRJGDBwAPr174f+A/rLZ8tWLdG4SWO29I5MNty8eRPx8fFsRo8NipIZIzF7V7Qf6xGkTrKIyXG2qkOD+KsXcHbqMOxo818c/64PHtBS+7QktmKDyJV1scZXLpjkNiE3wmf1FeVEyQSECQYaCDRqoIkNR8CBbTg7ph/2d2sGr9XzkRJ6FyaTtHqEolGJ+NJOa+2M1fyEp0BAIGATAjLp479Viq28tik1OwSmDgUtESDTDOXLl8esWbNAGjzzOliZ+aiU2YT08FDsnj0F28aPQvKVSzBoUpmAoSVqdLIOrOWaVBKnBN7BzX1bceXPJTg5fRxc585ApOcF1oFlZNJSAGosU5JSsO3fLaj4WgV8+N77OH3ylAQahXmU4OUFknhethCgumbtUJM+molLS0GI634c7d0Sxzs2xPWFPyLxmidTl00DJRLZMzKDzzSjTfWYmTYxGNjvxiT/bkzSjB/rNLBuhtw5oHis02EywZSWiujzJ3BqdF8c7NQIHrN+gDY4kBFMvq/P5p8Kj6B0rb2/vf2U+amuH0fSR/CSIoepU6ey/dYdO3ZkJgLsDbtIL3cEaF872d+7fed2tj19tLePlMDUr1+fDZiuXbtWHjBVz8rknrp4UhoRkEkfyWGjkW1Xub9rI5z7f80Uct3ZtAba6HAYjWR7z8S6Kvw9uVjjM32yLOcync0MWuS95ZrHzebyhJhGWTPLS69LQ7LfVXjOnoRjnZrAY/IohJ53gzY1XjLrY1FARFFZ/rSq6mF5ZMtQ3AgEBAK2IJCN9MkR+Q9X9ii+C9IMR7N8tBeB9iWQwfQ8RyW50OACymQC2R/bMnMitk76Hul3/Ji6eVpywGYiaDaCnTQzQcsPDDDptTAkJyIjIgSBLo448dNUnKfZvuiILMHEO8MmMwL876FLh0548bkX8N3obxEXE5sFEuEnDoFAUSOQWz1TkT6YzUgNCoDHL1Oxr21tnBvSAwmn3WBmpk4kosZn+Ii0yQMXlA4tA8skokezfHTya4n80Ygs6yAwlkg/RMtpzoQuMgK3Vy3Evo4N4TKwM8IP72f7BXkeNosZHkHpFjXGlL4yP9X140r6SDPklKlT2EwfLSMUM33FURHzlwcp1iGtqpUqVWIKX2iGkBM+5Uxfnu1q/rIToUoSAgr5C6MJaTd9cWnW/3CgY2Oc+2E4Io4fgS4+hslh1geiPhP7kwgXl2ds8I73p6y52SijFQCoGSBNotp0pATdxr3Nf+LYwM5Mwdf9beuhiY9kq0doKwFPSiVaubeVxIWXQEAgUFAEGOlLtJhskBPhvz7Zo3guqBHy9/fHO++8w2b5SM00kcA8DxXpI3KniQjHttnTsWXCGKT4esGkydpcTKqLaSSMlhbwk5a4kQILgzYNKWH3cPuvFdg7czKS7vpJsxPUF+YCKhPQpKVjycJFeOHp5/DeO9VwzcdXKuYjwi5PjESAsocA1TVrh4r0Zep0iLl4Hk59O8KxcwP4LfoZugehgMnE6jSRNiJ2nIwpSY61xp/IH+3hYwbeaZ8fI4r8R5hFkkxpaYg+7YKzY/riUOcmuLH4F6YZlDob9FvnP5XcXiPHqykj8OscgYrAg+dlxeWdJEZ+LZ0nqyVQwCO/OA+oSJfwJnz5t1A8emSdIPatWJ2SND1SsWmmb8qUKXjqqafY3jFB+vjHfPRuXqRPSfwefWlFCeyBAJcTsmyxeBji4xB4YAdcR/eFY9dmODd5NMJPuUCfGMd0GZDyLmkgTymPLctErZE97vcwaUR502ChXoe00Pu4vfkPHB/RCwcdWuDcrHGIvnoeOm0KjCYdG3ynpCiKOAQCAoGiR0AifWnp2X90sgQp+gIoc6DOBamcJtXSpKJ6xMgRIFt9eR4WicE7qPQyhuRknPz7L2wc/Q1u/PMnkm/5SMaidXpkarQwJSdLgk+XzjY9MyGYlgxtUiwS7lzFtSXzsXvaBCTdu2WZJQTbK8iAygT0Wh3+WvkHnn+qPKpUqgxvTy+pmI8IuzwxEgHKHgK5tJTUfPPfArlmjQbR7idx2KE1nFcZALgAACAASURBVHq2QsDuTfIgCA1kSKSPRjUUzMRSj5Xp8GtO+gwmAzS6DIRHhOPqlSu46n0FN2/cQHRkFMxEKE1GpATcweWf/wenzk3hO38Gy5eViToPWfwwu/zJ7UupI+Ty/rlFL7C/tXwtfoL0CdJX4HpVRBGtkT7Kin7nRPgE6Ssi4B9hslxEZQlVicSZjUakhwTg7o4NcBvZE/s6N8LZKaMR7LQDSbeuQpsYA5NBZ1mtYRHIzJHaEKbN2TIgyOU/cy3zg1IuihenwSGTiRlcpy0zt/9ZBdeh3XC4Z2ucnzUBYWeOIj0xEnpjhkz6TJkAaWwoLnGuKK24FAg8dghYlndmZP/ByRKkePFgpM/Pj6mkJgUBw4YNy9U8Q7aSWaQFF0r0Mma9HuFXPXFoxngcGNELV5fPRrjzXiRcPIMkj7OIPnUcoaePs6UOqbdvIODYIcSeckOM22H4/bUIbmMGwmPVIuiiI9msIGm6IWHGhSqRvj9XrMFzTz7LSB91ePmz7GBmK6m4EQjYD4FcWslspM9kgi4uBoE7/oFzt5Y4PqYvwt1dWEPP9uxZlmfKG+f58iALAeS/KaUrLfM0MsJ3644fs1/ZtUsXdOncBQP6D8DyZctx7+491rlMjwjFzT8Ww7lHa3hPGoXk23wQRSo8FzW5vEp2rJSB+XX2EEVzx/Oy4j7upI/ktFjeWTTVrqCpOh+TlneSXT+yp0jLO+kQpK+giJb8eFw0sb6HmQbvLKSPNGLqNEgNvYc7O9fCdaQDjnSqhwuDO+HGgumIOuPGjLmTLgUS+VIfJovwcVmfG/kj/8Cg+7h46QIiHoTCpNMgPSIEMZ6n4bd2EY5/0wFHujbCpVnjEHnWDbokSVM02yNOJoJI2QsN0ovZvpJfyUQJywQC5UJCopGSoZW1dz7KtyLSd+vWLTbLx0kfqQfP8yBhxUenOOMym6FLTkCI6yGcnf8jDk4YDucpo3F06lgcmzkZZ5ctwi3HfdDFRCHB+yJcFv6CYz9OxpGJY3F0/Ah4z5+F2EvnYE5PB2goitSbMmEqCUadVoc/Vq5B+aeeQeWKb8D3qo8gfXl+KBHArghY6r06TSJovJGmUdyE29fhTjYquzbH1V+nIz0iOEuhioXk0W+PN/jUEJuMBhh0Omar6fJlT+zduwc7d+7Avn17cfHiBcTFxyA1LRnu585g4qSJ6Ne3H3r37oPGjZuiSeOmWL9+A/QmA7Qp8Xjg5oiTAzvhVO+vcW3TBmSmprHflNzHyO8orzpCLu+vxqPQ99by5X4WuSPtjJEgtJofh5ceKuKysPye9dVKz/JOocjF6pd+5J7Hjh3DF198wYy5E+njmq856ZM6+NSxp4onjrKAABchsmyxyBuSS2Q2Qa9PR8qDe7i/ZyOOj+yOI22/hFvXZrg86weEHNyJ5FvXYUxJAQwm0PYXk8nI7LYazHoQQaNTWpZvUdaVaYbOqIenjxcmTp6Ab/o64Nj2vxHtcQq3Nq7Excmj4NK3LQ73aMlWekSeOQZNQhQzHaRsn4hp0iyfPNPHX0RUzbJQLcU7lEAEyoWFxCItQw9TfjteRfgS1AjR3hBa3kl7RWhPH2kpy+vIrfEi4WJMSEDSrVvwc9yPK5s34OK6VfD8ZwNuuRxF3N3bbGmnJiIMt444wXvzP/DcsBa3Du5Hsq8PGwHLpFFSBdnjQpVm+pYtXornyz+Hd//zjtjTl9dHEs/tjwBvIHnKrKEnlduSshWmpEibgUiv83Aa2BkuXZrCb81vbHM9zfJZq9fUCFMDn5GRCp8r3lj8+2/o26c36tWti88/r4V6detg8OBBOH3mJDTadASFBOL8hfPw8fGBt/cVLFm6HA0bNcGcOb/AYDRAr01F5OUzODW0G459XRdnf/kZ5oQkwFg2lncqoOeigXtluQrCx/oyVr4bj0wyq6Tv6SN5S3v6pk2bxvZed+rUSWjvzPraj/yKk77XX38d8+bNE6TvkX+Roi+ALFL4hexaZu1oD7ZBg/SwQNzduxlu3w3Cvg6NcKBrYxwZ3AkX5kyC/65/kXDDB4bEeBgzJPvFZF+PTmbfj5aBGvXsJAPwqcnxWDD/Z7z9ZkV8WvkVLPumO85P+RYufTvAsX0jOHVtgUu/TEe0hzt0cdEgLZ4Gk1aSb3z/s0I2chkou0UPm8hBIPDYIcBIX7rGUGJIX0xMDMaOHYsXXngB9erVY0aA8/oquZE+Fo8Im8EEc3IKDLEx0EVFQB8bzTR1kmYpo0ELk1YDU1ISjPHxMMXEIjM5FdDqmaILGh2l9KWRfJKkklaqkKBg9HDojheefwHDhwxFxINwqZhc2Ep34r9AoOgQUNc1di/ZzCMlK0T6TNoMRFx2h2O/dnDu0hg3/1jEzJAwwmdlMINIh06fgbt3b2H61Clo1KA+ujt0ww/jx2PK5MkYPWokRo0cgUOHHBk51Bt0SElNQWxcHAKDQ7B2/UZ06twNGzZugtFkYsoCIr3Pwm1oV7i0rYPzc2fBlJDISJ/aNmieQPH3Vbp5RrJDAGV+6mtL8krvHDkqOjYULkenRhFZkL4c6AkPGxFwcXFB7dq1IUifjcCV4uBchMiyhXswly34Z/u8SbmKJuoBQlwPw2vRbDiPdMDWjnWwq3NDHB7QEZ5zJsPv79UIOboPKXeuIyMqDBnRYUiPCmUnXZPdVk10OAIvncVYh46o+FQ5VH/hKUyr8wn2d2kBp24t4f7DcNxatxKxXh7QJ8Uz7ehkKsJgJnMRRsuOQEkW8qLmKHsp/h6i6AKBkopAiSJ9BBLtP7h27RqqVauGV155BYsWLWKzfbQkxWiybqD9YaTPIvNYR4tUCJNWKaaGnpaw0RIG6hwr9uoxwWPRaUH7nMiIKT/5/p2M9HQcPHAAb1apgpdefBGb//kXRoOlbLIEK6mfXJSrzCCgrmuWyk7a2LKRPs8zcOz3NSN9fn8uZlrVciN9tIQnJjYCa9YsQ5PGDTH22zE4dfIEggICERUZibv+d3DF2wsBgffY8p/09DRcunQJc+bOxegx36Ff/0GYOWs2bvrdgdmcyfYORl45B9ehXXGs7Vc4N3emIH1Wv5ulAyRm+srMz/NRvYggfY8K+UeXryxS+IXa5UVjilaMzI5qetBdBLnsg8fCqXAZ0gVOnRricKeGcHJoCrehDrg0ZyK8l8+D1/J58FwxD5dWzMPFFfPguXIBPFf9BqcZEzD480/wzlPl8MmLz2B6o9o4Pek7+G1YhciLZ6CJDIUhI1VSFGPiJn+MkqZoMdPHv4hwBQLFikCJI31E4NLS0jBp0iS2xLNhw4Y4ePAgUlJSoDforYLzMNJHESzjXFYHkqRnfPCdlsZJdsdoZo/tgaB7RQq0ZO3kiRPo0L49nitfHh9+8IFknJ2XjAtbfi9cgUBRIaCua1aWd7KZPk76OjfCw0kf2bE0wv++H/r174FWLZrjuKsLtJoMSaESzXhbbFwajQZm3zI5JQlOTk7o3KULPv/iS9Sp2wBTps1AcOgDmCm8UY9oHw+4DeuGo22+wNm5P7Il12RDihefu3nCxAMq3Twj2SGAMj/1tSV5pXeOHMVMXw5IhEfRISBIX9FhW1JT5vInh1CVH+QsOdOymZqMlDs3EHxkNy7NnwLXET1wbEgnOPdvg8NdGuBIuy9xrF0dOLevC+f29eDcvj5cOjSEU6em2NajHYZ8+gEjfbXeqox10ycj8tI5ZBDZ02SRPfVeQGWfi8orF5FfcDdnkYWPQEAgUEgEShzpo/ehWT13d3e89957eOaZZ9CqVSum4IX8+XNyiezlRfhYOAVpe5g8ySKHWVcsQ8W/1JQU9O7VC+WffRb/efttzJk9G1HhkVkhHpZBVihxJRAoPALqumaF9BlpeaenOw70aQvnzo3g/9cSmI0GpomWzDXQckLlaTTrcePWVbRr3wJ9evdEYMB9aSbcUlr2y2DmFqS9gzQQExIaArfjx7Fl23Z8N3Y82nXohH82b0FKejob5Y319cTJkT1wqGUNnJsznS2jZgoDpMktPuabNx78fZVu3rEKH0KZn/paxkXReVHnqOjYUPSsXk7OyGJ5pxo8cW8rArSnj4yzk/ZO2tPHjbOrzTXkp+20NW8R/tEgwMWSLFu4h8XN6tFkXTF1neZMZpJKn5qIuNvXEOruitAThxGwcwOu/jIZXv8bjmuW8/r/hoPOG/8biYsTx+D8wjkY17Yl3niyHGp/9CEct22BKUOS+cwMhMkgtS2sUNlx4cWjR3TNDu7JXe4vXIGAQMBuCJRI0keNEe3tmzBhApvtI8UuS5cuRVJSkrS/zkL+7IZCHglRecwmMzLSM7B37168+eabjIz27dsXwcHB7FkOYZtHmuKxQKDQCKgbR3avUuRCdvS8z2N3n3Zw6doU9/74HUZdBmgjvtlEGtmyL7uhPRe+N73Qum0T9O3TE2EhVL9JzVPWQd0GOrgrXQPpGi2OnzyNXn36Ycz33yMoNJTtl429ehFnRvfCwdY1cWrONBjj4iSNuFIyuXYMsnK0XPH3Vbo5AhWBhzI/9bWVouUogSB9OSARHkWHgJeXFxwcHNieviFDhjDlaNSGCdJXdJg/6pS5WMrRD2EPJKKnLiOT32zgnLa8mGA26Nl+b5Mmg+k9SLp9Ewk+3kj08ULiVU8kXrnEzqSrlxF71Qvxt/3w74pl+PLTT/DFZ5/hwK5dMFsU3zFzQNRPy0VDLBWLHfKFYjBMfhkeSLgCAYGAvRAocaSPjz7q9XqcOXMGderUYXb7atasiVWrVoGWrmg0Gnu9f67p8HJQAK1WB48LHli3bj0aNmjItIt+9NFH2LlzJ0zGLNt92QRurimLBwIBOyGgbhzZfRbpow3zpHUt4Z4f3GdNgGv3lvD+aTyS796AUa+BKRfS5+fvC4fuHdC6VXOcOO6K9LQ0GPWSrS+m3ZP2Z5iM8gwhzcCbTGYYjCbc8LuNkWO+w+Chw3H37j0YEuIRdmgPjvX7Gif6tcb17RthTE+VTKBYGnypS2K5eRg0/H2V7sPC2+uZMj/1tSUPpXeObAXpywGJ8Cg6BOLj47Fw4UJUqlQJNWrUwJYtW2AySUbZlYbZlW1c0ZVGpFwcCHD5k60Pwj3JtXIwuatc6UErP0ium0jPgYGddA0T+Wc9k65NzH7xg5AQjBv7PapXr46FC35FTFS0pBWaKwmzki95yUWSLwTpywUq4S0QsCsCMunjmvTsmnoBEuMNES1JocZrx44dzObQk08+ieofV0eTJk2wa9cu1ogVIPl8RaEy8HKQjSP30+7o1Kkzqn9Unc3wffzxx1i3bh2io6OlciiFK7/OV04ikECgEAio6xojF5L2Tm5U12jSQ5+UgLDD++DWsw2OD+qA8CO7oKc9F1ZIHy3vjIgOwcLf5uKzT6tjYP9+cDx4AA9CQ2HQ60FKjMIfhLHToNchNjYGYWFhbGAkISEJO3ftRes27TB6zFgkRMRCHxoGvyW/4FCnRrgydSSSgu/ATB0JXnZy83so4/Dr/MYtTDielzXXkq7yUY6sBOnLAYnwKDoEaMB048aNqFy5MqpWrYolS5awJZ5ipq/oMH/UKXP5k02uck9yrR18li8b8bPMztGyT27Wh3cOeXoWfkbetAZkwcKFqFylCnr06AFvLy+LKaDcMpUKIj+VLwTps/aJhJ9AwN4ISKQvw5A18mLvHAqYHpEuIn6kwGX9+vX49LNP8fzzzzO7UI0bN8bvv/+OU6dPISqKDH5mX35WwCzlaJQ3zSZGRkbirPtZOJBphhdexNNPPY0P3v8AixcvZuWiGQ5GDrkwVLpyauJCIFBECPD6xpO3kD5jpgkGs5GdpMnTrNcj0fMSTvdqBzeHJgjctAza5DhmKNdoJoUs0hJPtp+MbPRpU3DlykWMGD4En9eqgQ7t2mHKpEn4df58/DJ3LhbMnwfno0eQlpoC9zOnMW/uL5g3bz6mz5iJrt16oGGjZti4/h+Y07RI97uJ6zN/gGunxrjxyxTo0pPYUiLeOVG2+fw1cnX5+yrdXAPb8YEyP/W1JRuld46cBenLAYnwKDoElKSPtiJQe0VtqaykjHXyqcaKo6wgwOUPl6s5XCsvmnOmLxfbrRYCyJV4kR1YamN0ZN4nM5ORvgoVKqBFixZwP3Mm1yWdyiLItU++EKRPiY+4FggUFQLlHoQlIEMjadIrqkxsSVcSRJIkIFJFDRXN+O3evRu1atXCG2+8wchflSpV0Kx5M4wYMYKpjKc9gDIJU2TIZ+wUXuzSmj/Fp32DRCQvXryIYcOGoVXLVnj5pZdRqWKl/2fvPeCjONK0cfazv/Xd7d79b8P9d7236fbWAXtZm2Abm2CwMWByDsbkDCaDEEnknDMm5xxFkgAJIRAIkJBABIEA5ZylydOj5/u91V2j0syARkgjAa6GVlVXv2/VW09VV/czlfDhhx9i8+bNSE5OZmSP4ihB+hwTkdcSAU8iYH/TFydCQbTVCJE9fhZZLMgJu4HAXh1wsvknuDZxELLvXIfVamQrcFrYFg80v09hy2lT76BOl49b4WFYvGgh2rZpg9o1a+IfH36Izz79FEMGD2YvdyJ9/v5++K57d9T8uCZqfFQTTVu0xrxFyxAXmwhzZgbiD+xEwPft4N+mEe4tngmrofC1I33UZqkr/BYPWxK/Zah0eFGxcH5RXGx2Hyfe5JISF+WuXbASPbydE125OXslFkAZk3JF+mjEijxeXwTs7QP3uOmy7y1toTu2jQ/X41Bp19QeiaSPbQvEtrMqwrx58/Hr//wVGjdqhEtBQS5Jn5iO6tfaSq2NY8nxtLnLbXgdXJ4ncuUhEahCBKolJ+ZCb6TH8OU4WIPAyRR9LGl+k8nEiN/cuXNR9/O6+NOf/oSf/exnbLhlixYt2KIvwcHBCA8Px62IW8jOzn5uhni8OTk5CAsLY2doaCjmzJmDfv36oU2bNnjz/77J5kXQthHe3t5sERc+n5D05SERqFIEXFRBCqJnSPxVn7ZNKIyNQcSy2TjU7BP4d2+BJ/u3sd4+q8XIfrWlHj+VaNAPGeqKnrSAS3paGgIuXMD2rVuxdfNm7N29ByGXryArMxNWiwUpSclsC5Pdu3Zjx85dOON3Hk/jkqCYzMi5fwvhM8bhWIv68OvZHsmnj7LVPB0JjdsYqpkryYTcVi6HoKt0eRitNsxINt/aRU1HuM0C+DW5dibnwiTCRrFRr4w6V1jUY7oudDwdxNtK0ZWkz9Oov3j8kvS9OHavqiZvJ+xtSxkaC7vu8zLPhVy48+fNx29+9WzSp5I8x7/FzSCPsoTtFPi6HDyD3H1d8iXz8UoiwEif7iUifYSi+HHBr+nDiogf9fqdO3eOTVRv3LgxW5b6jTfeYIurfP3112jevDlatmqJpcuW4sKFC889/f39sX79enz77bdo1qwZO//4xz8yIvnrX/8aFP+YMWNAcjRviYbIyEMi8NIg4OLFSEHU66T29qk95TR3z5SXheSLZ+DftwNOtmyA4EkjkHfvlrqgi7YhOFtpjb+Y7G4RI3cmgwEWk5kt6EKLF9lX9KRfamkhF6vC5vyZTWYUWRQoubmI892Pc9+3gV/HbxA62xsFT6PZkFL6xZhe8DwJt/HkCqLrtnI5BMX0HPycYBPevLePUuJi9lTF/DrdtEsxwi2SPhEnUquKQ2yPuV+SvqooCffSlKTPPZxeJyl7k2L3uJ87rvLc9kUUcvAvkKTv+WA74PV8YXlXIuBZBF5K0vesLPMPDhqGSfPtaHVP6oH77rvv0KlTJ0b8aF+/n7/1c7aaFM39e975xRdfoHr16qBFYn7+85+zVUKJOHbv3p31HAYEBODRo0f2YaOUvjwkAi8NAi6qIwWJpI+RP5vCyF1B7CPcXj4b+5t8At9u3yJ2/1aYczK11dpocRWBmVBEPH7qbdeW33b6vVaTIYctFEGbtusKkH87HLdneeFEs7oI6NcJCX5H2Xw+O6FxRYxKA5bbJLql6VTEfTE9B78kfW+hZcuWiI6OrgikZRwVgIAkfRUA4isWBW+WnH9tKj0jXJfcZx6ikINfkr5noqbecMCrFGl5WyLgUQReKdJHSHDiRS4t4BIXF8c2bqdhnT4+PvDy8mK9c7Q57ZtvvskIXbVq1eB40tBQuv/X//krI3jjx4/HhAkTcPr0ady9exePHz8GvTwpHeplpI87eUgEXioEXFRJChJJHx/mSfswERlLCvKD78BO2NfyCwSN7ItY38NQcnLUZbkFYid+PDCiJ67wJvq1+SBsiCMtHmPSIffhHUQtn4OAbt/iRPtGiFg+E7rEJ/Y5g2x4pyR9LquS4/BOKgfxm8GlkocDqQ10PGVPn4dBL0f0kvSVA7xXVJW3EfbGogz54LrkPvMQhRz8kvQ9EzX1hgNepUjL2xIBjyLwypE+jgb7CKG5S9oKmkQAaTEXWoQlMTERO3fuBBG5iRMnMpf848aPs5/jJ4yH10QvrF23FvQBk5ySjKTkJOj1evsHDsVNB/VgyEMi8NIh4OItTUFE+vjJfqygHjxagc1qhSE9BU9PHELgsD442f4bnBvcA0mnj8KSmw02v08xszllRD4Y2WPkjJiHesUJIF/0ha0OalPYZu8WfQFy7kcgauVcBHzXCv7dv8WNBRORHnkFZkM+Yy88XsKS2+o2ro4vTxf5dzuusgi6SlcLIzwY4ZXDO8uCqJT1IAKS9HkQ3Jc0at5EvYykzxVk3F7RtdvOA10pvophPD/cfRXzIG1+bRB4ZUkfLwEif44HhdFWDzQElIgg7afndKansXt5eXl2dU4gHeN0vLYrSI9EoCoRcK76rt+b2suG9VhbLFAys5F6yheXhvXB4RZf4PLwHnh4cAd0KXEw6rJhMhWAVvDkc+94pPydRcSNFhqxEz6zEYbMFOTcuYm7S2fAv3MTnOrYGDcWT0ZaRDD0hRmwWk1OXVZEmGj4qduH3YAX6SZ0OxVnQVfpamGS9Mnhnc4VpmpDJOmrWvyrInXeRPG2uiw2cF1yn3mIQg7+0nr6XMXpEAUz2247v+lK8VUM4/nh7quYB2nza4PAK0/6nlUSIoFzh7SpPRjFw5ieFa8Mlwi8NAjQS8Th4O8V0eUvUysbqlzEhnKaMtIQe2w/Agd2xemWn7MFXsJXL0DixTPQpScw4kdDNW2KpcR8PtarpfUGWqwmWA06FD5+iLu71uHqtJE416UpTnZohGuzRiP51iXodJmwWA1OBJLMlqTPofAIE4fVO6nsSpSls4rHQ6j9dDzl8E6Pw/7CCUjS98LQvbKKvI2wNxZlyAnXJfeZhyjk4Jek75moqTcc8CpFWt6WCHgUgWrJiXl42Vbv9GiOnxG540fNM8RksETg5UHAxVva8f3CRLRAfo8NzTSbYEhPRuyJ/QgY1BkHm32KY+2/QtD4wUg8uR/ZEVeR/yiKLb5iNRtgNelhMethNhfCoM9BYUYisqJuIvdaMJ5uWgvfbk1xuFkdHG/fGNfneCH9ZhDrNbTYTKxXUB1uWrKHTpI+56okSZ8zJjKkbAhI0lc2vF4Had62S9L3EpYmLxzuvoQmSpN+Oggw0mcwqr8m/3Sy7ZxTSfqcMZEhLzkC9BJxOPh7RXTtHwJaIJtXp1jZnnn69CQ8Ob4HV7yGwL9XW+xv1QAXhnyHoInDcWPxTKT6H0PGJT+kXTyNlEtnkBR0CokXjiF6zwYEeA/HldEDEdijLY60+hxXfvgOkavmIiviOmh+X5FiZT18LD0AbHtobthr0tNH8HtyTh+Hi7sOxV0pl45tI13Lnr5Kgf6FEpGk74Vge6WV7O2D3eN+drgKuc88RCEHP+3TV9rm7I7xOkTBXlGO7ylHnVf22jGzr2xGpOGvAwLVUhJyYTI4ZIUqqTwkAhKBlxsB/jLhVjoMBbTf5h7+XLOtGWgRJFqAxQRTdgZyIm/iyeGduOIzBme/b4OjLb7A0XYNcaV/e1wd1B4hA9ux83L/trjUvy0u9GiOYy0+w8k29RE0uAvurJmP9GA/FMQ9hNWoY8MUWY+iTdGIHy144tzTRz2Abh+iPve7rVwOQZ6WK1cjr+qyN8/48cyhXOwfN9wkIV7e00cuyQm3yoIUj7lCXEn6KgTGSotEkr5Kg/qlSYi3E/YGowyWcV1ynQ6XgZqUtsXPnj178EH16qj+/vvYsGEDsrOznaJxDBDT5H5HmdfmWszg8/B8bTIsM/IyI1AtJSEHFlekT1bOl7ncpG0SgWJGwLEQXy487Dkum8fKmIW6sqcpMw25kTcQd2wfHvy4FNd8RuFQ24bY36wO9n9TCweb1MTBb2pjf8t68BvUFffXzUf0jtVICjgBXVwMzIV59s3XGXkpssJqs7BTsVlZj5j4UVJGc4vzyxUrq40S03P0a/iKwU6QO5A3EQMmKyhz3CTpc0JRBriJgCR9bgL1GonxJsSpbXEjj1yX3BIHv1EisPiC/xgUERHB9ur8xS9+gf79++PuvXuwuVhgr1iz6ppy0YZK8zsBW2kpy4QkAk4ISNLnBIkMkAi8Igg4vpQdr8uSDdK1KrAZDLAW5MGQnoSs2zdxe/cmRGxehYhNKxGxcQUiN63C7R0b8dTfF7qkp9Bnp8Csz2NDRWkvQLa1A+2hSQuSFCnFpK/Iynr/xI+SMpvLFUS3LHl8UVkxPUe/FqcY7JSMJH1OkMgAzyEgSZ/nsH1ZY+btj9i+umsr1yW3xMFvlAgsvuCk78mTJ+jatSvbE7lt27a4efOmuvCTMLCDR/U8tzjm18znBOxrlj+ZnVcKAUn6XqniksZKBAQE+BuUBzle83B3XE1XHflZxObjKUYDTNnpMGQkw5iezIigKT0FlqxMWPNVoqfQ6p7ann4sGbYloA3WIkXb1sEKpYh6+RS2Wqf4UVJmc7mC6LqTt/LKiOk5+rW4xWCn5CTpc4JEBngOAUn6PIftyxozb3/E9tVdW7kuuSUOfqNEYPGFPxGLUgAAIABJREFUI+n72c9+htZt2uDGzZusp4+ru+sWx/ya+ZyAfc3yJ7PzSiEgSd8rVVzSWImAgAB/m/Igx2se7q6rkRPaOY/m39EQHatNgVWxgMgdbd9AJ92ke/TSp549+4cGS1+dK8jm82nEjxE+vh+fYKPgdc9CriC67mmWT0pMz9GvxSwGOyXmAJEdLy4oKMvhnRwU6b4oApL0vShyr64eb0Kc2hY3ssR1yS1x8BslAosvXJG+Nm3b4kZYmCR9xTCp70fxWvolAlWIgCR9VQi+TFoiUC4EHF/KjtdljVwgfTwq1eWz/1SXouX37UloAUyCev60DdxZL6B2zWQFRcFrj+a5Hq4gus9VqKCbYnqOfi0JMdgpVUn6nCCRAZ5DQJI+z2H7ssbM2x/nhrl0i7kuuSUOfqNEYPEFtfV08OGd1NMnSV8xPnafE7D2O9IjEah0BCTpq3TIZYISgQpCwPGl7Hj9gsmU9x1VkiIWXzFzBBsFr3uWcgXRdU+zfFJieo5+LWYx2CkxSfqcIJEBnkNAJH1vv/02Fi1aBKuVbZjiuURlzFWKAG9/KpP08QxL0seReIZLhSMPicBLgoAkfS9JQUgzJAJlRsD+ptc0Ha/LHGElKAg2Cl73EuYKouueZvmkxPQc/VrMYrBTYpL0OUEiAzyHgMViwbZt2/CHP/wBv//97xnpUxTFcwnKmKscAd7+SNJX5UXhbAAVjjwkAi8JApL0vSQFIc2QCJQZAfubXtN0vC5zhJWgINgoeN1LmCuIrnua5ZMS03P0azGLwU6JSdLnBIkM8BwCRPBCQ0PRuXNn/O53v0PPnj0RFRXluQRlzFWOAG9/JOmr8qJwNoAKRx4SgZcEAUn6XpKCkGZIBMqMgP1Nr2k6Xpc5wkpQEGwUvO4lzBVE1z3N8kmJ6Tn6tZjFYKfEJOlzgkQGeA4BWmAjPz8fy5ctw3/99rf46KOPsG//PrZ6bvFga9XnaIXj/WddO+rJ66pFgLc/VU36aMsGvpALIcLtepYrylQtgjJ1icBPA4FqyQk5MMvN2X8apS1z+XohwN+kPFeO1zycu3S/qg/BRsHrnlVcQXTd0yyflJgeI3DaBzOFsw+bItjUDSnYR44apt7TBNjXD4/G/iXERfgNipvtb1i8p6Fwyx43V6ssl6/SJ7pJSUnw8vLCW2+9xTZmjo6OrixzZDqlIEB10WQ2Y9PGjfiv3/wW773zd2zbuqXEFipmxQKTYoFFsUKxKfaTVt2l/TXpNBcpsNBps8BiM8FiM5fcfqUUO+TtykOAtxNObYubJtj1RXmXgaKA6qc5fd26dSvepy8sTF3ZWRPl0Ti6zjFpLNHlDRkoEZAIVAQCkvRVBIoyDolAVSDA36I8bcdrHs7d0u5zOU+6gg2C170UuYLouqdZPikxPQfSR/TPxoiazU78KDGuYk9Y6O1zusmFXZA+khVu26OrTI9I9rhfkr7KLIGypUWkz0ikb9Mm1tP3zjt/x4atm5CnmJBl0eNxQQZuJMfgcvx9XIy7i4uxUQiMi0Jw/D3czUpAhrkAuVYD8qxG6BQzzDYLrDYLI3y05yad9OOEPF4eBHgbYW8symiaXV/UcxkoCqj+p0+fliB9YWUhfZQGP9xMj4tLVyIgESg7ApL0lR0zqSEReDkQcHxJOl47WlnafUd5T1wLNghe91LiCqLrnmb5pMT0JOljv+JL0le+KuVJbaquZqsVm7ZswW//67/w+7/8ET/MnoIjd69hz51gLAo8jOF7VqLP9oXounUOOm2ZhY5bZqH71nmY4rsFeyICcOTOZZyNvoE72fGMKJrYDxslB3t6Mg8y7rIhwJuoqiB9cXFx6NGjB9544w3Q8E4ifeLBbXN0mQwF8oML8GvpSgQkAhWOgCR9FQ6pjFAiUEkIOL4kHa8dzSjtvqO8J64FGwSveylxBdF1T7N8UmJ6kvRJ0le+2uRRbaqqtqIi6E1GrNn4I/7zv36LX/7+N6jduy3arp2Kb1d748uFI/GJT3/UnNYXH07tjepTe7GT/PXmDkXrlV5otXw8uqyfiilntuJY9A3EFGYjX6HhnVrXs0dzISMvKwK8iaoK0peVlYUFCxbgr3/9K1q3bo2bN2+WMJ/b5ugyIQrkBxfg19KVCEgEKhwBSfoqHFIZoUSgkhBwfEk6XjuaUdp9R3lPXAs2CF73UuIKouueZvmkxPQk6ZOkr3y1qWK1ed3UhhRbifBZzXgQ/wQjpk7Ez3/17/iX3/0af+7YGB/49MEH03rjq6WjMeTgCnif2YrJ53ZhyrndzJ3ovx3f71qAWjP64X/Gd8L/TuqOWvOHoOuWuZjnvx+Bj+8w4kdpULL8YFdiAL8h3UpDwF4N7J6yJe1SzWVgyXhpuDftC3nlyhW0aNECNWrUwJYtW5CXl1dSULviUZLLDrvH1Zh4LiRdiYBEoKIQkKSvopCU8UgEKhsB/gbl6Tpe83Dulnafy3nSFWwQvO6lyBVE1z3N8kmJ6UnSJ0lf+WpTxWoLddNcVIQsqwmhiY+w8Mg21O3WEtX+4y38x+9/i6/7dYP34U1YFHAI28MDcDH5AcJzEhCZn4yo/FRE5acgIjcBJ2NCsfTCXkw4vh4dNk5HnTlD8PGMAag3bxgG7lqCI/evI96QB3MRzRyEOo+V5vfZZA9gxRZs2WLj1aAye/r4fGYifg8fPkT37t3xy1/+EqNGjUJ8fLx7GSDD+WHPBA+QrkRAIlDRCEjSV9GIyvgkApWFgONL0vHa0Y7S7jvKe+JasEHwupcSVxBd9zTLJyWmJ0mfJH3lq00e0bYCyLKaEZwYjUnHNuGb2T/gL62+QLV/fxNv//VPmDJ/DqJSExCvy0W6SYccqwl5ipn13NGwzXzFhDyrAZnGXCQUpLK5fL4xtzD3wkF0WT8Dn80aiFoz+7F5fwceXEOKqYCt7mktsoFOWsyoZP+fR7IpI30GAryJqkrSRyt4vvnmmxg4cCBocRe3DjKcH/ZM8ADpSgQkAhWNgCR9FY2ojE8iUFkIOL4kHa8d7SjtvqO8J64FGwSveylxBdF1T7N8UmJ6kvRJ0le+2lTh2lQ9861mXE58CK9jG9Fg3nB8NX8UavZshWr/8XP873vvYOO2rTDYrBpRK2Jz82h+HiNtNhsUIm/a1g0WmxU6xYJMqwn389JwMvoG5pzdiW+Xj0ftGQPQa/t87I8KRrw+CzrFxOIkfUn6Krxo3Y6QN1GS9LkNmRSUCPwkEShJ+qjloMPegmjX0pEISARePgQcn1PHa0eLS7vvKO+Ja8EGweteSlxBdN3TLJ+UmJ4kfZL0la82VYg2ESz6R/Prcq0mhCQ/wiTfrag/fwTqzxuBMYc3oOf0cfj5r/8D73/wAXbu2qVtLaKw/fpoPz62J5/Nqm7HYLOy6yJtmCat12IpKmJEMduiQ2RWPJZdPIpmS8ehzsz++H7bXByICkaCIRsGtp2D4lHSJz6CFQLgaxYJx+dFv93s+iIuLgOLBaj+sR5ebXin7Okrxkb6JAIvKwLVkhOyYTLQ0y0PiYBE4JVCwPGl7HjtmJnS7jvKe+JasEHwupcSVxBd9zTLJyWmV8mkzyHp8uXjBbX53nyiK7dseEEwy6HGiR5oIRXWM2dFplmHC/F3MfbEj6i/cATqzRuJsYd+xNlH4Zi1fjl+9fvf4Z81PsKe3bvZ/npWmxnsVMi1sj34TIoJdFoUC1v5004citSVQKk3MF+xIDIrEYsDD6LZ8nGoO3sI+u+kOX5XkWLIhdlmfSbpE+swzz7Py7NckhP1nP2qJo/vp+5yfOyglREQu76o5zKwWICVAKuL6py+FyJ9xdEVF7gYJv0SAYlAhSJQLSEuHXq9mUXKn3HuVmhKMjKJgESgYhEQHlTylvrCF+Qr1pAyxCbYIHjdi4AriK57muWTEtOTpE/29JWvNr2wtq1IgaJYUKRYUWRToFeMuJZwH6MPr8Encwfh87lDMeHoZlyOj0a6PhcBIcGY5DMNCxcvRlh4mLq5Om20Tlsv2CysZ496ahRtWCfrteELstDe61q9J4d6FAsVC6IyErH64nF0WDkVdecMR59ti+AbdQ3ZZh1b1MUxcw6PjhalSlqJuD7zpF4kAIpmBlPU/DSQlIaTyiGlxWhznHmZFd9xz2fXF8VdBooCxX5ayKVrt65lmtNH0dNRhmQ0DelIBCQCL4pAtfjYVBQW6pk+f/i4+6KRSj2JgESgEhAQHlTylvr25PJMuBLsc5UEt8ENc53Uua7oOgl5IEBMT5I+Sfo8UMXciZJIjpl642wKG5KZZMzBpptn0XjJCHw6bzDGHF2PoIQHyLNSL56CvIJ8xCclITUtDYV6HRQijTYrOykO6rm1txliHSe2xU9NhHr7aA6gXrHiYVYqVgedwDcrJ6LOnKGYdmIb7uemwGRT7PGJ0Tn61SGBxYSPDzW1E0Ctz5DMIw7KTeEkkAioao8kfrzecIzt5clvuOna9UV5l4GiQLGfkb6uXfHGm2+4tZCLGLXoL45R+iQCEgFPIMBIX0GhjsXNHz7ueiJBGadEQCJQQQgIDyp5S33hc3kmXEE2lDUaboMb5jpFzXVF10nIAwFiepL0SdLngSrmTpRUDdXlUopgtFkQ+PQOemyfh5qz+6Pv3iU4l3AXmRYDLDaSouaAesvor+qn4Zx0EvErC+mjlUFpfh+PS69YcDsrAbMD9qPuwhFotXIS9kcGM7Jps1EvXvEODqrNKnFjfiKPCk9fJX6c9DEyyKzV0KBnzYGXEvHjpI8TPzWH7iD4+sqoZfwijaqKiV1fhMhloChQ7I+OjkZXIn1vSNJXjIr0SQRePgSqxcelolAne/pevqKRFkkESkFAeCmTV5K+UvB60dscZ81lc1kIbI0AsiFytGy9MKuJq9iTFD5encqJC5MM61GxMldLwi5OYlVxiHP5uF/O6auKklDTpB63VEMB1oScxqfzh6Pe4pFYcfkEEkz5KuHTNk8vrlbqghuM9CkWl6TvWb1+RLosRYCJ9a6p9MpcpCDXasDpmDB03jwLdWYPwVTfbXicmw5FI308bd47R8M0OWHLNeiRkJ2BuMw0xGamISEnE5kGHXQ2BUZaPKaoCDqbFTkWPRumWmDU29s2ssBapMBSpKhbRbBnrqqejKqrA44pc7ztjYWjQCnXdn1RzmWgKFDsF0nfgIEDSt2yQYxa9BfHKH0SAYmAJxColhifBr3ewOLmDx93PZGgjFMiIBGoIASEB5W8pb7wuTwTriAbyhoNt8ENc52i5rqi6yTkgQAxPY3osc9fSfrw1ltvoWXLlqCPPnl4HgH6YaFAMeNi/H0M2LsCtecNx7CjG3A9LRb5VhMURUER9fQx4sd/nijShoQW9/LRPD7es8ak+JYLJep6EUxmMxLTM3D/aQIycgvYEE8iXUbFhMe5yVhAvX0LhqPt6ik4FhmCAsXCCBttD0EnDfk02hQYimyM1KUYC3HuQSTW+R/H+vMnsDHwFLaHnMep6AgEpzxBcNITXEl6gqDEaPg+vI6DEYGISIxhPY3Uw0crheoUI0w0N5Hb7HnYX/oUeLGV+g54Rk7s+uJ9l4GiQLGfkz7ap2/AgAF48vRJ8U0XPjFq0e9CVAZJBCQCFYhAtaSEdBgMRhYlf/i4W4HpyKgkAhKBikZAeFDJW+oLn8sz4Yo2xs34uA1umOsUI9cVXSchDwSI6UnSJ4d3eqCKuRMlkTPq4XpamImV106i0fLxqDt/JBYHHmPDOtkKmkT4bDb7Ii3Uc8wWgKEhnYqVDa0sHl6pkUJNppgiqj6z2YTI25GYOXchRk6YgYArtBiMRiAVM3QWHfbdCkD9RSNQY0Y/jDi8FrvvX8b+e1dw8O5lHIu6grN3ruHCvZvwexiBY/dvYv01P0w8vhWTz+7CgpDj8DqzDUMPrkLvXYvRfdt89Ni6AKOP/IiZ5/Zg+L7l6LNpDtacO4zgB5EIehCJ8/eu49K9m4hNT2I9fu7g9lOQ4U1Uqe+AZ4Bh1xfvuwwUBVQ//cBgn9P3xhvo378/njyRpM8ZKRkiEah6BKolJWRAL0lf1ZeEtEAiUFYEhJcyeUt94XN5JlzWxCpIntvghrlOKXJd0XUS8kCAmJ4kfZL0eaCKuRMlLcRCPWzXkx9iyMEVqD6zH5qunoL9t0NQqJi1PdNsbEIdI3tssRZa7IR6+GhYp3oaTXokJMYhIPACdu7eic1bN2HvgT24fiMUWdkZbHVPi2JCbPxjLFwyH//4Zy18Wq8FDhw/byd9tHqoRTHjcEQQvlgyAn+Y3AXvLeiHz9aMRN2Vw9FgxQ/otGMGxvlvwtAjq9B6/TR8vcYbdZeMQr1V49D96HJ0O7Yc9daOwwcLB+BP07vjN97t8cfJXdBo+Wj02jUX7VZ7ocvGaZh3YQ82Xz2NjdfOYFPIaey9dg6RCTFsU3hOVN3B73WW4U1Uqe+AZ4Bg1xfvuwwUBWg4Os3hLEJqaiqmTZuGt99+G3379UXM45iSgg5XYtSi30FMXkoEJAIVjEC15MQMGIwmFi1/+LhbwWnJ6CQCEoGKREB4UMlb6gufyzPhijSkDHFxG9ww1ylWriu6TkIeCBDTk6RPkj4PVDF3oqThmHrFjHOPI9Buow/+MrEreuxYhGvpT9mwR7Y4i83G2oHi3j5asZO2aTDBYjMhryAbly4HwHvyBDRp9hU+rPEB3n33HdSqUwuDhwxCUFAA9MYCZOWl4+DRPejyXUd8+FEtfPlNJxw6GchIHxFKWmHFYrPi8O1gfL50BH7l3R7/6t0a/+bdGr/0aon/9GqFdxf2RcPtk/DRqh/w/0/ujF97d8CvvTvidz7d8T8L+uOPs3vjV5M74Zfe7fCLiW3w795t8Befbui4ZRoWBO3FhmvHcfj+FYSkPsTNtCe4kR6L8PQ4RKUnILUwVw7vFCoNb6JKfQcIOqLXrl9qoCig+on0mc1mHD9+HJ9++ilq166NgwcPQq9X14pw1ij5qnKZtislGSYRkAiUGwFJ+soNoYxAIlBFCAhvS/KW+sLn8kz45bC5TKaI9nN/ZWSDp6W59t4FOadPzumrjPqnpUFDOxMKsrD28knUXzQS703pidFHNyC6MIOt5slWwWSEDNq8PnWYJ5E+InxE5kJCL2HYiEFo9FUDdOvRBd6TJmKazzSMHTMWkyZNgp/fGWTnZuB6eAimzPDCoB8G4Pu+A9C8XW8c8g1wIH0KjkeFoNGKsfitdwf868Q2+BfvNvjlxDb4/ya2wdvTu+GdhQPw7oIBeGd2H1Sf1Qf/mNUXH7CzHz6YpZ7VZ/UFnf+c3R8df5yOjTfOICwjBrGF6ciy0AIvFuhpLp92kp8Wk6GhpvRIykNo+nlbVUZQXKq5DHQdMRG/4OBgNGrUCL/4xS9Yr19GRoZrYYdXVRmSeWZ88oZEQCLgHgLVkhMzYTDInj734JJSEoGXCAHhbUleSfo8VDYcZ82VpK8IcvVOD9W1Z0RLVY8WRglLeYqxB9ehxvS+aLZ+EnZEXUKSKZ8tbFJyGwb6RULdBN1G2zQUWfE09jF8pk9Go8b1MW36ZNy8eR0pqSnIyMxAbGwc7t9/gKSkRMTGP8GPm9dh7ISR2L1vJ2bNXYRW7fviwDEa3knNjBo37QUYkRGLsSc24N3pPfHvXm3xL9RjN6k9fjulE2qsGIYux5dh6IUtGBuwHXOCD2LldV+svH4Sq7Rz9fWTWHv9FNZfP4PN1/1x5mE4nhZkokAxsd5LvlgLpamuklu8cict7EIrgrK27xm4/VSCeRNV6jvABSBctwSOwoXgdaFNBaDu0XEpMBCNGn6JN994E+PGjENaShorHNZe0qI7/NRWXOXtKC1OpK58zEOKXdcJylCJgETgRRGolpwgSd+Lgif1JAJVioDwNmZe+iOEOdnG7z9PxkmpggO4DW5wVKeUua7oOgl5IEBMT/vopc8S9T//GJVbNngAeRmlhgBVQVoF81pSDPrvWoJ3p/RAr/2LEZL5mBEkGmpZkvSpDxibc6Ut7HL16hV07NiOneS3KlY7R1BstH+eDYW6Qvif94fPzGnYs38X7kbfw8LFK9GyTS8cOHoOtPUC/ySnzeLTjbnYFeaHb5aNwW+9O+LnE9vgFxPb4neTO+H9eX3ReMN4tNs2DQP2LsKqkOM49fQWglIf4nZBKh4ZshBryAZtMp9qzEG2qQA6WoFU2/aBCCbtEUhpUq8eEUBaOVQ9ya9uGE/Y/NQP3kTZC9RNQLged5kav1CbOC1KCtTqFK8BNgWK2QibyYgisxmhgRfRvFFj/OsbP8eUMV7ISklnhJAtJMTnlRZZNfJOCwypRJDKkXpuqVxp3io/6f5rcwiYvjZ5khl5JRFgC7nI1TtfybKTRv/UEdDewwQD8/IXy7Nw4fcFvWeJeiyc26DZXCZTuK7oesxQIWIxPUn65Jw+oWpUlpeqIJG+kKRH6LVzAf5nUjf0PbAMt3ISYKRN14vULRhgowpa4msdRUSiFBsuBQWhQ7u2GD5sGGKfPmWmi1WbiN/de/cwedpUDBk2FHv378PR48cxdOho1GvQCjPnrcKt23eQm5/HPvvZ9hEWPa6nPMDoExvwlxk98dbEtvitTxfUXjoUtZcMxp99uuHtyZ3wjk8PfL1iPL7bOh8Tjm3G1ttBOBEThoDY27ifk4hscwFMipltvM56EykLZLeNflThG74XMUJQTPyIIKh9RJVVDi9rOrwcy0L6uI4r1x6PVg5s6DD7YcHKhgqbLHrokmOREx6CnOvByAsPReC2TWj2aR388o03MLZvPyTcjYLVpIdFMTIdGmJsVczqwkJFirYnqQ2mIhur27T6LNtLUnNfG9LnCPDLWomkXT8JBOSWDT+JYpaZfC0RoJeJdjAvf7nwQEeX3xf0HEU8fs1tkKSvGGqOCfteV1dbVBfLUMm8cLtYpxJ9rLdIW6WP++XwzkosAO1ZoY9jIn3f75yPv3p3RZ8DyxCRm8iGfZYgfYz4CQ8Yjb6zKrh08SLatmmDwQMH4vGjGHX4J9s0nfVbw2Ay4eixY2jYqBHee/991KtfH59/UR/vvfMP/PHt91CzVkN4eU/G/egHjGxR75teMeGhPhUzLx3A32b1xS+826Pmih8w9eJuLAk9hkHHV6Ht9un4fOEQVPf+Dv+Y9D0+nz0Y366cgHbrJqPn1jmYfnY7toX543DEJVx6eg9P9bnIthjZojUqCVBAQ0l5D5Akfc51j7cRdrLmLOIUwnVcuUxYu2GzmGExFsKYk47cO2FICTyDZP9jePDjMlz3Gobgkf1wYfQArOrWFo3+8t/43f+phu6ffozApXOReu4E0oL8kHMrFIa0JFj0BbAa9VCsJkb6iLJbtJ4+SfqcikgGSAQqHAFJ+iocUhmhRKCSEKCXsnYwL39780BHl98X9BxFPH7NbRC+Sd1Ok+uKrtvK5RAU02OdKOoAN/rAIp8610gO7ywHwlK1FASoChLpu5r0CL2pp49I3/6luJVHpM/CekjYDwWc8Inxsd4aG26EhqJL585o0bw5/M6ehUGvB/Xu8eptslhwMywMCxYuxJhx4zBy9GgMGToMjRs1w/vvfoKOnfth2/bdSEpJsff0GRQTHulTMSNoH/4y43v8m3dbNFo7AXvvBuN2XiKupEbj9JObWB1yFF7HN2DU0TXosXUW6s7sh/e8uqD61O9Ra+5ANFgyAl8vHY2eW+Zgpt9u7AoLQHjKY2SYdchTTGzT90LFwuYuquSPfhxx3dPHh5+KrgjH6+jnZWgvTDcyyXVE167GA5UiWPNykX7zMh7u/hHXpo1FwIDuCOjXBae7fIsjzethX9O62NL8c/jUr40vf/9b/OWNauj0tz9ia/vmCBzcE4FDeuKy1wjc27QKGSEXYUxLhmLQo8jKh3qqhF7s5SO/7Omzl4b0SAQqDAFJ+ioMShmRRKCSEaAXs3YwL39R80BHl98X9BxFPH7NbZCkrxhqjons6SvGRPpKIEBVhEhfaFIM+u5ciP+d2BV99y/Grdx46Nh2DBbWc/LMj/6iIsTFxmLalKn47JNPMGjAABw5fBjR0dHIzM5CWno6Hj95gkcxMUhMSkR8QgJi4+MRGXkHPtPmommzrti45QCys3NhtdBMO7UXmvYNfKRLwYzA3fiTT1f828TW+HqNF47du4oMcwGyLTpkWgrxuCAdEVnxuJ7+GEejr2JxwH6MOboO7Tf4oNasgXh/ei+8M+U7RgI/mzsYrVd6Y/zB9VgRdAxrgn2xJ/ISrqU/Qbw+C7lmHUw2K6hnSBzeyX6A4fPNBFcdAFqVjV6JovTIBW9Cnln+LlJlpJitgEo+oUGmMOpZ1euQd/8eYg/vxQ2fsfDv2Ran2n2N022+wqkuLRE0aiAil8zC7fVLEP7jMuyeNBbtPqmN6r/5Fca2aIKjIwbiRM+OONbuaxxt/SVOdfsWod4/4N7WdUi9EQJTbiasVpM2F5WT+OIeXfYjhgu7X7kgXjjcfeUyIA1+nRCQpO91Kk2Zl58WAuxNrWa5xEv7WSjwl46g9yxRj4VzG4RvDLfT4rqi67ZyOQTF9GRPn5zTV46q9KKqVAU56Ru4azE+mNwDAw8tRVheHPKtRlhtFtio144tgsJ+PdDm9hX7jXoDboWFYcLYsfioRg3UqVUbbVq3RteuXdGxY0f07dsXBw4cQGFhIStjGsqblZWNlSvWo12Hvjh8/AKbMqgyBDUnOqsBD3RJmB2wE3+a2gm/8GqNpuu8cfrBdRRY9aCeQKPNwoagGmwK20Q+01iAuIIM3M1KhP/jO9gcHohl109h7OnNaLJsHP4xuTdqTOuDmjP74+M5A/DR3AFosGI0vt8xF1OPbsDRqMt4asxGmrkQOVYDi5O2caC5jeqCIMW97uKj+6LYvwp6PJ9lIX0091Odq6cwisx0Wf2xwWrUITM8BLcWTkFgzzbwa90Qx5p9joA+HRC9fini/XyRGRbmxSNyAAAgAElEQVQKQ2IsDOnJKMxIRlz0PZw7fRIHd+9AWKA/EsKu4sm5k4jauAxnBnTAgaZ1cLbDNzjXqwMuTx+NhGsXYNRlw2o1O9VVtvKsWNFehUJ4lo28cLj7LDkZLhGoBAQk6asEkGUSEgGPIEAvEe1g3tJeKvy+oMf1K83lNkjSVww5x0T29BVjIn0lEKAqQqQpNPkxBu1eynrEuu2dh3Opd5FrNUBhi2zQaoh8ARQigCVP2GywmMyIvHULc2bORJtWrVCndm3UIAJYpw4GDBiACxcuwGAwsLSJ9OXk5GLb1t0YOnwS/AJC2ZYNIrHIt+pxI/MRJpxcjz9O6YhfTmzNtpI4/fAG8iw6GBQjzGz4KfXkgK3MaVHUXjpamCZXsSDZokesMRdhGU9x6M4VrA85jQWBB9Bv5wJ8ufgHRvr+Nq0HG9L6D59eaL1xKkb4bsD4E5uw+OJhnHh4AyEpjxCRGYc4fQ7yFQubJ8YfKw4kuyZ8XqTt4ZG8pC7Pkz1zbtjJekZtCmhLD/scYptK+PKiwnFn0TRcaP8lznxTB37ftUTo/El4eno/8mLvw6TLZYu0kC4NxTQRsbeaoDcbYDAUwmI2gOYCWg2FKEx8jMen98PPezj2demAo22a4WSHJgiZMQ7JIQEw5mZAUcxa36xaPq8L32PFwAuHu26UjRSRCHgKAUn6PIWsjFci4GkE6CWiHcxb2kuF3xf0uH6ludyGF/nw4rqiWxmGi+mxj0Y2MIp9nbAPJ7Z0fHHvApnEVezmCR+bTje5MMmwuISPMCEuEquKgy/eIrpyIZfKLQkqeyJJdzIT4e27GR9M74Nai4ZiXtBBJOhz2Pw2Kh+2cR1b9ZIIn8JOG23NoCgg0kdddWajCSlJSQi/GYbACwE4d+4cAi8GIioqCrm5uVBIVjtMZjOexMbjWngU4tOzS5K+IrDhmwduX0SLFWPx6wmt8csJrdB45TjsjAhEoiEHOiJ9ikVbnl8lpDQkk+bj0YIsRGR1NnKt0Clm5FqMSDfpEFeYidDEBzhx7yrWXDuFwXtXoNVKbzRaNhq15w7Eh9N74UOfXvh8/lC0XzcVvbbOx7C9K7A8xBf+CfdwKz0O8boc5FhN0Nms9sVu1AVhSj6rPK+vssubEKe25TmZIh0a+kpz56jdoR8JaK5dduQN3FoyA2e7NENgxyYIGd4Ld7esRubdcBhy02Ex6RhJU6h3WdtiwayYYbaaYLGa1CGbioXVOap7ZmMh7t+4jHlDBmF807bY07c/Tvdoh2OdmiHEZxwSrvjBmJ+p/kihtXec9FVVm/cc2Mp+ixcOd8seg9SQCFQYApL0VRiUMiKJQCUjILwRmbe0lwq/L+hVssUl2BA3x20buILouq1cDkExPUn65PDOclSlF1WlKmgpUpBsyMGWMH98uXws/jr5Oww9sAr381JgtJkZoWOszIH0MfKnkT76sGdjNGnBF+0UybzoJ1vpmiigoQjQ0755rCtR/QWDtlLIsBRi/dWTqDOrP/5jfCv8fnpXfLVqPOad34/IzDjkWnSwKGZ1UQ7tOWILH7EeJnWjdRq2SrME+WkuKmJDNWmuIg3ffKrLRmjCQ/g9uIl9UcGY5b8L/bbPx3fbZqP12kn4dNYg/GNKL9Tw6Yv6y8ai05a5GHVkPVZc8cXeyEvwvX8dd9LjWI8oEUuDYoGZ7fmn/XjzooXyEunxJqrspE9rkotssBkNyI0Mx81FPjjcuQlOdWuKqOWzkBp8DgVxMazXrkhRF1gh5KwWE7Iy0hB2Kwxn/c/g1MnjOOd/BlG3I5CXkwWSJWKYnhKHLauXouHHNdH88+Y4vnYLojaugn+/LjjRuRmu+IxAWkgAbAWF6g8T4pYjLxHGL2wKLxzuvnBEUlEiUH4EJOkrP4YyBolA1SAgvETIW+oLn8sz4aoxWbSRm+O2JVxBdN1WLoegmN4Lkj4xChEDZpVwU/b0laOcXnNV6h2jeXLnH99C182z2LYNHTZOx/mnEaC5dTQ/S+3NsxXPkRLIHSd5dlcjcCLRI7940BVtkW0uojmFKumj3iHarsFsUxBrzMbikKOoOWcAfjOhLT5YPAjfHViCOYEHcCnxPrItBTAr6vL8rN7Tvnsa4eMu23hdIH2M/GmbsRMhpN5Ao2JlWzhkWHR4kJOCqwnRCIy/i313LmG23y6MOLga7dZNQc0Z/dl8wE9mD0KjJaPxzfLxaLvKG5OOb8TW6/7YceMCTj64iXu5acimXkDqoaI9DtVZbXaX51vdjF5ApCQ82pBElTy6+itoetRLZjHT7B73kiNxIuHUe5cVcR23Fs/Esa7NcbRbM9xaORs5UWFsmwUb763V0rFYrbgbGYlVy5eia/cu+PyLuqhTqyYa1vsco34YhivBQTAa9DAaChF84RSG9+mG2tU/xFdNu8DX9wJyH91DzPb1ONevE3zbN0To9HFIC70CS34uKC37XpPuZaNcUhwy7pYrMlfKPGLuupKpwjDHekumcFO5W4XmyaQrGIFqifHp4JuzV3DcMjqJgETAkwgILTJ57S31s9Lk8kz4WUIeDuc2uGGukyVcV3SdhDwQIKYnSZ/s6fNAFXMnSvpBwGQz415WAmb57UTNWf1Qa05/rAo+jGxzvn1jazZcT3u+7G2CQx1WGYI7qapDAKmHr5iMUU+cwggTzaUbeGglPprVD58u/wFNtkxGy80+6L17CdZdPY2Y/BQYFSMjFtQzyIkeG06oDSske9kwQ4D1KhLRopPIJj+5+VaGgTYc1GZBtrEQsblpuJMWyxZ4mee/C5NPbcLAfUsZ6fvApzfendIDtWb3R91Fw/HJwuFotXE6vM/sxJpLvvCLDkOCIRe5ViPyta0h9DYFJiK1RUR2i1jvJqVfAkt2qQ6NZPbzIZKOblmAdq84XEpxfOw2upRyCNTKg+bTGbJScH/rSpylHr7OTRGxfA6y74bDYtCBlZtQFlbFhtuRt+E1YTwaNPgCrdu0xA8jh2PKpIkYNeIHTBg3BhfO+6OwMB9PHz/EigUzMXrg9+jWoQPadBqE42evwKjToTDmPqI3LcfFHi1wptM3uLd1DfSJT6GYjSrpczC3Qi45UKxASxYpv1Uh6bgTCU9Qs8UdlYqWYYTPRZ0VTeN+Me0qNFk0Q/pfAIFqCQmS9L0AblJFIlD1CAitMWuEhWuXxvH7TNilhOcDuQ3CN5TbiXJd0XVbuRyCYnoVSfooXjqE+GVPn4aJdJwQoLpBi6Jkm3U4ejcELVd74cPp32PK6U14qk9nq2TyLQzUX++Lq5ZTZGUIoLg4KVN7/WyM8NFWDPsiL+HrFeNRc3Z/9Di4CD0PL0XNmQPwydxh6LltAQ5HXUaWpZCtPEq9dha2zYKiziETPzbtPW3FxI/SEh4N5ld7GWlOoHqqdhFBU5BpKkBMbjKisuJwKT4K22+ew7yLBzDwwHI0WjQCH83oh79P74W/zeiNGnMH4ov5Q9F54zR4+W7CrDO7sfaSLy7E38MDXRaSTIXIV8wapoo6PFXAjOxiRJgNE7WByCgj22KeyM+sFhQ95OU42QErJR3+sa8oFljNBqRcD8bV8QNxqnldXBrWE0kXTsFUkMv2ceQknFyrDYhPSMKCBQvx1VeNMWzYEJw8dQIxMQ+RmpqCRw+jcSs8DAmJ8UjPTMPunTswaewI7Nq4DFMnjkXH7sNw6ux1KOYi1oOYEXIeV8f0w4kWXyBgZB/EB5yCKY+Ghipq4ZeSjzLd5iBx10X9oluVcnAbuFspiTonwuuB+CMMC3PCpkh9ZrUaXWk4OZssQ8qJgCR95QRQqksEqgwB4YXBGmHh2qVN/D4Tdinh+UBug/BScTtRriu6biuXQ1BMT5I+2dNXjqpUHlUiFTTEkzZjv5uThOlntqPurAHotG4K9t++hFRzIVu1ktJwqLLloh7qRyD95UM9FbZNxM2Uxxh3+EfUnjEIjReOxLQLO7Hk5gl8u3oiGiwbg+92LcD6a6eRbC6EsaiIET91b72KJX0sr2xlUBtooRZKQ2c1IctQgNiCTFxOeojddy5jzU1/TL90CJ23z8Mn84fgk7kDUWfuALYtxD9nDUDdhSPQZds8jDi0DkuDj+Fc4h1EZD9FdH4y2x6i0GZVt4dQzGyfQFqIhpNPcl8l0qfWEXU/PhpS+fjgDlzo0RqXerVHzLZ1KIyNgWIxs2edCp5GCXPSF3I1FJ27dEWnTp1w7txZFBTmwUrDP20KrBYzTCYjCgryERQchLlz52Pfrp24G3EZc2Z6o2OX/vA9cw1mGsGpKNCnJ+Levo3w798RR9s3RuSaBdAlPike4lmeB8ZR1/GhqODnxDG55167sOW58h666S7powV5jPpCZGakIzevABaFftCoeF7uoWzKaAUEJOkTwJBeicArhYDQ6pK31FaYyzPhKsopt8ENc50s5Lqi6yTkgQAxPUn6JOnzQBVzJ0rey0VkI9NciAO3L6HNci/UmzUYU05uQ1ReKht2SXE5VFn73DN30nGU4aSPet5o/h3th5dizseeO8FosWoK6s8fhQnHN8I/NgwBiZEYfXQtGi4aidbrp2DehX2Iyk6EQaGl/amnz6KtNKqtGMl7xsrR00d5ZQcxEyHj5KUeQOqxS7cYkGguxIOCDATERuHQ7WDsigjEtDM70HGdD75YPArvzOiHP0/6Dn+f3AOfLhqG1punofvOuRh9fAO2RV5EYOpDhKQ+Ygvn5Fj1bKgtkXA+vNMd0kdYqv1/qtUqleYZeHGXZ9uefzejKrJYkHHzGkKnjIZvu69wa74PCu9HsY3ZqffHfmgLw9K2GwGBQWjdug1Gjx6FmMcPoRRZ2bYP1GtIxE9RrLh9OxKzZs/EjBmz4O/nhyuBZzFu5BB83awtlq7bjcdxGTAZrLAY9ciOf4A7Py7CqW7NcH5YDyQG+anzCGmOajkPFWUtEg6S4LIyE+oev1XmZO2b3POnpbgquoyLJ8Rdl0JqoH3OLSvckoJcnaf6rPr0rPssXHsG2dDrInXPRjbPVht2TSlaTAZc8D+NCePHYtv23UhMzWK9vmr6Wi8gry/0GNLQ4Qrs6eb5JFvseXGIn4eXREheOSIgSZ8jIvJaIvCqICC0hOQt9YXP5ZlwFWWS2+CGuU4Wcl3RdRLyQICYniR9kvR5oIq5EyV91NCHFC1yQStQ3stOxjy/Pag3Zwhar56MzTfO4Ul+BiNlDlXW/qH0vHREHVFO/ZhSp1lZbApSjfnwe3KLrRz6ydzh6LtrGfzibiPFmIUkfQb2RlxE+zVT0XL9FIw7vgH7Q88jl5b5p55K2k+QPiy1DzaKm2/ETekzYmmfP8Y/44pdyr/jWXxXjUv8NqZ7lC4Nv7TQ8FjqKVUsbFGYHIsR97NTcV7bIH7k8U1o/+MMtFk/FV8uGYV/+vRF9am9UWvWIDRd6YUum2eh99Z5mOm3G0ejQ3E54R4e5aWyFUyzLToUKia2Xx0RQZ4/jqNqB80PJDuoh9BZhsu+iMvLrrR3AMnxg2ykLRrifA/hYp+OONymESK2roM5O5P1wqlkQ5Xm8RPpC7wYhA4dO2L8+HF48vQxK0/ar4/v92e1WrBnz27Ub1AP//z4I3zVuBGaNqyHD//+v/jvt/+KOp99jTnzVuLpkwSWjtmsw+PTB3C6X3sc79oUjw5sgymXtnAoH+njNlMOKK8FuRl4cCcCsU9ioTeaYaF5m1YjsnOz8PhJLFIzsmCxqmlyXREvNR4iOMWhzMeEi4c/quRJJcxMtFicQ1/8rma6YrD2PNAqu9pCS1a2CqoChbZgKVm57fGoJtCzodYrez3g8Ws2EA4sXi1JVk856aPnhEg7W6SJfqSxMAJP8mazAadPHsXggf2xfv1mJKVkqtu30LNapMBkNiApMQEPHjxCbm4BbIrW813SYmavZkpxprkt2jeBmEW6RfI0r5TrkY96HmllWJYfLkQ/StHepEL5OCUiAyBJn6wEEoFXFQFqBbWWkDnCtcss8fuajksZTwdyGzTTy2QK1xVdT9tL8YvpSdInSV9l1DlXaQj1kMgD9WD5PwxDp/VT8aFPH7TfMA0br59FTH4GW3SFxOnTk6u5ilIM43Lctd/TAuhjMN1UiNMx4Ri+byXqzB6CBkvHYuWVk4g15DDCQ3MO72QkYNKJreiwcQa6b56NRad3I0mfy/bKYx+u/Bd6nhC5gp302a3aXdyDIH6cuvTbaa0WmWY8fSCSvEgUWRhtOaAtCkPDNtNMOtzOSMSVuAe4+DQKO66fx/Tj2zD6wDr03LEQ9Rf8gOre37HzszlD0Hy1N7pvnYvp/ruwLeI89kQGIiguCvH6HOQpJhhoVVCblc1hpM3LaS4jEU46ifTRNYWrttibcc3qsjscyucVNpdhCFE7pigwJMUj6sdlONf9W1wc3hOxF07BqivUCIdWKPayKWKk4EpICLp174bvvuuOK1cuw2Ixl1igh0iPn99ZDB46GK3btUXbtq3QrkUT1PpHdfz5z++jfsNWWLF8AxITklnGqWzSw0JwyXsojnX+GpHLZqAg5h5sVnXD9rKjoWoU57cIVsWMOzcuYsKwfpg+dTpu341BocWGAkMuQm9cwao16+F3Pgh5hXo7JyKiwUkEj4titvu13xjUABoqS3sdqosV0eqmNrHnWcwEj0B0WbxkJ+mp8ai/gNhgsVhgsloY9lRf2H9i38TfLDbYrFTHaeFeRd0jkcgyxS38gkIkjOwjQm7T5ktSXESeaEgu9c5aFaqX6o8jJtrWxGJk23IUKTaYzSYkJcUjIuIWYuMSYDSZ1bJTrLAoRhQW5uDQgf3wnuiDy5evQ683qMTPps4DtZNfrceYzHM8WJgdE1WC/iq2IjaclMqDDnqerVYjS5c9Q3zsMVu8WMWCR+OYhryGJH2yEkgEXlkEhJaNNYfCtcs88ftM2KWE5wO5DeLL091Uua7ouqtbHjkxPUn6JOkrT10qj65QD2mIoMmm4HFeKtZcP4kmayfifZ/v0WadN7bevIBEvY6tPkkrbhaTqNIT50mUkKQPtaIi5ChmnIu9h8H7V6PWrCH4ZOEITPDfiWvpT5GrmO2rXGaY9Nh+4wL67VyE9munYMT2pbiW8JCRVOopZB+ulABPjFztIG+xvW6SPhYRj6Gkq5IqtYfUcf6dSATpHpE0k416AU1I1eXifkYiwlKewC82EsuuHMWoI2vQdeMM1J05CB9M7on3p/ZC7bmD0Wj5GDRbPh4Ddi3G/PP7sf7KKey7dRHXU2KQbMpDpjkPOquODQc1aeSPiB+RTsornRyKkta7f2XXt3tK6vJg7lKC6tDOEFz0HoaTHRrj/oYlKEh6CsViKjaIFJh9alkQKXkQ/QCjRo3EJ5/UwQ/Dh+H8+XPIyc5ixMFsMiIzMwMxT2IQGXUb4RG3EBZ+HZcDz2D8yOH4qmkHLFm1HTGP46E3mNgHPX2zGzPTcOfHJTja5Sv49u+A2PMnoRj1xXWlZHbcuuJ5pXImYhJ87iBaNKyFjz78CMvXbEVcWg5y9Vk4d+E0xoybiD37jiI7r5DVdZPRiNsREdi9cxfWrF2LvQcOIPrxY5gsFuTl5yMkJATBgReRnprGyDvr5bTRjwuAzqBHeGQUbobfRXZuoZ1E2o3mhgkuEbLcnGyEhl7F7l27sWb1OmxcvxnHj5/Cw4dPoDcaVSyKihAX8wQH9xzAulXrsHnDZoRcvoqCvEIQOctJT8IFv5MI9PPH1YuXceb4STy4cxcP7t3D4YOHcPbMaSQnJ+L+g7u4cP4cQi4Fw+/kKfidPoPoh9EIvhqC/UcO49btCBQW5OLR/bs4uGcvli9fjiXLlmLthk0IDbuHfD3N9wTy87JxJSQQa9YuQ8f27fBhjZroO3AwFi1ajDUr1+LIAV/EPE2E0ULDoNW6blF5qx0O7mFVjf0BUpKTcfLUKazdsAFr1/2IEydOIzEpBVaLFYrVjHt3buLosQOIvB2J8LBwHNi7D5vWbYTv0dNISkiHVVFbGS06noR0IUmfrAQSgVcXAf7S0D4aSv1y4PJV2RJyG17kQ4frim5llJ6YniR9kvRVRp1zlQavh9qzQ6Qhz6pHeHYspvjvxMcz+uIDn57otHEWdoYHI1aXC+rFom0HeI+fq2ifF0afTkRQUo158H0UhkH7V6P2nGF4b3JvdN06DyefRiDDaoRB28Sd4qLtHMJSHmNJ4H58t3Emem2Zhw1Xz+JOagLbFJ2lx/PCXc0IuqxI0sfzRvlwJH38mkiB2htIH6bq0EsigDR3kfbxo/l7cQUZuJ0Rh7MPw7Em6Dimn92FocfWoem6Sfh49iB8OL0faszsj1pzB6PuguFotnoihhxegzkX9mJ3+DlEZjxGkj4bKcZ8tj2EXtsknnpWOOnjtr6Ia4fR7ikZCw/mLr0rbGYz0oMDEPBDL5xs3wgx+zfDqMsGzc2zv0t4e6dhRAu2ZGdn4eRJX3z/fQ/Uqvkx2rRuhcmTvLFg/jzMnjWTubSIS76O9mi0wGQxIDstDssWzEWHbgNw5NQlGM02dUtJ9oMCYDEU4v7uDTjaqTEOdW6CRycPQTEZKoz0ma0GBPnvRYdmdfHn//4TOnYdgEvXbiO7IANn/X0xeowX9u47jux8HfIKCnDh/HmMHDYMjeo3wMcff4zPGzbApOk+uB8djdTUVKxYvhyTxk9A6LVQpKYl4cyZEzh2/Djik1KQmJKErTv3Yu+Rs0hIy4FCD5948EIgbGnPSsWC1JQk7N61HX379EK9+vVRs1YdfPJZPbRt1wUbN+9AamoaLAYDbly5jKkTvNCkwdeo+dEnqFPrE3zfvQeOHTqOnMxcPLl/CyMGf48uHdqjV/eeaN20KaZ7eWHG1On4tnlLdOvSFSdOHsXOXVsxqH9/9OvZCx1atES7Fi0xY7oP+vTvg4ZfNcG8+Uvw6MEjnPE9ge+7d0PNmh/jw398gI9qf4Zlq3chIT2fDe9MT0/GmjVL0KRJA/zpj3/Av//nr/Hnv/0NNT76J+p8/An69BiMwEuhKDCYmTz9CEVboThCQvCwsCIgKSEBK5cvR/NvW+DjWnXwUc3aaNK0ORYsXIzHMU9gMRlxYM9mdO/WAaNGjsLgAQPwVcPPUbtGDXz7dWts2XwAKWm08qwIuvRzBOTwTo6EdCUCrxoC/OUhSZ9nS47jrLm894D9Wq7Ns6IPSHWBBtUUrsIN49fkih9U7L5wkz4+aWEEctX4ncV5nJXlqnN76Jf+4jMpKQleXl5466230LJlS0RHR1eWOTIdDQEiKybFjCxzIc49jmTk6sMpvfDB9H5otWYa1l07i4f6LORaTfZVPcsKHm1LkGU14WRMBHrvXIKP5wzFu1N64uvFY7D6ii9iC7NgoOFWvA1iWxnYkG7MxYGIC5h6djuGn9yEATuW4UTkNSbLbBDqPHseNMMo2FOkj/DiRI+7RJw56VOfOfXpZmHs2S6eE0hbTuRZTEgsyMHD3FSEpsfg+KNQbIsIwGTfrfh6/kh84PUd/u7dHX+b1hPvzO6PGnMH4avlY9Brx1wM37sUEw6vw+G7VxBnzEG6uZARSlqNleyhlF/04HDa2xYXEdll6B4RDosFmZcDETSiN063+xIx+zfBqMthQ/7s8TiQPhpCSMM5c3NzcO3aVUyePAkNGtTH3/72P/jDH97Ge+++g379+iLoUhAKDTo2JNFCxDkjESsWL0D7rv1x9HQwzFZ1RVDq/aHTrC9A1K51ONKxEY52aYInp4/AZtJ6t1zkxZ0gnl8qS7NVj0C/XejTtRmaf/MtmrXojoXLNiHqwR2c9juJMeMmY8++Y8jKyUPU3SiMGjkCrVq0wKyZM7Fp40YM6NcfTRp/hd07dyPuSSzWLF+B/r16w9f3LC5dvoy+A/uiTceOOHv+IqLuRGLBoiXYc+gUUrML7XPf7DZzw9iKsxYUFubhyJHDaNWyFRrU/xITJ3pj+47t2LZjB5YsW46de/YgLjGO9bqNHz4c9ep8iuGDRmLT+u2YM20WWnzdBD2790Zw8A1EhF1BuzaN8I8PP0C/Pv3RrUNb1KtVC717DMDggSPQslVL/LhpHdasX416X9TDN40aYli/3mj4WV182eBLDBo8CG3ad8XIUZMRHn4XTx4/gf95f+zZsx1e437Ap59+ilnz1uJpcg6sRYDBoMetiFDs37cdA/r2waef1se4CZOwa9duHDl4FBcvXEZicjpMVurhV99lYlvBMeE/yhj0OmzZ8CMa1muA5t+2wsL5y7F8xSq07tAGjb76Cps3bkNGSio2rV+C2jU/RPXqH2Bg/35Yv2oRZvt448svvsKwoZMReTsOVkpIHk4ISNLnBIkMkAi8IgjwVlT44GIt67PM5/LkVtXBbdBsLpMpXFd0KyMfYnr8I4h9NdFLrHjomPjZxlW4efyaXPvbj12UvJakjyMmXVcI8CqjViMiJDQPR0GqPh9nH93CbP+9aLNuGj6aORAt10zBRN8t2BUegIjMOKQZC+09f0TmaI6eSOSJeJiLbKDNyXOsRrbdQeDjO1h+8Th6bFuI2rOHof6isRhxeD123grAvaxE6G0WNqyTflTnttFHdqFFj7N3r2J+0CEMPb0Z3y6fhHXBJ5Gsz2Xz2aieuyI5FAePi+67888VTo5hz4pHtUK9y8ar8UzwCOiaPfOqXWQbYUc9gXqrAXmWQmSaC9jm8PvDA7Hy8jHMDtiPfnuX45uV3mi4ZAw+mzsYNXx6ovq0Hvhwek+02zAFXkfWY0XQYfjG3EBoWgzuZychzViAQsXCTuplpFVaNcvsTQZHTTNLtVK0WbjBvdzlWeKRseGdlwMQ9EMvnGn/JZ4e2AKzPo/NDeMyzGUQaAhqPX50ZbaY8ejRQ5zwPYENP27AipUrsHnTJgRdvIj0jHRYaH4a62FVYNTnISL8Jk75BSEmjoZE2tcpYbCb9fm4vWstDnf8Esc6fY3Hpw6zTdopnX6vmxYAACAASURBVBc9eL5V0mfARf89GNqvM6ZNnY1RY6ajQ+fvsWnrehw7dhTjJ0xnwzszMjNwaN8etGzWFEOHDGY9mqHXrmL1ihVo2bQZFs5dhIf3HuHI/v0Y0Lc3tm7djS07dqNX/35o0qIltm7bi8AL5+EzwweHfc8gp9Bg78m154QbVgRYFRPS0+Mxe6YPmn7dAvPmLEX0/UcwGgyMUCUlJeJx7CNk56XjtO8xfPNlI/Tt0QtXg0Ohyzcg6Wk8lsyZh+bftMSmLXsREnwendp9g5atWmPP7n2YOWUCGn1eF/PmrMC+PYcwsF8vrNuwGivWrkXTZq0xxWscDuzYhHYtWqFtq47Ys2srps+YhfFes3E9/AEblkmLu+iNeTh5fBdaNKdFeNYiNiUXNEyTsDWaC5GZmYiVy5agfdsuOH7iDHQ6PRtuWkTz7Oj50TJPDq/DvFy1msUWjslMS8HoYcPRvEkzbNm6C8lJGUhLT8e+Q3vQonVLDBk8Avfu3MGmtfNRt25t9O4/GOfOn2cYPrgTghHDhqNb92EIDLoNk0l29XGMRVeSPhEN6ZcIvEoI2N8ixTziueYLL5vnynnyJrdBS8Ph8vkpc2HRfb5GxdwV05OkTw7vrJhaVWGx0EcTrUyZZzXhaX4mdoYFoP26afjYpz9qzRqIb5aPxYgDq7EzMghBidGIykpCulnPyIXBZmULrJBLC8PE6rIRnPoIhx5exxz/Pei+YQYaLhzJSGTjReMw48xeXE+PQ4apEEYbDdmiTziH9of25FMsCH4chTEH1qHZmilouGA0RuxajitxdxhZ4qsMOn7Ui3GRv8IPMQHHyPk9x3Ahf9wmspsPBaXFJGjhlkxTPhINOXiiy8aNlKc48/AWjt0Pxaqgo+izdS6+WTkONecORPUpPfDPKd+j/twhaLtmEr7fMgcj9q3C+mtncTYhCgFJ9xGeFYdUYy4KrAa2KigNMyWCTUNniZgT8WS2CDZTSPG/4jIRRNScaQGc9NECLmfaNkTs/q1sqwS+giOL3wUWPIjSojl+RqMROp0OusJCGPR6WMy0sEvxpz3J8R5Ck5kW/qAfG1T7KBP0w4PZUIDbrKfvS5zo9DXr6VPMFdnTZ8Al/734YWAPrN+0G4eP+qN1qxbo1r0tVq1cjQnjZ2LvniNIS0vCqiUL8M/33kWN6tXxZcMGaNyoET6tUwfv/u3vGPnDWNy5fR/XQ65g5PCBWDBvIaZNnwOfWXMwdPgYzJmzFKtWr8FYr3E4de488k1mey+4YzkQLharAfFxURg3cij69hiM4Is3YTYWd4MqFgsMpgLojDnYt3cnmjRsjKXzFyMrLZMBWGRR4H/qDDq074L5C1ci4OwJdO/UAoOH/IDg4GtYMHsqunXpgCPHz+NKYDBGDu6NNetXYtGa9ejcbSB2bNqIwDPH0LVzN4wdMwUhwWexdNE8eE2ai+thj6CnYbi0TYu1EKdO7kTz5o0wa/46xKbksWGa9PybFD2ys4n0LUK7Np1w6rQ/TGaTNlpFLWgqb7YwDs1l1RYw4vWIXLUumZCcGIuh/fujf58BCLt1B2aLjc3jexr7GMN+GI52HTrj6pXL2Lh6Dpo1b4pNOw4jIzsPBnM+kuPCMH2aNzp0GYBT/qHQE47ycEJAkj4nSGSAROAVQUB4Kzu+UP4fe2/9ZseNrovmt/kD7tnn7nPP3ntm9p7MZOLAJI6TmBkbDHHMbMcxMzMzM7PjmB0z221mbAY3M3cvXqv93keqUrXW6rZdVaaK85WftqqkT9KnV19JepdUUqUlEEJSvErl3qan0EHKoxIvKVS6FYKyKwW/tVs5PyJ9RPremqGZTFi1Tz5wel6G5JIcbL99Br23zkfDRcPx2aTu+Ne03mi2Yiy6bZmNSb9twvaHF3Ag8gb/OxhxEwcibuLX8GtYeGk/euyYhxZrJuBbNkM1sRtqzh2EjlvmYMnlw3iQncTJoTKkV0fu5Y42L8NISXRBFiYe3YaGi0ah6eLR6LZ6Gk5E3ESJ165tLV9hxq+StEyiUnm0gHfZT0iE+XlW/sCw5rqrM19sxoPNurLloqzsbCkom7UrYjOmRVm4/Owxdj25hCmnt6Pn9vnovHUOgleNx7fT+6DK+M6oMrkHai8ZgdZbZqDt5hkYcnA1Ntw5iaMxt3A35xkSnfl8Uxg2A2vnOyw+95tB4vqoOjFdlGd/4sdLIsrIcPZ4kHn1As4O7IrjobWQtGczvDa23b6ybT8T1eKI+zfsiplmr6MUT7avxoHWdXDox0aIP3nwjc/0hZ3eiUE/dcKmbXsRGZ2IqZNHoX79b9C1S3f07jUcu3YfRGZmCpbMnY4vP/4fVPvX52jWpBGaN2uK4JBgtP2hLZYtW4tnCWmIiwzHpLFDMXjAIAwcOApr1+/AksVrMWrkJAwbNhpjx0/Ejdv34GRHF7zgRwNWR26PHSlJTzFiSD9079IXN64/htfDpsP42k8893rh8pSi1JWP3bu3o2Ht+lgydzHysvOUyvWW4cLps2jd+kdO+i6ePorOP4Zg8NCxuHn7IRbMnoyePbrg1PlbuHn1Ogb37YwVa5Zi/poN6NB1MH7dth1Xzx5D547dMGnKAty/fQFLFszCuPFzcet+HOxuhaA7vCU4dmwbmjati+kS6VNmURnpS8ayxXPRKqQNTqikT/ywoxB7dsYnOxKC7WTr4TOEsikxLFxeG9JSE/Bzz574uVc/PH4SDb7RqO85MlJTOekLafMDrl27gs0r56B1yzY4ePQaSh1lcHhLkZ50B1Mnj0HLdr3w25mbRPpkgKV7In0SGHRLCPyuENB65fLO/aX6Sx3+S+XeZqDQQcqjEi8pVLoVgrIrBb+1Wzk/PihVh1TqvTLgo2/63hr+lPALEWCWqEybcGPkRMRV5kZGaS5uJYVj840T+OmXpfh+0TD818TO+O9JnfHF7D6osWwYaq4ciRqrRqHGqjGouWoMaqwYia/m9cPfJnfGnyd2xGcz+6DtllmYf2k/zsU9QHJxDj/fjhEb7ZLfDc2TLYEsQ5a7FIcibmHInlXot3Mplp7fj/tpMbD7HNp3qx8K6WPl0KavGCbqQJ/RLzbQZTuC5rlLkFCQgccZibiX/gxHw29jwdlfMeLgGjRaNRZ/ntoV/8Wwn9QZ/5jRC9UXD0WzNRMw5Le1WHLjEDbcPIoLMfeQUpKrngno5ZvssGWg7AgIfixEmUc5DiJgBlZVqbyjYB5eH4ojn+D2rHE42aYuHs8ai+KIJ3iubsfP47D/FNPihF59fO17YSqC9DmSEnBv/mQcaFUbl0b1Qta9q3wXUW7fQtigK3QVxCTs1A4M+qkjNm/7Fdk5xbhz4zx692yNzz77HA0btcX23YeQlZWOjSuXoMF332DgT72wf98vuH79Cu4/uIvr167i7v3HyMsvRnpyAuZPn4SWzVuid4+hOP5bGI4ePoc+ffqjdetOmDNnBaJiE/n3fEIP5mp0XJ3qZDtRZmc+w8zpE1GvQRPMmb8MCfGJ8LrcKHN7kJ+bjbS0RBSW5uD48cNo2qgRenftiZtXb8JZ4kBhdh5WLV2O5s1DsH7jLty8fB7d2rXC0OETcPPOYyycMwU9e3TFiXO3cOPKNU56l61ejHmM9PUYir07d+LauePo0rkHpkxbjPt3LnLSN3b8XNy8Hw+HuqePTPqm8eWdykwfm71j30sy0rd44Sw0qtcAWzZtRW5errK8V91Eii/xZN/rqj+OBNYre3a4S5CaloCh/fqjZdNQ7Nv7GwrzS1BcWITjx44gODQY3Xr+hPBHT7FrzWL80KotDqmkz+m1EenT+X4Q6dMJFIkRApZDgPUi6iU6FvFcqSuEpHiVyr1NT6GDlEclXlKodCsEZVcKfmu3cn4q0VMG22w8RN/00UYub83yXpkwsz+ZcIhnNutk9ziQWpyDK8kRWHXrJEad2IouO+aj5uz++HxSd37kwMeTu+Fv6t/fJ3fDl1N7oeWaiRh5bBPmhx3C4Zi7iCnMQInbrhysLo5cCHgnOAtQl2kxHdjgjh1Wnlyaj313L2PL1VN4mpeKPGcxPGVuZaZPzEextNilfmOoDIyVd4uXRySuiulxKsSrTF+Rr0hQyIjnl7gifdlV9Fd2AmV1wmfc1MG9JscHweyMwOfId9kQV5CB+1kJ+OXJZUw7twujT2xB912LUGfhMHw+uReqTOqBb+b0Q61FQ1F/8XA+Uzvj1E4sDzuMjTdP4WJyOFLt+Shyl8Lmc8Lhc/Flt4wAChzZt5tscM4Ilh8xZeey5eUgZsd6nGvfBCc7BSH2t33wlZTwM91YfA59uSMe34jL4GXLPn1lXmReu4QLg7rjSNsGCN+8BLbMZDz3eRV9X1IPLwsS1cmw50c2nN6NAT91wuYd+5Bf5EBxSQ42rF+EL7/4Al9Xq8/9c3KycefKJfTr3hXNGtXHwAF9MXP2NMxbOAczZk7Fjl27kZCcjKysFKxaNh/VqlZFr14DcO9eOG7duYdOnTujZp2GWLN+FzJzCivHSVnrqJBpnw92WyGOHNmP5kFBqFWnHvr3H4DZM2Ziwdy5GD92DNasXgG2vDEuLhqDBw7Ad1XZrpjdMXPSdIwdPhpNGzRC+3YdcfrMJTy4dRXdOrTBsBETcfveUyyYNxW9e3XHyfO3cCPsKid9y9cswYI169Gl5zAc2L0bNy6cRLfOPTB9+hI8uKuQPj7Td08ifZ5iHDu2HU2b1cO0OauQmFmo7MKpbpJTVJiO7VvWom7NGmgZEoxJkyZi3rz52LRxG54+iYbTyc5cVMxJ2KVcd6yOGHErLM7DlnXrUb96XfzYpiOmTpqGieMnICS4Ob6vWR1rNmxCVlYmtq6ei9DgEPx65AJKHF6+xDQ96S6mTh6Nlu164rfTN2imTwZYuifSJ4FBt4TA7woBadAiGtSX6i+EpHgvlX8bgUIHKe1KvKRQ6VYIyq4U/NZu5fyI9NHyzrdmaMYS1oiEIE9ydH6wtA9unxsljPzZChBZmImwxAjsuH0Oq68cxZIrhzHv8n7MCVP+5ocdxJprx3Ei6i6e5KchoSQP2S4bHD52MLSXL19kRIZf8juh5sv0YeHsj5E+ttkJ25kyITcdEVlJKPI6wA5v15Z9CX3VtNhZZeywaEYEtLLJM2giH3VJpYge6CrJKSmIMHZotnJ4dpmydE4EBLhi5ol5+3w+/m0a+z6N3XPSJORZJoEXz1gh4eJ7P6YFu/j/PFx5YP6MmItzAfMcRUgqykJUQTrCkqOw7f5FLLl2FNMu7EGHTbNQY9ZAVJ3+M76a0RfVZvfDd3MHoPbCoeiyfT6m/7YN266dwPX0aMTas5HoyEWOu4QfN8G+A2RnA/oYpmwPe1kHVi6nA0mnjuBCzzbYF1QdDzYugys7o/xgdC6vYMnI45v405Y7ssPCPU64HcXIOH4Ql3q1w8nOIYg/ugfu0iJeX5ykBuKs87m8qOyQdQ+uXzqKUcP6Y/evh1FQ7ITTZcOD+9fQu09vNG3xA3b8chC5ObkoKcjDxbOnMLBfX9So/i0++efHqPLFPxHSsgU2bduCtMwMFJfk49dftqFe/ToYNWYsouLi8Cz5GYaOGILmwaE4cOgESmzsm0TlKteFVYH8Q42iW2paMn75ZTf6/NwX333/Hap88gk+r1IF9erWxaJFC5GUnAiH046wsMsYNXwEateojX9+/AmqfPIp2v/YHrt370FqeiYin9xH315dMXrcZNx/8BTrVi7B8EEDcP7STdy8cRNjRgzAhs1rsWrTFvTtPxKH9u3FtUtn8HOfflgwbzkePbiGpUsXYNLU+bjzMAYur7KChRGys+cOoV271li4bCNSswv5t4rsXWeE2mEvwN1bVzFy2BB889WX+Pjjv+HTT6vgx7YdceL4WZSW2rRaE5hoHvz3njK4fU54vC7ER8dg6fzFCG4egs8//wJVPq3Cd4idMnUKIqKjUWovxJYNC9C+fTscPnYRNgeb3XYhLysW8+bNQPuuvXHsTBjsDrecBd2rCBDpI1MgBH6vCEitp+hUXloUISTFe6n82wgUOkhpV+IlhUq3QlB2peC3divnR6SPSN9bMzRjCStD8fL//WJrNqvM8LDBOtvsxe71oMBpR5ajBCm2AsSV5iBW/YsvzUWavQiFHhffwZMdxcDO+OMHiaukj5E5ZdAqTf+opEaZ3So/6075fscLp9eFEo+dH07OiA6L73epurIzyxgJKCrIQ25OFkqKC1CYzwbhhXDbXSgsKEJWTg5sdpsyiwbA4/WiqKgYWdlZyMjIQE5uLj/Ims1s8T+fj28wkpeTC1tJKb/PzclBVmYm8vPy4Ha5NFW8Hg8KCwp4OiytkpISlJaWorCwEC6XSyOALocT+bm5yEhLQ1Z6BoqLijkpFISKlc9vGZtWFwIo4Sp1wwbOYmbQ/dyHYq8b6c4SxNvz8agwHcdi72Hj7TOYcXo3flw3DTXnDsT3c/rji2m9+Lea303/GU0WDkfPHfMx/MBqTD66GbseXsDN3HhElmQg01WMUq8LTp8X3jKGC1tmx2Yb2fELDhTGReDB4qn4rU0dXBnZG1lXz8FdXMAPW1dInjLwZzX/Jv547TPzYZvSlBYi79FNhM+djPPtgnB72mjkPb7Dz+h7HcLHKrUcdlZmHzLS4nHl8nlERcXB4fLC63GjqCAHN2/dwqkzl/iB8S6ni88wlhYX4sGDu9h/YC/WrluNdRvW4Lfjh/mh83aXAx6PCwkJMfjtt8O4dec2iktLYHfa+OHqJ0+dQWJSGrwvOCiO2QfTh9e7+kMJOwajoCAfjx49xMED+7F182Zs27IVBw4eRHhEBGx2O7cpu8OOp0+eYv/+A9iwfgM2b9qMsLAwZOfkwuP1oSA/B+fPncL16zeRm5OH6MePcPtKGNIzsvgumNevXUZ45BM8jYrG+YtXEBUdidSURFw4dwF3795HRmYS7j26h6u37yM1Nx9udQdW9uNRenoizp07i/tPolHs9PBvFfkPPGUe/m1iYUEOHj96gH1792Djxg3YuHETjhw+ipjYeLjYkuGXXCwdLz+6xAePy4205FScOX0WW7ZsxdZt23Ds2DHExcfD6XLB7bYjIvw2zpw5g8TkdI4zw9NlL8aDB/dx/MxZxCUlw60eE/GSbP+QQUT6/pDVToX+IBDgvadSEtHBvbRcQkiK91L5txEodJDSrsRLCpVuhaDsSsFv7VbOj0gfkb63ZmhvMOEAm+UpS35shZmYjWMzcvyPkQA2+GKfe6l/bFZGEBhG2ARB4cRNpMcH2MpAlp0x6f+nHHbO4ip/jDYEXMyj7Dk/FDwvJwP7du/A1InjsWzZQsyeNhlrlizFqaMnMX/eIgwdPgKnz5zhgz+Xx4OnTyOwYNEidO/eHZ06dcKECRNx5Rpb2uXmg1J27tepE8cwfcpk7Ni6FVs2bUL/fv3Qvl07TJk8Gffv3YPH7eE7TkZFRmLFsuXo2rUr/1u1ahXWr1+P5cuX83Mo2YwfI4LXrlzF1MmT0blDB/Tp0YsPvhMSEuFTZ9JYcdjyTU6Q1eWdEgOR2UiFewEpi8926WS7qhZ5nPw4h8iCdJyMu49dT8Kw4eFZjDyyDi2Xj0PDhcNQfe4AvlPrl9N645uZP6PpsjHovGU2xhxej12PL+FGdjweFaQhyV6IIp8LJfzPCYfbBmdJPhKO/4pzvVviRJu6uDNjDHIe3ILX5eTlYDbByJ/Q7U24LLEyrwclseF4uHgqzrVtgvMdQxG7ayNsWanwedlZpQF2YvKRac5Itcdth91WDIfTyeuK+fl8XrjdHjidHni8jHyrM3FssxyPGzZ7KYqLi1BUXAibvQRur4uTE0ZQXG4n7HYb3G72gwCbFfbxe0ZMGOF7kfoK6Ss/M5K9U0rGz3m5+XENNjvfCdXucMDtZcd3MMKtmIvH4+EkkP0gUVJayt8FH5s1Zct1PW5+1IPb5YbP44PP7YZX/cGCzfY6HKWcnDrdbtgcTjhUAuuwO+B0KLOfTlYutwcO9iOB+iMPKw3DipXN5mbfkLJXls3qs/eazSR7eLjX6+H5sx9m2I6uLF32fvnNkr+gHnk9MdRYWX1lYAS8xGbjf6U2G8eBY8frzMF3jeXvnGh/GP4eN0rtdjg9HvjEh4QvyO+P6k2k749a81Tu3z8CUq8iOuKXFkoISfFeKv82AoUOUtqVeEmh0q0QlF0p+K3dyvmJQQHvnJQBAuv82ACPdYxMlF0iivqoPfNwERgozPs7lhYdzi5wI9ckArKNcZstP//OzxgD5CoLE4Mx2a0o9zLSJw1wpXfEr2R8OaoHWRnJmDdtCqp/9SUa16uJujW+Q+M6ddGtUze0aBGKat9+j1lz5iE5LQ0PHj3AhIkTUb9BfdSuXRs1a9ZEtW+/xfARY/A0Mp4PTAsL87B62TzUrlEVLZo1QZtWrdCoYUNU/eortGndms8WsMFpfGwcZs2cidq1auHbatVQt25dNG7cGFWrVkXr1q35bIrdbsepU6fQq2cP1K9XF/Xq1UWtWrXQrHkQ1qzbhIzsPH52GTtcXplJU7a7r4iV1EC8DH9JjLUtjJiX+JzI95Qi3VWIJzmJuBj7AEcjb2PDrVMYtm8N2m2cjfrLxuFvU/vgPyd2wyfTe6P2itEI2TITnXYswKzze3Ew+hZOJz7CzYxYZNny+bEBeXGPcWPmCBxp/i3OdA1GwoGd8BTk89lSNvB/MYXxq0VdD3zgzg55txUj/cJRXOn7A443+w73Z4xF3qPbcNlL+YBdQKMr0ZcICbvlxIyRP6+63FWdYVWW9LLlvOxoCZZr+aUQG4XcMKLH/3xu1fVwosdmtL0+RjIClgCXJ+N3x/RRfkhR+w2N9KkVLkkzbRjZE4RP1k7go7hM9zL+x6Ozd56THqX0zI/j7vPyH1eU/krZWIb3W4yEsx9e2DeWPrVcar2Xz0oq/ZqLnS/IfzRSCZ/6Qw8j0fyPGbysnFQePbdiiTVLgs3We9kyZEZqxTEg6g8pol41VyWozF75HyPebFm30EVP5n8AGSJ9f4BKpiJ+oAiwxky9dLVrQkiKJ+K/M1foIGVYiZcUKt0KQdmVgt/arZwf78/UjlS9J9IXxGdC3hr+lLBxBCrYrDIO8x9AasMlPiBkT36DtYA0XhXGZ04CZvrEgFEMnnkelZSG+Xt9bCdDRvom4ZvPPsWAPt0xacxI1K3TAKEt22LW9Bno1aMXJk6ejlv37mPF2hVo07YNxk8Yj0OHDuHAgQMYOHAgQlv+iAMHz8DhLENhfjaWLpiCz//5Z076VixfgQvnzuPXPXuwccMGPH78GPn5ediz5xcEtWiBTh07Ycf27Th9+iTmzZuDevXroVWbH3D5chji4uIwfvw4/NCmNZYtX4KzF85ix86d6NS5OwYNGok7DyJQys4V44N0tnzy9UifBj8f5LK6UWasGHlhRIN/M+lzo9jrRJqtAPcyEnEhMRrr71zAgAPr0GnnQoRunIqqc/vjfyZ1xcdTeuCbeQPRdOU4tFo3FX13L8OqK0dx9Ol1hEVexfk9S7C9ZzNsCPkep8f2R/qlM/AUFSjfWGrERNFDzEz5uxJLFXWsFUIiNGXP4S0pRs7Ny7g2ZQiOhHyH012aI3bvVjhy0vhsDVuGKqKKpF7HZamxf7ytZjNYXhcyUpJwLewyjv52FMeOHUdY2FWkp2cqM7ZqZtxuGRFS7VomfWwDGlYXbAaMkz7+PSojPtJ7JCstFUjoI1wFRwkjKZ6IJlwpqMKtlp4aIj+ze+V9FN/MlhNKuV3gZSrzwO4sxs1bYbh2/RryCoq0qnaxWWhGdPlyzPKZfZY2awP8ysKUlq/AZzmsknulzExz0TTxA/+0pbG8TKL1Ukmf+MGFzUpGPI3E0ycRft8UVpLNH8rro5TkLDgczj9UoamwhMAHgYBoCUVfIT1XWj4Rztz3dQkdpPx1qyPiyq6Uzlu7lfPj/bnSlbKeSOlIaaYvOjr6rcFPCb8ZBIQZlw/wFBKh/UKvDpr8chORdLkqKeHLQJUBoPjlX3lj1PfGL4PywRzbECItPQ6zp05E8/qNsGPzBhz8dRd+bN8DoyfMxOVzZ/iuhtNmLMDZS2EYOGwAqn77NXr16YVZs2dh5qyZaN+hPWrXaogVy7aiIN+GgvxMLJo3FtW//xwzZ89HckoGX25WWlKC7OxslJaWICMrDTNnTUOzJk2xeeMW5OTkwG4vRmT4I4wbOwFdu/TBpUtXcOnyJbRqFYIG9eti7NhRmL9wHiZNnoKmzYLRuk1HHDtxEcV25VsnVlL+/SIbBOu5AvFV23RlFkYQLTHyVZ5528PIsrohjK3Mg+IyL1JtxXiUnYpb6Qk4GnsfC68cxvCjG9F64zR8NbUXPh3XGVXGd8GXk3ui5rxBaLp4OHpvnoJpO6Zh4sQuGNOhDua0q49fxw9E3OVTcBblgh0twDbCedFVifr+okyAzTwxMudyIe/ODdyYNhr7W9fHyU7N8HTNPORGPYDLUcQJFN9t1D+F135itsiIitvrQGTEIyyYPQNBTRrjq3/9C19VrYoWwSHYufsXFBQWaXlxjDl5V79VFWSHb47DZgwVwidIH5/t47NL5e+WIEHajFMgWPKzlrNyI94YJvImLiU99r947yq6LJD9AFOQn4Kpk4dg2MiReBQVx4+f4GHqd77ask5G/tgGTWJnX0lRrW0RxIznrAhUpoMUVVHMz0N94N/r8jeDe3BseGLl5WK71+YU5mDJomVYOHcJkhJTeHq8/Lw+y1cfvFKPynT4Hft9lEyk73dcfaT6HxoB0VoJEAKfhb9wRThz39cldDCTv4gru2bSMRpHzo9IH33TZ9R+LCZfbs7lA1N5cFZB3fIIFUeIgWF8MCkPLSukVsGDJcGGcOxw5qTUCEyfMgFtQtri+OHDOHZ4H7r2HowFyzfj4Z2bWDR3PmbOXoqT5y+he++u+Ld/QdB32wAAIABJREFU/3/w1//5C6p8XgWff/4Z/vbx31C1anUsWbwe2VmFKMhLx/y5I9GgYU1s2n4ANicrs1JupgibnUjLTMGkKeP5DN7pk+x7QSc/EDs9JQ7zZy1Cz+6DcfHiVZw4eQL169XCf/7ff8en//w7qlT5FJ9W+Qx/+evf0KRpCA4fOYNSm0r6+JJvdZl2hRLr8xDQ+o3QKwzW1dkr/m2VuqyND8qfg23Ek+N2ILYkD4/y0vgy0GXn92HWyR0Ye2gdWi0fi2p8M5juqDajO+rM6ol6E9qj+YAW6NC9AQb3aIaNUwcj6uIxOLLS4HPYld1VK9mMhy9pfVmxWLvpdsNXUIjCG2G4P3MsjrRvjpPd2yBy/VIURD2E01bACRlf3i6Rg5claySM1bXL60Cxnc3sbkOThvUQ3LQphg4ahNFjx2D8lMk4dvIUCouK/ZIVRIG9I4zYKDNhykwXI0dsx0mPz81n/NgSS7akUFn9ocyCsXgepweOUhc8Lg//Xs2vTrWKLn+9mAIsHv+OlhMmP5V0P4ikhcveM/anbNCj3LMwv4uTPhdys+Lwc+9W+KFDR1x9GA62rFMplxJfwYF9y+fmJLGszKtSO1EOaWZRXvpZwYaFvOJyXYTCsispqbQwfh48shB3l7mRmpuM0SPGYuSQsYiNilfDFZ0Yrmy2km1SJeijiMvcD/ki0vch1y6V7cNGQLRSopSBz8JfuCL8fbZqQgehkxFXxJVdI/HNysr5Eekj0mfWjiwWTx7MvpT0Mb0D3oEXPpsoI0uafWPk8JTgWeoTTGUErGUHHP/tKI4e3otuPw3FopXb8OjOTSyeOw8zZy/DkZNn0aVHR9SsWx3TZkzB9h3b+BLNPb/uweHfTiAiPB52mxN52SlYOHcUGjepj627j8HmUgaufICqDkQzc9IxfeZkhIQ0x+HDR/hmFQ5XIRLjn2LWlDno1mUwLl26gaPHjqJe3ZoIat4YK5Yvwa7dO7Hrl1/w6979uHDxClJSsuDyKGfwiVkQhquZKxBumQP5hwUQd1WQYwrAXVYGF9vgoqwMxS4HMksKkFyUi5i8dFyKe4SdDy9g7f1T6L9/OapN642PR7fDP0b/gGojWiFkcEuM7BWEXUN64PrSuci6f5sfr+D22PkgXy4bK2WlM1nS7F7hk4eIWL8GV/p1x/GQ2jj0QyM8Wr0YJXHR8DptfMkl3xBE/aaZ2eebulhaLG2HtxR5RelYumweGtWrizVLV+BZXDyS0lKQkJKMrNx8uNyMvJRf8nsSSPo8PhfcXuWoAbbMU3xDJn5YYHaWn5eLA3sOYv2qTYiOiIHP7WUG7/+hHu9XJC91dtEI6dP0lLT3txVlgyG2QyxbesyIHyM8FS6V9OVkxeDnXqFo074TrjwoJ32CNHLSxwif1wmfl21mU076mD0wOW056QtInyLn37xwlQIVD3iWH2V54e/0OZGS8wxjRo7H6CHjNdLHysptQXz394INiipg8gF5EOn7gCqTivIHQ0C0cKLYgc/CX7ginLnv6xI6mMlfxJVdM+kYjSPnR6SPSJ9R+7GovDZIFAMy5lY2CGT6B7wDL3w2UVaWNBuEKqTvMaZMGYcfWnXEiaPHcOzIPvToOwyLV2/Hw7s3OOmbMWcZLl69iQlTxqJRswaYNHUizp0/i4ePHuDe/fu4ev0WIiJj+Xc8+blpWDJ/PFo0b4rtv5yAzc3G2+ybOOWAeEYEsvPTsXLtEjRu2AAjh47G+QsXcOnSSSyaOxlBjUPQod3PuBR2Ezdv3USXLu0RHNQEq1cvR9jVy3j46BHuP3iEx48jkZVVBDae5zstqrsaysTICDSBcMvV4h8WQPrUpWusJhmmbAdQZSdRvrKSJ8MG+2xHzlL2DaXHhmRXEa6mxWD7/YtYcHE/+mxfgNAlI9FpwVBMGNwem1rWx9E2TXFj9EBEbl6OjKtnUBwfDntuGjwuGyeAbLaLfSfHBv/sj5E4d3Ym7M/iUHz3JpJ3bcHdsUNwum0LHG38PS50CsbTNYtQGBPBd05VNjYJ+D5MLrQR8AJklUG+FyX2AsQ+e4LL105h8ND+qFerHtYuW4fo8GjExMYhPjEZhUU2sFWsbMausKgQCQkJiImNQVJyEt/Fk+1Oycgd+2M7eeYWZCM6LhLhkU8RExODtJR0ONj5fIw4ebxIT0vDtatXMKjfYLRr3RH7ftmH2PBoJEUnojAjH16HCz6XC1kZGcjIzIbDxeySbVziQV5uFlJSklFcWsp/FPH6GIHMQ3pqGmylNn5UCNMvOioKyYnPYC8t0Q60Z8ePZGVnIy4uHhGRUUhKToaN7QRa5oPT51G+yXvR+67N9MXip+7BaPVjB1y+F46UrBxEx0QjPiEB+QUFULDwwOtxID83E8nP4lHIZnKLSpCSlo6YuDh+xEV+YZ6GmdPpQGZGJuLjExAdE4eEZ8nILyhWdjt9Dng8XuRk5aAwrxCOUgdys3LxLP4Z4qJjwI5dYTuM8tlUtUliu3oyPBLjEzh5T3yWiNz8fBQ5ipCYFY8xo8Zj5KCxeHj3CTLTsxAXHYe42Dgu42S7onJyWrF5CzChD+qRSN8HVZ1UmD8UAqL3F4UOfBb+whXhzH1fl9DBTP4iruyaScdoHDk/In1E+ozaj0XlrUT6+EyfV5npY6SvbauOOHnsOI79dgA9+43AkjU78ejebSyetwAz5yxHRGwiLl25gIFD+qNO3VqoW7c2302zXv366NCxM3bu3oO8/Hz+Td+KhdMQ0iIIO/ecADuvWS43m5ErdRTiwsVT6NqpA7749HN89+13aNSgBloF1Uejek3RuWM/XAm7iZycbGzdthEtQ1vg22+rokatGmjYqDFaBIVg5IhxuH3zMdycVCpEjC9TfOszfWp51IV1vGzS7pCc8PGZVP9ZJLG8zVHm4Ye4F3kcKHCXIqU0FzdTo3Ek6jaORlzDwV9WY++QrjjUpgGONK+Ok23q42yftjg7+mc83boS+fevoTj6MYoiH/r9FT68hYgdGxA2eRTCBvfGhfZB+K15DRxsWQsnugXj6dqFKI6PhJcdd6DOCjGCLGaGmMvK8qYult7jJ3cwYvjPqFWrGv7617/g3//t/+LrL79F44ZN0bhxM/Tu0w/nzl5GSakdyUnJWL9uPdp37IhmLVrgp74/Yd/+fcjOzuJLORnJzUhPwdbtm9C+049o0LAegpo1w6hho3Dz2j24nF7ExsRi9swZaNakEf7+l7/jL//f/+D7ajXQvHEztG7RGisXrURiTCwykuOwfPliLF+zEfEp6XCXeeB0FGLnjk0YPXYsrty4rZzBV5iLzZvXYdSI4di/dz82bdyEbl27oEnjhhg+bDDu3bkFl9MOj9uF8PBwzJs3H+1+7IBGjZqgb99+OHnmLPKKiuFiRztoyxorwVglfXnZcZz0NQtphfW7DmPStNlo0aIFfmzfHjt27eZnYrI6c9qLcfH0MYwbPQwbN2zGuvWb0bv3T2jWvBk6d+mMY8ePoaSkGC6nA/fu3cXEiZMQGtIKTRo1Qbsf22Pduo1IT8/in3zm5+RjzfKVWLFkGfbt2YcJ4yagdWgrtA4JwfIlS5CQmAQPPw7jObJzsnHkyG8Y0G8AQoNDEdI8iG/EtGLlKjyOeoK4tBiMGjEGvbv9jPWrN2H8GDWt4FAsnL+Qk06Xh/3QoFia3M2/KbuzYjpE+qxYK6QTIaAHAdFKCdnAZ+EvXBHO3Pd1CR3M5C/iyq6ZdIzGkfMj0kekz6j9WFReJj9s8Mb/XjTQDngHuFhlfjrKKoiJ7LLZDbfPgey8ZOzbtxuL5i/B7Vu3cefODaxcuwlHTpxHfEwUDuzbh917DiItMweFxQW4ev0K5s6ZzQe/ocHBaPfjj5g8eQouh11BCTsw21aEY4f3YuqUqbgQdhsun0KSOKlQy+z1uZCbn4njxw9hxNChaN+mLXr37IT586Zg4MCh6NVrCK5duwWP14PU1CQcPLAXw0cMRes2rRHashV69+mLNWs2ICbmGTw+qAegvwLPV+AUCK1cLRXCAtJiuCrfXpUfIyPiMFFBrpQZT3YWm3KGIsOEfQvFdgNlM4DZ7hKkZcQj/tZ5PN22HDfH9sWZto1wqFE1HGhWHac7BePOiJ9wb+xA3BzVDzdG/YybI3/GDfY3/Cec6doah4Pq4lCTGjjRuhEuDu6Ku6tnIP7MfhQ8i4LXZZe+pwqYsVRJbEDRTD+yMkdFPML4sYPQoN73+OTv/8B//DsjYXUQHBKC4Fah6D9oME6dPofo6BisWrkSLUND0bhpUwQFh6B27Tr44YcfcPr0KZTaiuF02nD96iUMGtwPdRvURoOGdfF9tar4ssrnmD5tERJTshEbH4+5c2ciNLgp/vm3T/DX//wH6tRqgNCgULQMaonli5YjIS4acdF3MXhgbwweMQEPoxLg8rlRUpKBGdPHoGmzFjh84gJfNpyTk4KJ4wfj66+qIDg4hBOcH9q0xHfffY2QoKY4dfIoSooLEB8bjdkzZyEkKBTNmwUjqEUo6tRpgO49f8LV63fgdHsl3CuBlB3H4HODkb4+PYLwxTfV0KrjT/ixQ1c0bdIEn3/5JUJatcalS2HKGYe2QuzduQE1v/8K9Rs0QZs2HRAcFIx69evwH2S2btmKgoICvsx17Zo16NKpC1py0tcQX3xWBSEhbXD56j24Pc+RmvIM/fv0RO3q1REaHMIxbxkSgs8++Rj169bCoaNHUWSzo6CoAOs2bEDzoBDUqVMPLZq1QKvgUE7+Bg0ZgnOXzyMmOQrDh49A3RoNEBrcmucZEhyCal/9C7W+r4Eduw4gu6hUm+1T1jmwN+XDvoj0fdj1S6X7kBGQe3JWzsDnwLKL8PfZrgkdAnXT8yziyq6eeK8rI+dHpI9I3+vak0Xiv1fSJ0im6jLCwZZcutx25ORkITklGUXsUOyiQqSkpSEnLw82WymysrOQmZnFv7tjxMbhdPAldJHh4Xjy6BEiwsORnJKC4uIS5Tw2n5enFxfPlnQVKp9SqZussDzFd0mlpfmIjw3Ho3t38PThI9y7ex2bt65Bxy7dMWbcdERERsPrZQd5u1BUWIDExGd48vQJHj1+guiYWGRm5cDucKnnl5XvWm+2qgOaHKVtVxOrEFZJJjKhFvJCrEK9S7OEDFO2LNTDvgP0sQPLXXDZi1CUHofsu2FI2L4OEfOn4sns8bgxqAdOtm6EY81r4lCzGjjYrAYONa2OA02r42BwHYT174InM8YifO4UxKxbirTLJ5GfFAF7cY6yGyifYWHa+BVPqPnmXJ7Bc5SWFCAi/A7OnT2CIYMGo16tFli2ZC1u3b2NWw9vIzwqArm5eTh75gw6d+yIwYMG4fiJE7hx4xaWLFmG0JBQrFy5AhmZaXA6SxEb9RSHDu3DsRO/4ebNa9i+eT0aN6iHnn2G4/7TBBSUliAq9gnOnTmCXl26o2Vwe2zftgd379zF/Xv3wJYiFhfnIS7qBgb164qhwyfgQXQiXGVeFBalYOqUoWjUrDn2n7wMhxfIz36GCWP64NN//hk/tuuADes3IuzyeezbuxObN65B+JMHyM1Ox85tW9CxXXvMmDoTF8+H4d7dR5g/bwnq12uGDRt2oLC4VP4NoSLOZc/BdtJl3/T17tocn375FQaNnobffjuFq2FhGD95Ir6tWQuLl65ETnYe7MV5+GXbKnz3TRXUb9QcCxevwrmzZ3Hu3Els3LQON65dh91mR0lRIc6cOomzJ8/g3u17CLtwFgN/7oN69Zvi8IlrcLjKkJgUiZ5d26HmN9UwYthwHDh8CNevX8Pk8SNQs8Y3mDV/ARIzsnDrzi20btsW9Ro1wZKly3HlylU8vH8f169dx9nz5xEdH41n6fEYMnQIanxbG4MGDMXefftx7cZVLF4wAzW//QZsmXhCZh7cjOTy2fA3O7tcEVhr+BDps0Y9kBaEgHEEAnvLwOfAFEU4c9/XJXQwk7+IK7tm0jEaR86PSB+RPqP2Y1H5CoN/RsBeNBwMeAe0kXqgv46yVpYvI2B885OATTyYLNu+X/wKz+MG5sF342QvJlNGufzVYrNI5eko348pW/Bz0ud1ISUxDts3r8PsqZOxfP4CzJw6CUEhTVCzXn1s2LITefkF8PkYSVTOIeMbdUi/s7Gs+Z4llXwjJHQy4vrr78+KKoQZSVinrIKXslul1+uGx+OAx1ECZ3Y6bImxKI59ioyLJxC7aSUiVszjf+Er5yF8hfL3dM1CpJ4+jKKIhyiNj4IjNRHu4nz+/Rf7Xo2Ry3dRDq24zEbKfHA4C5Gd9QwL5sxDaFBHHDpwEiUOG2xeO9xsB84yLzZtXI/q31ZDaEgIpk6dhvkLFqF/v4H4/tvvMW7sGMTERsLlssFWnM+XVO7YsR0rly/FxDHD8N03X6BDtwG48yQezjIf7O5ipCRFYNzI0ejWpR9uXLsPt8ej7PZZ5oPLXYK4qKsY1Lcjhgwbh/uM9D0vQ2FxKqZMHoJGTZtj78nLsDPSlxmHMcO64rtvP8PqdZuRnpYNh70EeQXsh5AUlJQWIisjBWNGDUfVf32F7l16Yv6cxVg4byl69uiHzz77BpMmz0ZySqb8qmgQiZsyn5fvpJubHYN+PVuiQZMgHDxxGcXFdnjdHpw4exrNWrbCyNETERfzDLaiXOzZvgJ1an+NUeOm4mlkAux2G+yOYuTkZqGkuATse0S3247U5EScO30WWzdtxaK5M9AqqAlq1mqAw6dvwOb2ISkpGgN790T/nj/hypVrKCwp4bOqZ0/uR8vQxpg4bSaik9Ox65edqF2vLsZNnIKo6Fh+DMtzXxlcThfYd36lThtSc5IxaMggdG7fDaePn0VBQSGcbhuunD+MZvWrY+SoyYhKziDSJyqeXEKAELA4AqLXFGoGPgt/4Ypw5r6vS+hgJn8RV3bNpGM0jpwfkT4ifUbtx6LylZEv5lfpFfAOVBixi/BKI/t7VpavTPrYvdCDJSvObOP3akiF7Cp4lC98UILEkkdGLssppJjpy0hLwurli9G4Xm18/WkVVP3sc9SuXQOjJk7AvUdP+TI2ZUdGlpqUtso1RfaVuf6l1/cUmI5cLRXC9CVpSEorq8ZmlYL6+G6gyiYmnuJCODNS4UhJhDM1Sf1LhjM1GY6MFE7y3G4n3F4Pyrx83SvgY7uk8EaUE3m+gyQn7TKo/iTXkOIvEuZ5lMHhLkZOThInfS2DO+HQwdOwOVxw+Txw+VxwemxYunQB/v7ff8X/+d//G3/963/jbx//A3/+r7/iP//jvzB0yGA8efoQJaV5uBp2FrNnTsecWXOxfetmLFs8C7Vrf40OPQbg9tN4uMue8/QY6Rs7fKRC+m48gNfHZrU9YGfJMX0Y6RvwU3sMGDoKd6MS4GSbyBSnYcqkIWjQpBn2npBI34juqN+gJg4fPweH+zmfzWY7iLKZOU+ZC+npSejTuzv+3//1b/iP//Nf+OffP8cnH3+Gv/z5H/iP//wY48ZPR1Jy+stJ33MfnJ5SMNI3oHdrhLRuh7DbT+Blu548B27cvY3WHTpiwKCRiAiPhb2IzfQtR8MG32Hh8rXIzC2Clx2H4HPyH3JYlTCin5QSj82b1mHqpClYu2oNdm5ai95d26NuvSY4cOo6it0+JKckYsTAYZg5cTYSnqVwQuZwlSLs0mG0ad0EE6bOQnRyBtZvWofqNWtg+cq1yM0rVMrDjsrwse9Cn/P803PTMHjIYPT/aRDCH0fynVXZaoLb146jRcPvMGTIGEQ+S+NHUfyhZvpSUrLpcPYXNRTkTwhYGQHR+wsdA5+Fv3BFOHPf1yV0MJO/iCu7ZtIxGkfOj0gfkT6j9mNR+crIlyBbFVQOeAdeh/SxtHne4v+ADTw46ZM2QHlZ1lzPQIEKyivfsSkzieXncilleM6XeDodpYh8+hCH9u3Btg0bsHvrNhw79hseRkagwGbjA8lKktVgUMokkUGJw1QW71V+FYrEPNSrQpgIeINuOemTCqISXEHUOHljJI4TOonUsY02ypQjATxsAK5uJMP4o/zHZ3DVGVjmr4Ep7t9keZitPS/j5y/m5qRg/uy5YKTv8MHTcDo9/DtMRsQc7hJO+r7+15fo2rkzli9fjvXrNmD92o1Yv2Y9Tp08iYzMVCQkRGHalDEYMmggzp29gPTUFFy5eBKhoQ3xY7e+uPk4Fp4ywO1xIi0lBmNGjESHH7sj7PJNeL0+9Qw+po8NCdE30K93W3Tt2QdX74ej1OlGUvwjDB/YHXUbNMa+E8ryzryseIwf1ZsfP3Lk1EU4POz7UeXAeUZm2F9q2jP0/akHvvn6KwzoPwgrlq3BhvVbsGnjdqxdt4XvQltUYuNQvwhe9m6yA+xzM2PQp3swGgcF49y1e/B4n8Pn9eHkmdNo9UM7TJs2B0mJqXAU5+OX7avRuFEtLF25AVl5xcpuo2Vs5lQ5tJ3hsHfvTnTu3A4rly9DbHQMEqLDMXvaJDRtFoq9x66iyOlFaloqRg0ejTlTFyExOZ2TPruzGBfP70PL0AaYMGUmYhIzsGP3DtSuUxuTp8xAQkIyfMzm1Bl/t5fNVLrBSN/QYcMxsO9QREbEKDPxz8tw+8YZNG9cE4OHTcDTxD8o6XM6XS+qf/InBAgBqyIQ2DkGPgfqLcKZ+74uoYOZ/EVc2TWTjtE4cn5E+oj0GbUfi8q/ivQJs69MfZm0VRZuxI+lJYien06VDE2FTsLVm4+Sh5jhU2PxRNQNRMp88LidsNlKYCsphq20FA6HHU62tPEly16FHi9z9eooywWmJ0NRIUyO+DbuAzPU8cxE2K6cnPCp9/5nsikzr8oyT8Wa3obqcposF0ayGOmbM3sOgkM74dDhU3A63SgrU2aHGNnZt28PmjZuhM6dOuHXPb/i4f2HePLoKS6ev4jLly4hIyMNkZFP0LN7J7Ru1RKHDh3h3+itXrEY1ap9gfpNmuPw0TMoKCrhpC83Jw0Tx49H7VoNsGrVOjwND0dsXCzSMzNgd5QiMeEJ+v/cDU1bBGPjrn04eykMs6aMR61qX6F6jXo4ePwSnO7nyM9MwPgRfdC0aUMcP3dZ2ZRIPTCdEVr2o0ZObjpmzpqC2nVqon+//jh44DAePHiMhw+e4ujRU7hy7RbXi9WPuAKrk/l7vE5+OHvfnq3waZV/YuSYSQi7fBX37tzFqDFjUK9BI2zbthvFhSVw2YuxZ+cGNG1cH0tXb0JmfjE3V/FOszp2u+xYsnAualavhjkzZ/Jv+s4eP4beXTvj66+/w7xlGxGVkIiEZwkYNWQMZk9dgKSkNP6NrMtViotn96JlcD2MnzwdUUkZuHrjGn5o3RqNGzbBiuWrcO/eAyQksO9sw3Hxchii4mKQlJGIYcNHYsjAUYiMZCScLekuw50b59CscS0MHjYOkYlp3EYVDN6NHQrc35f7UWpqDhxE+t4X/pQvIWAeAdFaixQCn4W/cEU4c9/XJXQwk7+IK7tm0jEaR86PSB+RPqP2Y1F5PsRhhEb+k9iFbPaBRdDiSvKBMnqftbTU2T2mj7bE82VK6M3gZXLy1BPPy38XSUFKXpaECJNVle9FuBFXjs/uBcyB/jzMSMJmZNVMRd6yLjw5ESBcNQ/2yIie8PZ3JZzFjK9I2IyOOuOwg+Vzc1MxZ+4cBLXsiIOHT4BNerBZIr7Ut8yLhGfxWLJ4EVqGhKJJ4yYIDW2JkJBQtP2hLVauWsk38UlJScLkSePwzTdVUb1WbQQFBSE0qDm+/64q/v6Pv/NjQ86cOcuPKnC6bNi8eROqV6+BqlWroXGTJmjStAlmzpqJqJhIZKQnY+682aj63ff4qnpNNGzaDD27dEWTeg1Rt15THDl+EU6XD4U5yZg8pj9aNG+ME+cvw83WJEoXe2fY8SO3713H2Amj0bRZE/VIkWAEh7TEj+06YsvWHcjOydWQ9q8TUVfKTF9OdjwG9O2ATz7+b9SpXQ9NmzRHk0ZNeTn6DxiEe3cfwuv2wm4rxi+7tvCzMJes2oj0vCI+qyYyYe93mdeDIwf2IahJY3xfrRpP54eQEAQ1aoAvP/8C33xbEwuXLMade7cxfNBIzJo8F8lJqdx+PG4HLp/djzZspm/qDMSmZCA7Nxeb1q5D21ZtUKd2XdSv3xBNmjRDcGhL9O3XHyfOnEJsUiyGDR+FEUPGITwiGm6vmxPjuzcvoEWT2hg6YixiElP5Ji4SjB/8LZG+D76KqYAfLAKixRYFDHwW/sIV4cx9X5fQwUz+Iq7smknHaBw5v3dM+ljHKWdvVPU3IS+WzchuWloaxowZgz/96U98wBMdHf0msqI03iECMtnSiJ8YqQUM1gPV0uJK8oEyRp55/mpafJAovuuTjZ/dv43LLw+JjAgyrLOMfslI+JlROTAtoUKgP3t+65eaqchb1oXnLQIClJG9/e/9MWZrPsW/t10W9p1ZSWku9h/Yj2kzFiDs6k24XArpU4ifsiMsO4ydzfINHzYcnTt3QefOnTF27FhcuHgBhYUFfKOS+3dvY/qM6WjboQN69+mDFcuWYvOWjRg+cjhGjByBi5cuorS0hG8OExkVgXnz5/F02rRpg3bt2mHR4kWIjo7ixPDW7VuYOHkyfujYEf0GDsTh/QexbtU6TJw0AzfvPoHHWwZbcTZ2bVmFqVMm4s7DJ/AyRi1dDEO3z4liWwEehz/EmnWr8dPPfdGm7Q/o0q0bps2YgWvXbqC01K4ss5VsNLB+2IxnUWE6Vi2fgwnjR2PpkqUY2H8QunTqiunTZuD61RsoKSrlGxs5nDZcvnSeH4uy7/AJ5BSWCBPh2vG6fV6G3Kws7Nm1C/36/oyOHTth0oRx2Ll5AxbOnYUe3bph3bq1iIqMwMa1m7B/1wHkZedxPX0eF6If38C8mROxZ+9BZOUXwe3xIjsjExfOnMOkCZPQrkNHtG77I3r07oNVa9fhaVQEMvIysWnzdmxOTa9iAAAdo0lEQVRcvwOJySl8ox5GjKOe3uW7ga5dt5Ef/RJgthKiH+Ytkb4Ps16pVH8EBERLLcoa+Cz8hSvC32crJ3QQOhlxRVzZNRLfrKycH5E+mukza0cWiycGYxrhC1jGKJt9oOpaXL/hXaCU/meenpoWu690po8p9DYuuaDqhh8vwuRl2fslIw2oXxbnRWGBaQmYA/3Z81u/1ExF3rIuPG8REKCM7O1///5IH/vGzOWxIysnCwmJycgvLALbnEZcgvixXVqLi4rx7NkzREZEIiIygs/wsUPGfWXsm7zncDmd/DiRRxHhiIqJRlZWJvLzc/EsMQFxcbEoKMiHl21i89wHl8uJtPQ0REZF4unTp4iIiODHkjBSyGRsdhuSk5MRHhmJuPh4FBUWISsrG/HPklBQbOMHiLvdNqSlPUNCQjyKSm18hioAcp4X+zbR5XEhKzcbUbHRePz0CSKiopCcmooSm035/k2yT/+6YbOzbKmrBx6PHcnJ8bw8WdnZiI+LR1RkFNLS0uF0OPmGPOw9YRvJ5Bfmcawyc/Lg8rCNmNSLJ65uolRWxs/ri4+NQ0REJJKTElGQm42MtBTEREYiPTUVdlspMtIykJuZC6/Lo0wVl5XBXlyAlGcJyMrOhdvDdtFVfg112h1ISU7B08hIPA6PQERMDDJycmBzOmDzOJCanoHUtCyUOhz80Hs2c8+PyYiN4Hg4XO5yXYXOH7hLpO8Dr2Aq3geMgGitRREDn4W/cEU4c9/XJXQwk7+IK7tm0jEaR86PSB+RPqP2Y1F5jbiJGS0ifXynET/CF4DJy6oyoJngg0nmZ+YKTEuMTAP9zaZvSCc1U5G3rAtPRwQEKCN7+9+/P9LH6pZ9+8Zcdgm9/PAIKIcip+osCq9GZqLe58+VHWFVWxE/YGh2pG4iU9mzj81ov8DGhG7qppkoK/PyjVGU9CvRXURQZ04ZeVOOJ1E21dGCpXJX9GNxlCNS+AysrBsTFpcakenOiDTDVJmxVfTiYpIMI1sKTgpZY6uqmZ/Px8rk4ztrqjutlBeMVZH486lnogQoLFZns5WuDCft7/lz/g0fKwuLqrjKZi/sSAqfz8M3G+LxRZn+IC6Rvj9IRVMxP0AERAMoihb4LPyFK8KZ+74uoYOZ/EVc2TWTjtE4cn5E+oj0GbUfi8oT6SsfX4pXnFWVNmiX7vRWoUhHuHrjBcqJ+MIVXEM8y25g3Df+rGYm8pR14XmJAOFKCggvf/c9kj7GIxiRkXaHldR94a1sE5qQwl84oRDhIkw8M5dd8rPfvUyqRGTJZbEZ71HwEzHFc7mrCmgeSjyZ9DEKqAVrOZT7KbNxnMSxb2oDNPaLXB6JEz02k8n++FpMLWX1hmHE0lM3UeHY87MumX/5Zj4a4VNn8Pzy4wdgViR98u6v7F4hdipp5cc2ML1YHqzOmasSzjK2uywjmsqZm4Eqf+jPRPo+9Bqm8n24CIjGV5Qw8Fn4C1eEM/d9XUIHM/mLuLJrJh2jceT8iPQR6TNqPxaV50NIdQDMBmb8j4+2FIVlsw8sghZXkg+UMfJcPpxlA1M2QFPP6pOVYPdv+ApM3lAWgZHfoG4VklYVC/RXvd9gzpUkpWYq8hZVruUtAoQrJSG8/N33S/pkW5NUNXUrl8tUAjoiiTyEqPIsSqG4fiRJ7aPKZ/nYTJ9C40QasstTEO8/nwllGymVb/DE7jmhE4pUcDmzUxilnDC750EK6VOIFiNbPr401I/oycROJn5lz5UZOZWkKXopBE4QucpcUfbAMA0nkR8ri7hEucTzB+oS6ftAK5aK9QdAILCRCnwOhECEM/d9XUIHM/mLuLJrJh2jceT8iPQR6TNqPxaVDxzsEemrfNxaafUFtAmCCFUqa8IzMHmRfqA/e37rl5qpyFvWhectAoQrKSS8/N33R/ok1X63txXeW1Yh/gDzH04E8REuixd4VUiL75zrT/pYu/By0lfJFKKUEW9XOGlTCJ82yyaI10tcNhsnk8XyGcNXEz9G+NhsovgLxOiFz5LuH+Itkb4PsVapTH8MBERDL0ob+Cz8hSvCK7b9QuLtu0IHMzmJuLJrJh2jceT8iPQR6TNqPxaVr2zAJw8MZbMPLIIWt5KBZKCsnmeenpoWu7f8TJ8MjrjXU1CdMiJJ4QqYxbPs6kzSvJiamchT1oUnKgKEK+UkvPxdIn0SRIZutfdOmoljfrxOJJCZnyB7wuVyAblVlh6bTZNn+t4X6auU8GnLRF9N+gTZE24gRi98DsDoQ3sk0veh1SiV54+DgGjkRYkDn4W/cEU4c9/XJXQwk7+IK7tm0jEaR86PSB+RPqP2Y1H5ygZ88sBQNvvAImhx+cgpMNT4M09PTYvdE+nzH8cLmOU6EffG0TYYQ81Iy4/dqJM72o0IVMMUCf8ylIsQ6RP4GHW1945In/adXuASTvEsyJ5wX0jyyg1TMVijlfI7kyfS9zurMFKXENAQEI2V6IClZ01GvhHhzH1fl9BBzd+QKiKu7L6Lcsj5vWPSF5D1uyhthTxEpym7dE5fBZh+dx4vHECqJZFtL7BwWlzBRgIFdD6X58FT5LEqpC2E1DQVyXJ5nVlVKiaSlt1KBQM95QjiPlDmNZ5FksIVMItn2X2NbAxFFXkKXbTIIoC5AZccVH5PpC8AJkOPsv2L+8oSEGGyq1dOjsPuX+fiackkVfdyUdbZ+tuK0KXcll70w0IlGlcWqRKxD92LSN+HXsNUvg8XAdGI/U5Jn6S+vjoSEWRXX8zXk5LzI9JHM32vZ02WiV3ZYEwMqpiSstkHKq3FfY0BoZw+T09Nq9K0mbB6VRouAg26/joY+KHfdER9CgYmL8NcIUxfkq8tJfKVdeGJagEVsxBB/q7/QJ4P7NXdIiumQD6EACHwJhEg0vcm0aS0CIF3iYDoSYn0vV3UBc6qqw1QVQLIvn9g303I+6OJKEIx8cxcPmgSHgHP7PsJ7Rwpnn5FcZHmu3LlGT5xTzN97wr9t5ePRp7kX+GlEb0wUW6zAWpocSX5AJFXPsrpa+8Ufz1UUiCnLSnxJvIWyvnrQKRP4FKZK7CSq4XLaQEVY4kgf5dIX0WkyIcQeDcIEOl7NzhTLoTAm0dA9KRE+t48tnKKAmfV1QaoRPrwpz/9CUFBQYiOjpYRo/vfAQIaeSLSx3mMeM11VZ0Qll1dEfUJycmye5loVQjTl+RrS4l8ZV14olpAxSxEkL9LpK8iUuRDCLwbBIj0vRucKRdC4M0jIHpSMSaQnivNTIQz931dQgdVZ0OqiLiy+y7KIedHyztpeee7sLl3kAeRPv9ZdPGa64JeCMuuroj6hORk2b1MtCqE6UvytaVEvrIuPFEtoGIWIsjfJdJXESnyIQTeDQJE+t4NzpQLIfDmERA9qRgTSM+VZibCmfu+LqEDkb7ygZzAhBFKWt75vizzD5cvkT4ifUaMXjRTRPqMoEayhIC1ECDSZ636IG0IAf0IaL2wyh+k50oTEeHMfV+X0IFIH5G+92WDlC9HgEgfkT4jr4LWdAf2H1pAxdREkL9LM30VkSIfQuDdIECk793gTLkQAm8eAdGT0kzfm8dWTlHgrLp8sMx+7qZv+uibPtlOfmf3RPqI9BkxWdEM0kyfEdRIlhCwFgJE+qxVH6QNIaAfAa0XVieNpOdKExHhzH1fl9CBZvrUSpOAoOWd78sq/5D5Eukj0mfE8LWmO7D/0AIqpiaC/F2a6auIFPkQAu8GASJ97wZnyoUQePMIiJ6UZvrePLZyigJn1aWZvuegIxtkA/l93hPpI9JnxHJFM0gzfUZQI1lCwFoIEOmzVn2QNoSAfgS0XtjgTJ/+HN68ZIDO7FH3JeLKru7IryEo56cu6WQD5hct75TFRa5+fn4PQkJx+UYuZR6UPfep6fsPTP2l382TOJtPdon0vRvs32YuRPr83y3xWurCXAjLrq6I+oTkZNm9IFqB/jxMX5KvLSXyFrpoCWoBmo92I4L8XZrp0wCiG0LgHSNApO8dA07ZEQJvDAHRk4oxgfRcaR6vCq800hv2lHSQbvVlIiLIrr6Yrycl50ekj45seD1rskxsIn1E+owYo2gGifQZQY1kCQFrIUCkz1r1QdoQAvoR0Hph9Ydg6bnSRF4VXmmkN+wp6SDd6stERJBdfTFfT0rO7x2TPmU2sXxw+noFMRdbnuET9zTTZw5LK8Ui0lf+XsmvuK46kiOIe10R9QmJJIUriJZ4ll19Kb6+lMhT6KKlqAVoPtqNCPJ3XzHTx4TpIgQIgbeCwEdpqTlwOF1vJXFKlBAgBN4iAqInpZm+twiyCq7AmkgfzfS9XWt7Z6kT6SPSZ8TYRBNIpM8IaiRLCFgLgY/S03LhdLmtpRVpQwgQAq9GQOuFaabv1WC9hoTAWXX5YFmdgmP3ZfxA9TKUgT35DyRFrrK/n5AQUN3Ab/rUbLQoAeLv5FHM7skuzfS9E+jfaiZE+vzfVfGO6gJdCMuuroj6hORk2T1vAALaFiGjL8XXl9Ly4wpJ6WkBkp96K4L8XZrpq4gU+RAC7waBjzLS8+Bye95NbpQLIUAIvDkERE8qxgTSc6WZvCq80khv2FPSQbrVl4mIILv6Yr6elJwfzfTRTN/rWZNlYhPpI9JnxBhFMygIqBZXC9B8tBsR5O8S6dMAohtC4B0j8FFGej6RvncMOmVHCLwRBERPSqTvjcD5wkQEzqrLB8vqFBy7p5m+IERHR78QPgqwJgJE+oj0GbFM0QwS6TOCGskSAtZC4KPMjAK4PV5raUXaEAKEwKsR0HphdfWP9Fxp5FeFVxrpDXtKOki3+jIREWRXX8zXk5Lzo5k+mul7PWuyTGwifUT6jBijaAaJ9BlBjWQJAWshQKTPWvVB2hAC+hHQemEiffpBMyEpcFZdmumjw9lNWJHlohDpI9JnxChFM0ikzwhqJEsIWAsBIn3Wqg/ShhDQj4DWCxPp0w+aCUmBM5E+PsvHNnShjVxM2JHFohDpI9JnxCRFM0ikzwhqJEsIWAsB+qbPWvVB2hAC+hHQemEiffpBMyEpcCbSR6TPhPlYNQqRPiJ9RmxTNINE+oygRrKEgLUQINJnrfogbQgB/QhovTCRPv2gmZAUOBPpI9JnwnysGoVIH5E+I7YpmkEifUZQI1lCwFoIEOmzVn2QNoSAfgS0XphIn37QTEgKnIn0EekzYT5WjUKkj0ifEdsUzSCRPiOokSwhYC0EiPRZqz5IG0JAPwJaL0ykTz9oJiQFzkT6iPSZMB+rRiHSR6TPiG2KZpBInxHUSJYQsBYCRPqsVR+kDSGgHwGtFybSpx80E5ICZyJ9RPpMmI9VoxDpI9JnxDZFM0ikzwhqJEsIWAsBIn3Wqg/ShhDQj4DWCxPp0w+aCUmBM5E+In0mzMeqUYj0EekzYpuiGSTSZwQ1kiUErIUAkT5r1QdpQwjoR0DrhYn06QfNhKTAmUgfkT4T5mPVKET6iPQZsU3RDBLpM4IayRIC1kKASJ+16oO0IQT0I6D1wkT69INmQlLgTKSPSJ8J87FqFCJ9RPqM2KZoBon0GUGNZAkBayFApM9a9UHaEAL6EdB6YSJ9+kEzISlwJtJHpM+E+Vg1CpE+In1GbFM0g0T6jKBGsoSAtRAg0met+iBtCAH9CGi9MJE+/aCZkBQ4E+kj0mfCfKwahUgfkT4jtimaQSJ9RlAjWULAWgh8lJlRAJfbYy2tSBtCgBB4NQJaL0yk79VgvYaEwJlIH5G+1zAjq0Ul0kekz4hNimaQSJ8R1EiWELAWAkT6rFUfpA0hoB8BrRcm0qcfNBOSAmcifUT6TJiPVaMQ6SPSZ8Q2RTNIpM8IaiRLCFgLASJ91qoP0oYQ0I+A1gsT6dMPmglJgTORPiJ9JszHqlGI9BHpM2Kbohkk0mcENZIlBKyFAJE+a9UHaUMI6EdA64WJ9OkHzYSkwJlIH5E+E+Zj1ShE+oj0GbFN0QwS6TOCGskSAtZCgEifteqDtCEE9COg9cJE+vSDZkJS4Eykj0ifCfOxahQifUT6jNimaAaJ9BlBjWQJAWshQKTPWvVB2hAC+hHQemEiffpBMyEpcCbSR6TPhPlYNQqRPiJ9RmxTNINE+oygRrKEgLUQINJnrfogbQgB/QhovTCRPv2gmZAUOBPpI9JnwnysGoVIH5E+I7YpmkEifUZQI1lCwFoIEOmzVn2QNoSAfgS0XphIn37QTEgKnIn0EekzYT5WjUKkj0ifEdsUzSCRPiOokSwhYC0EiPRZqz5IG0JAPwJaL0ykTz9oJiQFzkT6iPSZMB+rRiHSR6TPiG2KZpBInxHUSJYQsBYCRPqsVR+kDSGgHwGtFybSpx80E5ICZyJ9RPpMmI9VoxDpI9JnxDZFM0ikzwhqJEsIWAsBIn3Wqg/ShhDQj4DWCxPp0w+aCUmBM5E+In0mzMeqUYj0EekzYpuiGSTSZwQ1kiUErIUAkT5r1QdpQwjoR0DrhYn06QfNhKTAmUgfkT4T5mPVKET6iPQZsU3RDBLpM4IayRIC1kKASJ+16oO0IQT0I6D1wkT69INmQlLgTKSPSJ8J87FqFCJ9RPqM2KZoBon0GUGNZAkBayFApM9a9UHaEAL6EdB6YSJ9+kEzISlwJtJHpM+E+Vg1CpE+In1GbFM0g0T6jKBGsoSAtRAg0met+iBtCAH9CGi9MJE+/aCZkBQ4E+kj0mfCfKwahUgfkT4jtimaQSJ9RlAjWULAWggQ6bNWfZA2hIB+BLRemEifftBMSAqcifQR6TNhPlaNQqSPSJ8R2xTNIJE+I6iRLCFgLQSI9FmrPkgbQkA/AlovTKRPP2gmJAXORPqI9JkwH6tGIdJHpM+IbYpmkEifEdRIlhCwFgJE+qxVH6QNIaAfAa0XJtKnHzQTkgJnIn1E+kyYj1WjEOkj0mfENkUzSKTPCGokSwhYCwEifdaqD9KGENCPgNYLE+nTD5oJSYEzkT4ifSbMx6pRiPQR6TNim6IZJNJnBDWSJQSshcBHGRn5cLk91tKKtCEECIFXI6D1wkT6Xg3Wa0gInIn0Eel7DTOyWlQifUT6jNikaAaJ9BlBjWQJAWsh8FFGOpE+a1UJaUMI6ERA64WJ9OlEzJyYwJlIH5E+cxZkyVhE+oj0GTFM0QwS6TOCGskSAtZCgEifteqDtCEE9COg9cJE+vSDZkJS4Eykj0ifCfOxahQifUT6jNimaAaJ9BlBjWQJAWshQKTPWvVB2hAC+hHQemEiffpBMyEpcCbSR6TPhPlYNQqRPiJ9RmxTNINE+oygRrKEgLUQINJnrfogbQgB/QhovTCRPv2gmZAUOBPpI9JnwnysGoVIH5E+I7YpmkEifUZQI1lCwFoIEOmzVn2QNoSAfgS0XphIn37QTEgKnIn0EekzYT5WjUKkj0ifEdsUzSCRPiOokSwhYC0EiPRZqz5IG0JAPwJaL0ykTz9oJiQFzkT6iPSZMB+rRiHSR6TPiG2KZpBInxHUSJYQsBYCH6Wn5cFNRzZYq1ZIG0JADwJaL0ykTw9cpmUEzkT6iPSZNiLrRSTSR6TPiFWKZpBInxHUSJYQsBYCnPTROX3WqhTShhDQhYDWCxPp04WXWSGBM5E+In1mbciC8Yj0EekzYpaiGSTSZwQ1kiUErIXAR+lpuXQ4u7XqhLQhBPQhoPXCRPr0AWZSSuBMpI9In0kTsmI0In1E+ozYpWgGifQZQY1kCQFrIfBRWiqRPmtVCWlDCOhEQOuFifTpRMycmMCZSB+RPnMWZMlYRPqI9BkxTNEMEukzghrJEgLWQuCjtNQcmumzVp2QNoSAPgS0XphInz7ATEoJnIn0EekzaUJWjEakj0ifEbsUzSCRPiOokSwhYC0EiPRZqz5IG0JAPwJaL0ykTz9oJiQFzkT6iPSZMB+rRiHSR6TPiG2KZpBInxHUSJYQsBYCRPqsVR+kDSGgHwGtFybSpx80E5ICZyJ9RPpMmI9VoxDpI9JnxDZFM0ikzwhqJEsIWAsBIn3Wqg/ShhDQj4DWCxPp0w+aCUmBM5E+In0mzMeqUYj0EekzYpuiGSTSZwQ1kiUErIUAkT5r1QdpQwjoR0DrhYn06QfNhKTAmUgfkT4T5mPVKET6iPQZsU3RDBLpM4IayRIC1kKASJ+16oO0IQT0I6D1wkT69INmQlLgTKSPSJ8J87FqFCJ9RPqM2KZoBon0GUGNZAkBayFApM9a9UHaEAL6EdB6YSJ9+kEzISlwJtJHpM+E+Vg1CpE+In1GbFM0g0T6jKBGsoSAtRAg0met+iBtCAH9CGi9MJE+/aCZkBQ4E+kj0mfCfKwahUgfkT4jtimaQSJ9RlAjWULAWggQ6bNWfZA2hIB+BLRemEifftBMSAqcifQR6TNhPlaNQqSPSJ8R2xTNIJE+I6iRLCFgLQQ+SkvLpcPZrVUnpA0hoA8BrRcm0qcPMJNSAmcifUT6TJqQFaMR6SPSZ8QuRTNIpM8IaiRLCFgLgY/S03Lh9nitpRVpQwgQAq9GQOuFifS9GqzXkBA4E+kj0vcaZmS1qET6iPQZsUnRDBLpM4IayRIC1kKASJ+16oO0IQT0I6D1wkT69INmQlLgTKSPSJ8J87FqFCJ9RPqM2KZoBon0GUGNZAkBayFApM9a9UHaEAL6EdB6YSJ9+kEzISlwJtJHpM+E+Vg1CpE+In1GbFM0g0T6jKBGsoSAtRAg0met+iBtCAH9CGi9MJE+/aCZkBQ4E+kj0mfCfKwahUgfkT4jtimaQSJ9RlAjWULAWggQ6bNWfZA2hIB+BLRemEifftBMSAqcifQR6TNhPlaNQqSPSJ8R2xTNIJE+I6iRLCFgLQSI9FmrPkgbQkA/AlovTKRPP2gmJAXORPqI9JkwH6tGIdJHpM+IbYpmkEifEdRIlhCwFgJE+qxVH6QNIaAfAa0XJtKnHzQTkgJnIn1E+kyYj1WjEOkj0mfENkUzSKTPCGokSwhYCwEifdaqD9KGENCPgNYLE+nTD5oJSYEzkT4ifSbMx6pRiPQR6TNim6IZJNJnBDWSJQSshQCRPmvVB2lDCOhHQOuFifTpB82EpMCZSB+RPhPmY9UoRPqI9BmxTdEMEukzghrJEgLWQoBIn7Xqg7QhBPQjoPXCRPr0g2ZCUuBMpI9InwnzsWoUIn1E+ozYpmgGifQZQY1kCQFrIUCkz1r1QdoQAvoR0HphIn36QTMhKXAm0kekz4T5WDUKkT4ifUZsUzSDRPqMoEayhIC1ECDSZ636IG0IAf0IaL0wkT79oJmQFDgT6SPSZ8J8rBqFSB+RPiO2KZpBIn1GUCNZQsBaCBDps1Z9kDaEgH4EtF6YSJ9+0ExICpyJ9BHpM2E+Vo1CpI9InxHbFM0gkT4jqJEsIWAtBIj0Was+SBtCQD8CWi9MpE8/aCYkBc5E+oj0mTAfq0Yh0kekz4htimaQSJ8R1EiWELAWAkT6rFUfpA0hoB8BrRcm0qcfNBOSAmcifUT6TJiPVaMQ6SPSZ8Q2RTNIpM8IaiRLCFgLASJ9/3/7dYgDABDCQPD/vz7F6YKqGA8JWRrIdu3DNAjkBP4XJn05tEPlcCZ9pO8Qn9YW0kf6NtmcM0j6NtTUItBFgPR17cM0COQE/hcmfTm0Q+VwJn2k7xCf1hbSR/o22ZwzSPo21NQi0EWA9HXtwzQI5AT+FyZ9ObRD5XAmfaTvEJ/WFtJH+jbZnDNI+jbU1CLQRYD0de3DNAjkBP4XJn05tEPlcCZ9pO8Qn9YW0kf6NtmcM0j6NtTUItBFgPR17cM0COQE/hcmfTm0Q+VwJn2k7xCf1hbSR/o22ZwzSPo21NQi0EWA9HXtwzQI5AT+FyZ9ObRD5XAmfaTvEJ/WFtJH+jbZnDNI+jbU1CLQRYD0de3DNAjkBP4XJn05tEPlcCZ9pO8Qn9YW0kf6NtmcM0j6NtTUItBFgPR17cM0COQE/hcmfTm0Q+VwJn2k7xCf1hbSR/o22ZwzSPo21NQi0EWA9HXtwzQI5AT+FyZ9ObRD5XAmfaTvEJ/WFtJH+jbZnDNI+jbU1CLQRYD0de3DNAjkBP4XJn05tEPlcCZ9pO8Qn9YW0kf6NtmcM0j6NtTUItBFgPR17cM0COQE/hcmfTm0Q+VwJn2k7xCf1hbSR/o22ZwzSPo21NQi0EXgARFPOk8E5VEDAAAAAElFTkSuQmCC;" vertex="1" parent="1">
          <mxGeometry x="20" y="30" width="893" height="441" as="geometry" />
        </mxCell>
      </root>
    </mxGraphModel>
  </diagram>
</mxfile>
